<svg id="Layer_1" data-name="Layer 1" xmlns="http://www.w3.org/2000/svg" width="300" height="300" viewBox="0 0 300 300">
  <defs>
    <style>
      .cls-1 {
        fill: #d9c9c1;
      }

      .cls-2 {
        fill: #fff;
        stroke: #fff;
        stroke-miterlimit: 10;
      }
    </style>
  </defs>
  <rect class="cls-1" width="300" height="300" rx="17.1"/>
  <g>
    <polygon class="cls-2" points="116.75 131.2 116.75 147.4 118.85 133.4 132.15 131.2 116.75 131.2"/>
    <polygon class="cls-2" points="107.55 122.8 107.55 91.3 119.05 91.3 119.05 122.8 166.05 122.8 158.15 126.3 115.85 126.3 116.05 94.8 111.05 94.8 111.05 126.3 63.35 126.3 63.35 131 111.25 131 111.05 228.8 107.55 231.6 107.55 134.8 59.15 134.8 59.15 123.1 107.55 122.8"/>
    <path class="cls-2" d="M193.85,202.7"/>
    <path class="cls-2" d="M189,214.6"/>
    <path class="cls-2" d="M188.25,218.8"/>
    <path class="cls-2" d="M206.45,188"/>
    <path class="cls-2" d="M194.55,219.5"/>
    <path class="cls-2" d="M240.85,106.6"/>
    <path class="cls-2" d="M224.75,100.3c-22.9,67.4-33.7,99.5-35.1,103.8-.8,2.5-1.2,3.8-2.1,6.3a74.46,74.46,0,0,1-2.8,7.7c-1.9,4.4-4.5,8.6-4.9,8.4s.7-2.7,2.8-8.4c0,0,1.1-3,5.6-16.1,1.4-4.1,3.4-10.1,5.6-17.6l26.7-85.6h-3.5l-37.2,116.5a56.32,56.32,0,0,1-2.1,5.6,16.52,16.52,0,0,1-4.2,5.6,18.38,18.38,0,0,1-11.9,4.2c-6.5.1-11.3-3-13.3-4.2-3.9-2.5-4.5-4.2-9.1-6.3a28.11,28.11,0,0,0-7-2.1,18.17,18.17,0,0,0-7.7,0c-1.9.5-2.6,1-6.3,2.1-2,.6-3.4,1-3.5.7s3.3-2.7,7-4.2a23.73,23.73,0,0,1,10.5-2.1,22.48,22.48,0,0,1,9.8,2.8c3.7,2,3.5,3.1,7.7,5.6a23.32,23.32,0,0,0,9.1,3.5c2.2.3,6.1.8,9.8-1.4a10.61,10.61,0,0,0,4.2-4.2l41.4-127.8c-.8-.2-2-.4-3.5-.7a50.09,50.09,0,0,0-5.6-.7,35.78,35.78,0,0,1-8.4-2.1,63.67,63.67,0,0,1-11.9-5.6c-5.7-3.2-5.4-3.5-10.5-6.3s-7.6-4.1-11.2-4.9a37,37,0,0,0-10.5-.7,39.39,39.39,0,0,0-7.7,1.4c-8.8,2.6-13.9,6.9-14.2,6.5s3.2-3.6,7.7-6.3a31.8,31.8,0,0,1,28.1-3.5c2,.6,5.8,2.5,13.3,6.3,6,3,7.5,3.9,11.2,5.6a82.68,82.68,0,0,0,10.5,4.2,53.61,53.61,0,0,0,11.3,2.1h7.7l-2.1,5.6h8.8l-2.5,6.3"/>
  </g>
</svg>
