<svg id="Layer_1" data-name="Layer 1" xmlns="http://www.w3.org/2000/svg" width="300" height="300" viewBox="0 0 300 300">
  <defs>
    <style>
      .cls-1 {
        fill: #d9c9c1;
      }

      .cls-2 {
        fill: #fff;
        stroke: #fff;
        stroke-miterlimit: 10;
      }
    </style>
  </defs>
  <rect class="cls-1" width="300" height="300"/>
  <g>
    <polygon class="cls-2" points="116.75 131.2 116.75 147.4 118.85 133.4 132.15 131.2 116.75 131.2"/>
    <polygon class="cls-2" points="107.55 122.8 107.55 91.3 119.05 91.3 119.05 122.8 166.05 122.8 158.15 126.3 115.85 126.3 116.05 94.8 111.05 94.8 111.05 126.3 63.35 126.3 63.35 131 111.25 131 111.05 228.8 107.55 231.6 107.55 134.8 59.15 134.8 59.15 123.1 107.55 122.8"/>
    <path class="cls-2" d="M130.75,80c-.2-.3,3.2-3.6,7.7-6.3a31.8,31.8,0,0,1,28.1-3.5c2,.6,5.8,2.5,13.3,6.3,6,3,7.5,3.9,11.2,5.6a81.82,81.82,0,0,0,10.5,4.2,53.65,53.65,0,0,0,11.3,2.1h7.7l-2.1,5.6h8.8l-2.5,6.3h9.4l-3.1,6.3h9.8c-18.4,48.1-31.2,81.8-34.4,90.5-.2.5-1.4,4-3.5,8.4-3.5,7.4-7.8,14.3-8.4,14-.4-.2,1.1-3.8,4.9-13.3,3-7.7,5.4-14,7-18.2l28.1-77.2h-4.9c-16.8,48.2-29.4,83.2-31.6,88.4-.2.4-1,2.5-2.1,4.9a65.82,65.82,0,0,1-4.2,8.4c-1.2,2.1-1.5,3-3.5,6.3-1.3,2.3-2,3.6-2.1,3.5s.6-2.1,2.8-7.7c1.2-3,2.9-7.1,4.9-11.9l33.7-98.3h-4.2c-22.9,67.4-32.3,95.4-33.7,99.7-.8,2.5-1.2,3.8-2.1,6.3a76.09,76.09,0,0,1-2.8,7.7c-1.9,4.4-4.5,8.6-4.9,8.4s.7-2.7,2.8-8.4c0,0,1.1-3,5.6-16.1,1.4-4.1,3.4-10.1,5.6-17.6l26.7-85.6h-3.5l-37.2,116.5a53.66,53.66,0,0,1-2.1,5.6,16.52,16.52,0,0,1-4.2,5.6,18.4,18.4,0,0,1-11.9,4.2c-6.5.1-11.3-3-13.3-4.2-3.9-2.5-4.5-4.2-9.1-6.3a28.28,28.28,0,0,0-7-2.1,18.13,18.13,0,0,0-7.7,0c-1.9.5-2.6,1-6.3,2.1-2,.6-3.4,1-3.5.7s3.3-2.7,7-4.2a23.65,23.65,0,0,1,10.5-2.1,22.6,22.6,0,0,1,9.8,2.8c3.7,2,3.5,3.1,7.7,5.6a23.38,23.38,0,0,0,9.1,3.5c2.2.3,6.1.8,9.8-1.4a10.61,10.61,0,0,0,4.2-4.2l41.4-127.8c-.8-.2-2-.4-3.5-.7a51,51,0,0,0-5.6-.7,35.66,35.66,0,0,1-8.4-2.1,64.26,64.26,0,0,1-11.9-5.6c-5.7-3.2-5.4-3.5-10.5-6.3s-7.6-4.1-11.2-4.9a37.18,37.18,0,0,0-10.5-.7,40.14,40.14,0,0,0-7.7,1.4C136.15,76.1,131.05,80.4,130.75,80Z"/>
  </g>
</svg>
