<svg id="Layer_1" data-name="Layer 1" xmlns="http://www.w3.org/2000/svg" width="300" height="300" viewBox="0 0 298.49 298.49">
    <defs>
        <style>
            .cls-1 {
                fill: #d9c9c1;
            }

            .cls-2 {
                fill: #fff;
                stroke: #fff;
                stroke-miterlimit: 10;
            }

        </style>
    </defs>
    <g id="Layer_2" data-name="Layer 2">
        <rect class="cls-1" width="298.49" height="298.49" />
    </g>
    <g id="Layer_1-2" data-name="Layer 1">
        <g>
            <polygon class="cls-2" points="115.91 161.89 115.91 178.03 118.01 164 131.35 161.89 115.91 161.89" />
            <polygon class="cls-2" points="106.78 153.47 106.78 121.93 118.23 121.93 118.23 153.47 165.25 153.47 157.32 156.98 115.08 156.98 115.2 125.4 110.29 125.4 110.26 156.98 62.59 156.98 62.59 161.64 110.45 161.64 110.29 259.45 106.78 262.26 106.78 165.4 58.35 165.4 58.35 153.77 106.78 153.47" />
            <path class="cls-2" d="M91.39,76.32c-.1-1.08,1.66-2.12,2.81-2.81a11.45,11.45,0,0,1,4.21-1.4,15,15,0,0,1,4.92,0,15.34,15.34,0,0,1,4.21,1.4,11.71,11.71,0,0,1,3.51,2.11,4.42,4.42,0,0,0,2.1,1.4c.48.13.63.07.7,0,.53-.44-.56-2.55-.7-2.8A12.73,12.73,0,0,0,104,67.9a13.75,13.75,0,0,0-3.51,0,13.6,13.6,0,0,0-2.81.7A15.67,15.67,0,0,0,94.9,70c-1.45.93-1.4,1.2-2.8,2.11a14.17,14.17,0,0,1-2.81,1.4c-2,.73-3.09.56-3.51,1.41a1.88,1.88,0,0,0,0,1.4c.4,1,1.39.92,3.51,2.11a14.75,14.75,0,0,1,2.1,1.4,13.16,13.16,0,0,1,2.11,2.11,31.76,31.76,0,0,1,4.18,7.71c.91,2.12,1.89,4.18,2.81,6.32,2.64,6.07,4,9.09,4.91,10.53a27,27,0,0,0,7,7.72c1.49,1.07,2.88,1.79,7,3.51,6,2.44,11.07,4.18,15.44,5.62,7.16,2.36,8.59,2.7,11.94,4.18a36.89,36.89,0,0,1,8.42,4.91,45,45,0,0,1,5.61,5.61c.78.94,2.81,3.51,2.81,3.51a19.11,19.11,0,0,1,2.11,2.11,18.82,18.82,0,0,1,1.4,2.11c1,1.57,1.19,2.15,1.41,2.1.38-.1,0-2.68,0-2.81-.38-2.61-2.27-9.7-9.83-16.12a43.78,43.78,0,0,0-10.53-6.31c-3.58-1.7-6.83-2.77-13.34-4.92-6.87-2.26-7.62-2.25-10.52-3.51-3.91-1.7-7.24-3.12-10.53-6.31a31,31,0,0,1-4.87-6.31,52.85,52.85,0,0,1-3.51-7c-.52-1.2-1-2.33-1.41-3.51-1.57-4.07-1.46-4.29-2.1-5.61a15.15,15.15,0,0,0-4.21-5.62C94.55,77.36,91.54,77.7,91.39,76.32Z" transform="translate(-0.76 -0.76)" />
            <path class="cls-2" d="M122.28,76.32c-.22-.44,2.24-1.73,7-5.61,1.64-1.34,3.42-2.79,5.61-4.92s2.67-2.86,4.91-4.91A34.61,34.61,0,0,1,144,57.37c2-1.31,3.05-1.47,9.82-3.51a68.06,68.06,0,0,0,8.42-2.81,42.38,42.38,0,0,0,6.32-3.51,84.11,84.11,0,0,0,7-5.61c4.35-3.67,6-5.18,6.31-4.91s-.54,1.46-1.4,2.8a33,33,0,0,1-4.21,5.62c-2.21,2.39-4.32,4-8.42,7a36.78,36.78,0,0,1-6.32,4.21,37.74,37.74,0,0,1-7,2.1c-4.67,1.15-5.53,1-7.72,2.11a28.83,28.83,0,0,0-4.21,2.81c-1.85,1.39-2.95,2.38-4.21,3.51-4.18,3.7-6.31,5.54-9.12,7C126.05,75.91,122.52,76.82,122.28,76.32Z" transform="translate(-0.76 -0.76)" />
            <path class="cls-2" d="M163,64.39c-.1-.35.82-.86,5.62-3.51,3.64-2,4.07-2.24,4.92-2.81a20.33,20.33,0,0,0,4.9-4.21A17.25,17.25,0,0,0,181.23,49c1.32-3.59.89-6.27,1.41-6.32s1.15,2.48,1.4,4.22A10.84,10.84,0,0,1,184,51a11,11,0,0,1-2.11,4.22c-1.19,1.68-1.66,1.69-2.8,3.5a13.44,13.44,0,0,0-1.41,2.81,20.54,20.54,0,0,0-.7,3.51,14.46,14.46,0,0,1-2.1,4.91,18.37,18.37,0,0,1-4.22,4.22,6.68,6.68,0,0,0-2.1,2.1,8.11,8.11,0,0,0-.7,2.81,21.88,21.88,0,0,1-1.41,4.18,28.49,28.49,0,0,1-2.1,4.21,22.47,22.47,0,0,1-5.61,6.32,21.61,21.61,0,0,1-4.92,2.81,23.67,23.67,0,0,1-7,1.4,27.35,27.35,0,0,1-7.72,0c-3.73-.63-7.16-2.26-7-2.81s2.39.2,6.32,0a32.71,32.71,0,0,0,9.82-2.1A42.32,42.32,0,0,0,156,88.9c4.53-2.85,5.86-4.36,6.32-4.92a28.83,28.83,0,0,0,2.81-4.21c.49-.74.86-1.2.7-1.4-.3-.43-2.08.66-4.91,1.4a26.28,26.28,0,0,1-4.92.7,21.71,21.71,0,0,1-6.31,0c-2.39-.44-5-1.53-4.92-2.1s2.07-.27,6.32-.7a31.66,31.66,0,0,0,7.73-1.41,24.61,24.61,0,0,0,6.31-3.51,41.67,41.67,0,0,0,7-6.31c2.46-2.77,3-3.24,2.81-3.51-.35-.56-2.7.76-7,1.4C167.29,64.48,163.19,65.09,163,64.39Z" transform="translate(-0.76 -0.76)" />
            <path class="cls-2" d="M130.7,111.41c-.24-.34,3.17-3.58,7.72-6.31a31.75,31.75,0,0,1,28.06-3.51c2,.6,5.79,2.51,13.33,6.31,6,3,7.5,3.93,11.23,5.62a77.05,77.05,0,0,0,10.53,4.21,55.91,55.91,0,0,0,11.26,2.11h7.73l-2.11,5.61h8.84l-2.52,6.32h9.42l-3.1,6.31h9.8c-18.39,48.06-31.25,81.79-34.39,90.55-.19.51-1.43,4-3.51,8.42-3.46,7.39-7.85,14.33-8.42,14-.4-.2,1.14-3.76,4.91-13.33,3-7.66,5.41-14,7-18.25l28.06-77.2h-4.92c-16.81,48.16-29.38,83.2-31.57,88.43-.17.43-1,2.47-2.1,4.92a66.14,66.14,0,0,1-4.21,8.42c-1.24,2.14-1.54,3-3.51,6.32-1.35,2.31-2,3.58-2.1,3.51s.56-2.14,2.8-7.72c1.2-3,2.86-7.08,4.92-11.94L227.55,136h-4.21c-22.87,67.39-32.32,95.39-33.68,99.66-.81,2.53-1.24,3.8-2.11,6.32-1.35,3.94-2,6-2.81,7.72-1.92,4.43-4.52,8.61-4.91,8.42s.74-2.71,2.81-8.42c0,0,1.08-3,5.61-16.12,1.41-4.09,3.4-10.06,5.62-17.55l26.67-85.62H217L179.83,246.85a49.39,49.39,0,0,1-2.11,5.62,17.45,17.45,0,0,1-4.2,5.62,18.37,18.37,0,0,1-11.94,4.18c-6.46.1-11.35-3-13.34-4.18-4-2.48-4.49-4.23-9.12-6.33a27.44,27.44,0,0,0-7-2.1,18.38,18.38,0,0,0-7.72,0c-1.92.47-2.56,1.05-6.32,2.1-2,.57-3.4,1-3.51.71-.2-.44,3.29-2.71,7-4.21a23.86,23.86,0,0,1,10.53-2.11,23,23,0,0,1,9.82,2.81c3.75,2,3.47,3.11,7.72,5.62a23.31,23.31,0,0,0,9.13,3.51c2.23.29,6.09.81,9.83-1.41a10.37,10.37,0,0,0,4.17-4.21l41.41-127.75c-.8-.19-2-.45-3.5-.71-2.68-.45-4.5-.6-5.62-.7a36.59,36.59,0,0,1-8.42-2.11,64.18,64.18,0,0,1-11.94-5.61c-5.67-3.15-5.38-3.53-10.53-6.32-5-2.7-7.56-4.06-11.23-4.91a36.18,36.18,0,0,0-10.53-.7,39.58,39.58,0,0,0-7.72,1.4C136.1,107.52,131,111.83,130.7,111.41Z" transform="translate(-0.76 -0.76)" />
        </g>
    </g>
</svg>
