<svg xmlns="http://www.w3.org/2000/svg" width="478" height="438" viewBox="0 0 478 438">
  <defs>
    <style>
      .cls-1 {
        fill: #d9c9c1;
      }

      .cls-2 {
        fill: none;
        stroke: #000;
        stroke-miterlimit: 10;
      }
    </style>
  </defs>
  <g id="Layer_2" data-name="Layer 2">
    <rect class="cls-1" width="478" height="438" rx="85.04"/>
  </g>
  <g id="Layer_1" data-name="Layer 1">
    <g>
      <path class="cls-2" d="M236.41,347.25" transform="translate(-10.5 -30.5)"/>
      <path class="cls-2" d="M200.45,152.92c47.06,14,81.27,56.18,81.27,106.09A107.49,107.49,0,0,1,264.8,317" transform="translate(-10.5 -30.5)"/>
      <path class="cls-2" d="M240.6,347.25A117.61,117.61,0,0,1,170.7,370c-63.63,0-115.21-49.69-115.21-111,0-50.54,35.08-93.2,83.06-106.6" transform="translate(-10.5 -30.5)"/>
      <path class="cls-2" d="M246,356.4" transform="translate(-10.5 -30.5)"/>
      <path class="cls-2" d="M210.49,142.48c48.82,17,83.8,62.73,83.8,116.53a121.48,121.48,0,0,1-19.51,66.15" transform="translate(-10.5 -30.5)"/>
      <path class="cls-2" d="M246,356.4a126.47,126.47,0,0,1-77.33,26.16C99.25,382.56,43,327.25,43,259c0-53.26,34.28-98.66,82.33-116" transform="translate(-10.5 -30.5)"/>
      <path class="cls-2" d="M269.25,163.26a124.39,124.39,0,0,1,73.2-23.61C410.69,139.65,466,194,466,261.11S410.69,382.56,342.45,382.56,218.9,328.19,218.9,261.11a119.52,119.52,0,0,1,21-67.71" transform="translate(-10.5 -30.5)"/>
      <path class="cls-2" d="M277.46,172.75a112,112,0,0,1,64.92-20.53c61.33,0,111.06,48.75,111.06,108.89S403.71,370,342.38,370s-111-48.75-111-108.89a106.81,106.81,0,0,1,17.69-59" transform="translate(-10.5 -30.5)"/>
      <polygon class="cls-2" points="128.83 71.46 184.29 71.46 195.84 96.59 158.14 134.28 120.45 96.59 128.83 71.46"/>
      <polygon class="cls-2" points="137.2 84.02 177.32 84.02 183.27 92.4 158.14 117.15 133.35 94.75 137.2 84.02"/>
    </g>
  </g>
</svg>
