<?xml version="1.0" encoding="utf-8"?>
<!-- Generator: Adobe Illustrator 25.0.1, SVG Export Plug-In . SVG Version: 6.00 Build 0)  -->
<svg version="1.1" id="Layer_1" xmlns="http://www.w3.org/2000/svg" xmlns:xlink="http://www.w3.org/1999/xlink" x="0px" y="0px"
	 viewBox="0 0 462.2 327.5" style="enable-background:new 0 0 462.2 327.5;" xml:space="preserve">
<style type="text/css">
	.st0{fill:#D9C9C1;}
	.st1{fill:#003135;}
	.st2{fill:#FFFFFF;stroke:#FFFFFF;stroke-miterlimit:10;}
	.st3{fill:none;stroke:#FFFFFF;stroke-miterlimit:10;}
	.st4{fill:none;stroke:#FFFFFF;stroke-width:5;stroke-miterlimit:10;}
	.st5{fill:none;stroke:#FFFFFF;stroke-width:2;stroke-miterlimit:10;}
	.st6{fill:#FFFFFF;}
</style>
<g id="Layer_3">
	<rect x="-85.8" y="-96.7" class="st0" width="613.6" height="500"/>
</g>
<path class="st1" d="M593-15.9c0.4,0,0.8-0.3,0.8-0.8s-0.3-0.8-0.8-0.8s-0.8,0.3-0.8,0.8S592.6-15.9,593-15.9z"/>
<g>
	<path class="st2" d="M191.1,273c-0.1,2.7-0.4,5.4-1,8c-1.7,7.4-4.9,12.4-8,17c-5.8,8.6-8.6,13-13,14c-1.6,0.4-4.8,0.7-6,3
		c-0.1,0.2-0.3,1.1-0.5,2c-0.1,0.7-0.3,1.3-0.5,2c-1.2,1.8-3,1.4-4,3c-0.6,0.9-0.9,2.3,0,5h113.2c-0.4-2.1-1.2-4.1-2.2-6
		c-0.7-1.5-1.8-2.9-3-4c-0.9-0.8-1.9-1.5-3-2c-2.6-1.3-4.4-3.2-8-7c-4-4.2-7.3-8.9-10-14c-2.1-3.9-3.2-5.9-4-9
		c-0.8-3.3-1.1-6.6-1-10h26v-12h-98.7l-0.2,10H191.1z"/>
	<polygon class="st3" points="77.1,144.5 84.1,134.1 340.1,135.3 345.1,145.2 	"/>
	<polygon class="st4" points="131,144.9 295.1,145 242,263 189.7,263 	"/>
	<path class="st5" d="M260,89.6c0,0.2-0.3,1.6-0.6,3.6c-0.3,2-0.5,2.8-0.8,4.7c-0.2,1.2-0.5,2.6-0.8,4.7c-0.6,3.7-1.5,8.3-2.9,15.2
		c-1.4,7.2-2.6,13.2-3.5,17.6h-71.7c-0.3-5.2-0.9-13.2-1.8-22.9c-1.3-13.5-2.2-19.5-3.6-34.3c-1.8-20.6-1.5-25.8,0-31.7
		c1.5-6,3.9-11.6,7.1-16.7c3.4-6,7.9-11.1,13.3-15c6.1-4.3,13.1-7,20.4-7.9c11.1-1.1,22.2,2,31.4,8.8c3.5,2.6,8.4,8.6,12.4,16.7
		C258.9,32.3,267.7,47.4,260,89.6z"/>
	<path class="st5" d="M266.3,87.4c0,0.2-0.3,1.7-0.7,3.7s-0.5,2.9-0.9,4.9c-0.2,1.2-0.5,2.8-0.9,4.9c-0.7,3.8-1.7,8.6-3.2,15.8
		c-1.6,7.5-3,13.7-4.1,18.3h-82.1c-0.4-5.4-1-13.7-2-23.8c-1.4-14.1-2.5-20.3-4-35.7c-2.2-21.4-1.7-26.8,0-33
		c1.7-6.2,4.5-12.1,8.1-17.4c3.9-6.2,9.1-11.5,15.2-15.6c7-4.5,15-7.3,23.3-8.2c12.7-1.2,25.4,2.1,35.9,9.2c4,2.7,9.6,8.9,14.2,17.4
		C265,27.8,275.1,43.6,266.3,87.4z"/>
	<circle class="st5" cx="282.7" cy="99.3" r="6.7"/>
	<circle class="st5" cx="281.8" cy="114.4" r="6.7"/>
	<circle class="st5" cx="296" cy="118.8" r="6.7"/>
	<circle class="st5" cx="296.9" cy="95.7" r="6.7"/>
	<circle class="st5" cx="305.8" cy="107.3" r="6.7"/>
	<ellipse class="st5" cx="293" cy="107.2" rx="4.1" ry="4.1"/>
	<path class="st3" d="M290.9,106.3"/>
	<path class="st3" d="M291.2,106.1"/>
	<path class="st6" d="M290.6,108c0.2,0,0.3-0.2,0.3-0.4c0-0.2-0.2-0.3-0.3-0.3c-0.2,0-0.3,0.2-0.3,0.4
		C290.4,107.9,290.5,108,290.6,108z"/>
	<path class="st6" d="M291.2,106.8c0.2,0,0.3-0.2,0.3-0.4c0-0.2-0.2-0.3-0.3-0.3c-0.2,0-0.3,0.2-0.3,0.4
		C290.9,106.6,291.1,106.8,291.2,106.8z"/>
	<path class="st6" d="M292,105.7c0.2,0,0.3-0.2,0.3-0.4c0-0.2-0.2-0.3-0.3-0.3c-0.2,0-0.3,0.2-0.3,0.4
		C291.7,105.5,291.8,105.7,292,105.7z"/>
	<path class="st6" d="M292.1,108.1c0.2,0,0.3-0.2,0.3-0.4c0-0.2-0.2-0.3-0.3-0.3c-0.2,0-0.3,0.2-0.3,0.4
		C291.8,107.9,291.9,108.1,292.1,108.1z"/>
	<path class="st6" d="M292.8,106.8c0.2,0,0.3-0.2,0.3-0.4c0-0.2-0.2-0.3-0.3-0.3c-0.2,0-0.3,0.2-0.3,0.4
		C292.5,106.7,292.6,106.8,292.8,106.8z"/>
	<circle class="st5" cx="206.2" cy="98.9" r="10.1"/>
	<circle class="st5" cx="211.4" cy="120.2" r="10"/>
	<ellipse transform="matrix(0.1602 -0.9871 0.9871 0.1602 76.4559 332.916)" class="st5" cx="233.9" cy="121.5" rx="10.1" ry="10"/>

		<ellipse transform="matrix(0.1602 -0.9871 0.9871 0.1602 102.6054 296.0511)" class="st5" cx="225.3" cy="87.7" rx="10.1" ry="10"/>

		<ellipse transform="matrix(0.1602 -0.9871 0.9871 0.1602 104.8109 324.4633)" class="st5" cx="243.1" cy="100.6" rx="10.1" ry="10"/>
	<ellipse transform="matrix(0.96 -0.28 0.28 0.96 -21.0006 67.0024)" class="st5" cx="224" cy="107" rx="6.2" ry="6.2"/>
	<path class="st3" d="M221.1,105.7"/>
	<path class="st3" d="M221.5,105.1"/>
	<path class="st6" d="M221.3,108c0.2,0,0.3-0.2,0.3-0.4c0-0.2-0.2-0.3-0.3-0.3c-0.2,0-0.3,0.2-0.3,0.4
		C221.1,107.9,221.2,108,221.3,108z"/>
	<path class="st6" d="M221.6,106c0.2,0,0.3-0.2,0.3-0.4c0-0.2-0.2-0.3-0.3-0.3c-0.2,0-0.3,0.2-0.3,0.4
		C221.3,105.8,221.4,106,221.6,106z"/>
	<path class="st6" d="M222.3,104.1c0.2,0,0.3-0.2,0.3-0.4c0-0.2-0.2-0.3-0.3-0.3c-0.2,0-0.3,0.2-0.3,0.4
		C222,103.9,222.1,104.1,222.3,104.1z"/>
	<path class="st6" d="M223.5,107.5c0.2,0,0.3-0.2,0.3-0.4c0-0.2-0.2-0.3-0.3-0.3c-0.2,0-0.3,0.2-0.3,0.4
		C223.2,107.4,223.3,107.5,223.5,107.5z"/>
	<path class="st6" d="M223.9,105.4c0.2,0,0.3-0.2,0.3-0.4c0-0.2-0.2-0.3-0.3-0.3c-0.2,0-0.3,0.2-0.3,0.4
		C223.6,105.2,223.7,105.4,223.9,105.4z"/>
	<circle class="st5" cx="138.5" cy="90.4" r="7.5"/>
	<circle class="st5" cx="145.6" cy="105.8" r="7.5"/>
	<circle class="st5" cx="163.5" cy="103.4" r="7.5"/>
	<circle class="st5" cx="150.7" cy="79.4" r="7.5"/>
	<circle class="st5" cx="165.6" cy="86.2" r="7.5"/>
	<ellipse transform="matrix(0.8832 -0.469 0.469 0.8832 -25.6632 82.5331)" class="st5" cx="152.9" cy="92.8" rx="4.6" ry="4.6"/>
	<path class="st3" d="M150.3,93.1"/>
	<path class="st3" d="M150.5,92.6"/>
	<path class="st6" d="M150.8,94.9c0.2,0,0.3-0.2,0.3-0.4c0-0.2-0.2-0.3-0.3-0.3c-0.2,0-0.3,0.2-0.3,0.4
		C150.5,94.7,150.6,94.9,150.8,94.9z"/>
	<path class="st6" d="M150.7,93.4c0.2,0,0.3-0.2,0.3-0.4c0-0.2-0.2-0.3-0.3-0.3c-0.2,0-0.3,0.2-0.3,0.4
		C150.4,93.2,150.5,93.3,150.7,93.4z"/>
	<path class="st6" d="M150.9,91.9c0.2,0,0.3-0.2,0.3-0.4c0-0.2-0.2-0.3-0.3-0.3c-0.2,0-0.3,0.2-0.3,0.4
		C150.6,91.7,150.7,91.9,150.9,91.9z"/>
	<path class="st6" d="M152.2,94.2c0.2,0,0.3-0.2,0.3-0.4c0-0.2-0.2-0.3-0.3-0.3c-0.2,0-0.3,0.2-0.3,0.4
		C152,94,152.1,94.2,152.2,94.2z"/>
	<path class="st6" d="M152.3,92.6c0.2,0,0.3-0.2,0.3-0.4c0-0.2-0.2-0.3-0.3-0.3c-0.2,0-0.3,0.2-0.3,0.4
		C152,92.4,152.1,92.6,152.3,92.6z"/>
	<g>
		<circle class="st5" cx="44.7" cy="105.6" r="6"/>
		<circle class="st5" cx="52.5" cy="112.1" r="6"/>
		<circle class="st5" cx="46" cy="120" r="6"/>
		<circle class="st5" cx="38.2" cy="113.5" r="6"/>
	</g>
	<g>
		<circle class="st5" cx="80.7" cy="66.1" r="7.4"/>
		<circle class="st5" cx="93.3" cy="65.9" r="7.4"/>
		<circle class="st5" cx="93.4" cy="78.5" r="7.4"/>
		<circle class="st5" cx="80.9" cy="78.7" r="7.4"/>
	</g>
	<g>
		<circle class="st5" cx="409.4" cy="120.3" r="6"/>
		<circle class="st5" cx="415.2" cy="128.7" r="6"/>
		<circle class="st5" cx="406.8" cy="134.5" r="6"/>
		<circle class="st5" cx="401" cy="126.1" r="6"/>
	</g>
	<g>
		<circle class="st5" cx="372" cy="86.5" r="7.7"/>
		<circle class="st5" cx="369.1" cy="99.2" r="7.7"/>
		<circle class="st5" cx="356.3" cy="96.4" r="7.7"/>
		<circle class="st5" cx="359.2" cy="83.6" r="7.7"/>
	</g>
	<path class="st5" d="M50.1,56c1.3-3.2-13.8-14.5-17-12c-1.6,1.2-0.3,6.1,2,9C39.7,58.9,49.2,58.2,50.1,56z"/>
	<path class="st5" d="M49.1,70c-1.7-1.5-6.8,0.9-10,4c-6,5.9-6.3,15.5-5,16c0.9,0.3,1.8-4.1,7-8c3.3-2.4,5.3-2.4,7-5
		C49.6,74.7,50.4,71.2,49.1,70z"/>
	<path class="st5" d="M28.1,66c-1.6-2.5-8.9-0.3-10,0C7,69.3,0.1,79.8,1.1,81c0.6,0.8,3.8-2.8,11-4c5.3-0.9,6.8,0.5,10-1
		C26.5,73.9,29.6,68.2,28.1,66z"/>
	<path class="st5" d="M119.1,25c-2.6-4.2-3-9.5-1-14c0.8-1.7,1.6-2.7,2-5c0.4-2.9-0.4-4.8,0-5c0.7-0.3,3.7,3.3,5,8
		c0.7,2.7,0.5,5.5,0,11c-0.6,7.3-1.5,7.9-2,8C121.5,28.5,119.3,25.4,119.1,25z"/>
	<path class="st5" d="M118.1,34c-0.6-2.8-7.5-4.2-13-3c-8.4,1.8-13.9,9.8-13,11c0.6,0.8,3.4-1.9,9-2c4.6-0.1,5.6,1.6,9,1
		C114.4,40.2,118.6,36.4,118.1,34z"/>
	<path class="st5" d="M94.1,19c0.5-2-5-5.5-10-7c-6.6-2-14.5-1.2-15,1s6.2,5.7,12,7C86.5,21.2,93.6,21.1,94.1,19z"/>
	<path class="st5" d="M115.1,151c1.3-1.2,5.9,2.1,8,4c1,0.9,4.9,4.3,4,6c-0.7,1.4-4.4,1.3-7,0C115.6,158.7,113.7,152.2,115.1,151z"
		/>
	<path class="st5" d="M113.1,164c1.8-0.3,4.1,4.9,5,8c2.5,8.2,0.4,17.8-2,18c-2,0.2-4.2-6.2-5-10C109.6,172.8,110.9,164.3,113.1,164
		z"/>
	<path class="st5" d="M107.1,155c0.9,1.1-2.4,5.5-5,8c-6.2,6.1-15.2,8.4-16,7c-0.4-0.8,1.6-2.7,4-5
		C96.6,158.8,105.8,153.5,107.1,155z"/>
	<path class="st5" d="M228.1,45c-2.7,0.1-5.4-4.4-6-8c-0.8-4.8,2-9.3,3-11c1.5-2.4,2.4-2.8,3-5c1-3.7-0.8-6.6,0-7s4.2,2.3,6,6
		C238.9,29.7,232.9,44.8,228.1,45z"/>
	<path class="st5" d="M223.1,54c1.1-4.2,6.7-6.8,11-7c1.9-0.1,2.1,0.3,4,0c4.3-0.7,6.4-3.5,7-3s-1.4,5.2-5,9c-2.8,2.8-6.2,4.9-10,6
		c-2.2,0.6-4.6,1.2-6,0S222.7,55.5,223.1,54z"/>
	<path class="st5" d="M219.3,51c0.3-0.9,0.9-3.3-3.1-11.8c-1.7-3.6-2.7-5.5-4.6-7.8c-2.4-2.8-5.8-5.3-6.5-4.7s3.1,4.1,3.6,10.4
		c0.2,2.2-0.1,3.6,0.7,6.3c0.5,1.6,1.2,3.1,2.1,4.6c2.2,4.1,3.6,6.6,5.1,6.5C217.8,54.4,218.9,52.3,219.3,51z"/>
	<path class="st5" d="M334.1,44c-1.8-0.7-2.2-5.5-1-9c1-3,2.7-3.2,5-8c0.8-1.6,1.4-3.3,2-5c1.5-4.5,1.4-7,2-7c0.8,0,1.6,3.9,2,7
		c0.4,3.4,0.8,6.6,0,10C342.5,38.8,336.5,45,334.1,44z"/>
	<path class="st5" d="M352.1,37c0.6,1.9,6,2.6,10,1c1.3-0.6,2.9-1.7,6-4c1.6-1.2,2.1-1.7,4-3c3.4-2.4,4.5-2.8,5-3
		c2.4-0.9,3.9-0.5,4-1c0.1-0.7-3.2-2.7-7-3c-4.4-0.4-7.8,1.7-13,5C356.2,32.1,351.5,35.1,352.1,37z"/>
	<path class="st5" d="M339.1,48c1.9-1.8,5.6-1.5,11,0c3.4,0.9,14.4,3.9,14,6c-0.3,1.7-7.5,1.4-16,1c-2.4-0.2-4.8-0.9-7-2
		c-2.8-1.5-3-2.6-3-3C338.1,49.2,338.5,48.5,339.1,48z"/>
	<path class="st5" d="M411.1,73c-1.1-1.6,1-5.1,3-7c2.7-2.6,6.6-3.5,9-4c2.2-0.5,2.7-0.3,4-1c3-1.6,3.9-4.3,5-4s1,2.8,1,3
		c0,4-2.9,6.9-4,8c-3.4,3.4-7.2,4.3-10,5S412.2,74.7,411.1,73z"/>
	<path class="st5" d="M412.1,78c1.7,0.9,3.4,1.9,5,3c3.1,2.1,4.6,3.2,5,5s-0.7,2.4,0,4c0.2,0.4,0.4,0.7,3,3c1.8,1.5,2,1.7,2,2
		c-0.2,1-3.8,1.9-7,1c-3.9-1-6.1-4.3-8-7c-1.4-2.1-2.5-4.5-3-7c-0.8-2.9-0.4-3.6,0-4C410,77.2,411.7,77.9,412.1,78z"/>
	<path class="st5" d="M437.1,86c-0.3,0.7,0.8,1.5,5,6c3.2,3.3,3.5,3.9,5,5c2.1,1.6,3.7,2.9,6,3c1.3,0.1,1.6-0.3,3,0
		c0.9,0.2,2,0.6,4,1c0.6,0.1,0.9,0.2,1,0c0.3-0.4-0.6-2.1-2-3s-2-0.2-4-1c-2.3-0.9-4.1-2.7-5-5c-1.5-2.8-4-4.9-7-6
		C440.8,85.2,437.6,85,437.1,86z"/>
	<path class="st5" d="M330.4,169.6c0.8,0.4,0.6,2,0.4,5c-0.3,3.4-0.4,5-1.5,7.1c-0.4,0.9-2.5,2.7-6.5,6.5c-0.9,0.8-1.4,1.3-1.9,1.1
		c-1.2-0.4-1-4.4-0.5-7c0.5-2.2,1.3-4.3,2.5-6.2C325,172.8,328.9,168.8,330.4,169.6z"/>
	<path class="st5" d="M335.1,162c-0.5,0.8,1,2.5,4,6c1.9,2.2,2.8,3.2,4,4c3.4,2.1,8.3,2.5,9,1c0.6-1.1-1.3-3.2-3-5
		c-1.4-1.6-3.1-3-5-4C340.8,162.2,335.8,160.8,335.1,162z"/>
	<path class="st5" d="M328.1,163c-2-0.5-3.8-0.8-5-1c-2.6-0.5-5.4-0.5-8,0c-1.8,0.4-2,0.8-2,1c-0.1,0.8,2.3,1.7,3,2
		c2.2,0.8,4.6,1.1,7,1c1.7,0.1,3.4-0.3,5-1c0.7-0.4,1-0.7,1-1C329.1,163.4,328.2,163,328.1,163z"/>
	<path class="st5" d="M118.1,45.7"/>
	<path class="st5" d="M142.1,69c0,0,1-11-9-24s-25.5-21.5-35.3-24.2"/>
	<path class="st5" d="M126.7,86.1c0,0-7.2-6.2-19.4-6.6"/>
	<path class="st5" d="M138.1,105.8c0,0-17,10.4-26,28.2"/>
	<path class="st5" d="M110.1,144.6c0,0,0.2,9.3,1.6,14.6"/>
	<path class="st5" d="M161.1,134c0,0,0.6-14.2-10.2-22.1"/>
	<path class="st5" d="M67.1,67c0,0-14-9-39-1"/>
	<path class="st5" d="M72.1,84c0,0-13.1-2.1-23,17.4"/>
	<path class="st5" d="M215.2,83.6c0,0-8.9-29.4,15-39.5"/>
	<path class="st5" d="M287.3,134.1c0,0-2.6-8.1,3.6-10.6"/>
	<path class="st5" d="M309,113.1c0,0,13.6,3.3,18.3,22.1"/>
	<path class="st5" d="M331.3,145.2c-0.2-0.2,3.8,7.8-1.2,24.8"/>
	<path class="st5" d="M301.9,91.3c0,0,21.2-45.3,50.2-54.3"/>
	<path class="st5" d="M311,103c0,0,21.2-16.7,41.7-15.3"/>
	<path class="st5" d="M378.5,82.4c0,0,29.6-17.3,58.6,3.7"/>
	<path class="st5" d="M376.8,99.2c0,0,26.4,4.1,25.3,20.9"/>
	<path class="st3" d="M169.8,144.9L209.5,263L169.8,144.9z"/>
	<path class="st3" d="M259.9,146l-35.3,117L259.9,146z"/>
	<path class="st6" d="M138.8,150.8c0.4,0,0.8-0.3,0.8-0.8s-0.3-0.8-0.8-0.8s-0.8,0.3-0.8,0.8S138.4,150.8,138.8,150.8z"/>
	<path class="st6" d="M168,150c0.4,0,0.8-0.3,0.8-0.8s-0.3-0.8-0.8-0.8s-0.8,0.3-0.8,0.8S167.6,150,168,150z"/>
	<path class="st6" d="M153.9,154.8c0.4,0,0.8-0.3,0.8-0.8s-0.3-0.8-0.8-0.8s-0.8,0.3-0.8,0.8S153.5,154.8,153.9,154.8z"/>
	<path class="st6" d="M146.5,166.7c0.4,0,0.8-0.3,0.8-0.8s-0.3-0.8-0.8-0.8s-0.8,0.3-0.8,0.8S146.1,166.7,146.5,166.7z"/>
	<path class="st6" d="M169.8,163.3c0.4,0,0.8-0.3,0.8-0.8s-0.3-0.8-0.8-0.8s-0.8,0.3-0.8,0.8S169.4,163.3,169.8,163.3z"/>
	<path class="st6" d="M161.3,178.1c0.4,0,0.8-0.3,0.8-0.8s-0.3-0.8-0.8-0.8s-0.8,0.3-0.8,0.8S160.9,178.1,161.3,178.1z"/>
	<path class="st6" d="M176.1,182.2c0.4,0,0.8-0.3,0.8-0.8s-0.3-0.8-0.8-0.8s-0.8,0.3-0.8,0.8S175.7,182.2,176.1,182.2z"/>
	<path class="st6" d="M159.8,194.8c0.4,0,0.8-0.3,0.8-0.8s-0.3-0.8-0.8-0.8s-0.8,0.3-0.8,0.8S159.4,194.8,159.8,194.8z"/>
	<path class="st6" d="M175.4,199.9c0.4,0,0.8-0.3,0.8-0.8s-0.3-0.8-0.8-0.8s-0.8,0.3-0.8,0.8S174.9,199.9,175.4,199.9z"/>
	<path class="st6" d="M185,201.8c0.4,0,0.8-0.3,0.8-0.8s-0.3-0.8-0.8-0.8s-0.8,0.3-0.8,0.8S184.6,201.8,185,201.8z"/>
	<path class="st6" d="M170.9,213.6c0.4,0,0.8-0.3,0.8-0.8s-0.3-0.8-0.8-0.8s-0.8,0.3-0.8,0.8S170.5,213.6,170.9,213.6z"/>
	<path class="st6" d="M184.2,223.2c0.4,0,0.8-0.3,0.8-0.8s-0.3-0.8-0.8-0.8s-0.8,0.3-0.8,0.8S183.8,223.2,184.2,223.2z"/>
	<path class="st6" d="M181.6,235.8c0.4,0,0.8-0.3,0.8-0.8s-0.3-0.8-0.8-0.8s-0.8,0.3-0.8,0.8S181.2,235.8,181.6,235.8z"/>
	<path class="st6" d="M199.7,242.4c0.4,0,0.8-0.3,0.8-0.8s-0.3-0.8-0.8-0.8s-0.8,0.3-0.8,0.8S199.3,242.4,199.7,242.4z"/>
	<path class="st6" d="M195.7,231.3c0.4,0,0.8-0.3,0.8-0.8s-0.3-0.8-0.8-0.8s-0.8,0.3-0.8,0.8S195.3,231.3,195.7,231.3z"/>
	<path class="st6" d="M192,252.4c0.4,0,0.8-0.3,0.8-0.8s-0.3-0.8-0.8-0.8s-0.8,0.3-0.8,0.8S191.6,252.4,192,252.4z"/>
	<path class="st6" d="M203.1,259.4c0.4,0,0.8-0.3,0.8-0.8s-0.3-0.8-0.8-0.8l0,0c-0.4,0-0.8,0.3-0.8,0.8S202.7,259.4,203.1,259.4z"/>
	<path class="st6" d="M229.9,259.4c0.4,0,0.8-0.3,0.8-0.8s-0.3-0.8-0.8-0.8s-0.8,0.3-0.8,0.8S229.5,259.4,229.9,259.4z"/>
	<path class="st6" d="M240.3,260.2c0.4,0,0.8-0.3,0.8-0.8s-0.3-0.8-0.8-0.8s-0.8,0.3-0.8,0.8S239.9,260.2,240.3,260.2z"/>
	<path class="st6" d="M237.1,251.7c0.4,0,0.8-0.3,0.8-0.8s-0.3-0.8-0.8-0.8s-0.8,0.3-0.8,0.8S236.7,251.7,237.1,251.7z"/>
	<path class="st6" d="M235.5,242.5c0.4,0,0.8-0.3,0.8-0.8s-0.3-0.8-0.8-0.8s-0.8,0.3-0.8,0.8S235.1,242.5,235.5,242.5z"/>
	<path class="st6" d="M246.4,244.1c0.4,0,0.8-0.3,0.8-0.8s-0.3-0.8-0.8-0.8s-0.8,0.3-0.8,0.8S245.9,244.1,246.4,244.1z"/>
	<path class="st6" d="M244.7,232.5c0.4,0,0.8-0.3,0.8-0.8s-0.3-0.8-0.8-0.8s-0.8,0.3-0.8,0.8S244.3,232.5,244.7,232.5z"/>
	<path class="st6" d="M241.9,223.3c0.4,0,0.8-0.3,0.8-0.8s-0.3-0.8-0.8-0.8s-0.8,0.3-0.8,0.8S241.5,223.3,241.9,223.3z"/>
	<path class="st6" d="M254.4,226.9c0.4,0,0.8-0.3,0.8-0.8s-0.3-0.8-0.8-0.8s-0.8,0.3-0.8,0.8S254,226.9,254.4,226.9z"/>
	<path class="st6" d="M252,214c0.4,0,0.8-0.3,0.8-0.8s-0.3-0.8-0.8-0.8s-0.8,0.3-0.8,0.8S251.6,214,252,214z"/>
	<path class="st6" d="M247.2,207.6c0.4,0,0.8-0.3,0.8-0.8s-0.3-0.8-0.8-0.8s-0.8,0.3-0.8,0.8S246.7,207.6,247.2,207.6z"/>
	<path class="st6" d="M262.4,208.8c0.4,0,0.8-0.3,0.8-0.8s-0.3-0.8-0.8-0.8s-0.8,0.3-0.8,0.8S262,208.8,262.4,208.8z"/>
	<path class="st6" d="M256.4,200c0.4,0,0.8-0.3,0.8-0.8s-0.3-0.8-0.8-0.8c-0.4,0-0.7,0.3-0.7,0.8S256,200,256.4,200z"/>
	<path class="st6" d="M252.4,189.6c0.4,0,0.8-0.3,0.8-0.8s-0.3-0.8-0.8-0.8s-0.8,0.3-0.8,0.8S252,189.6,252.4,189.6z"/>
	<path class="st6" d="M268.8,193.2c0.4,0,0.8-0.3,0.8-0.8s-0.3-0.8-0.8-0.8s-0.8,0.3-0.8,0.8S268.4,193.2,268.8,193.2z"/>
	<path class="st6" d="M264.8,181.5c0.4,0,0.8-0.3,0.8-0.8s-0.3-0.8-0.8-0.8s-0.8,0.3-0.8,0.8S264.4,181.5,264.8,181.5z"/>
	<path class="st6" d="M258.4,173.1c0.4,0,0.8-0.3,0.8-0.8s-0.3-0.8-0.8-0.8s-0.8,0.3-0.8,0.8S258,173.1,258.4,173.1z"/>
	<path class="st6" d="M277.2,178.3c0.4,0,0.8-0.3,0.8-0.8s-0.3-0.8-0.8-0.8s-0.8,0.3-0.8,0.8S276.8,178.3,277.2,178.3z"/>
	<path class="st6" d="M270.8,167.9c0.4,0,0.8-0.3,0.8-0.8s-0.3-0.8-0.8-0.8s-0.8,0.3-0.8,0.8S270.4,167.9,270.8,167.9z"/>
	<path class="st6" d="M284.1,165.5c0.4,0,0.8-0.3,0.8-0.8s-0.3-0.8-0.8-0.8s-0.8,0.3-0.8,0.8S283.6,165.5,284.1,165.5z"/>
	<path class="st6" d="M264,158.3c0.4,0,0.8-0.3,0.8-0.8s-0.3-0.8-0.8-0.8s-0.8,0.3-0.8,0.8S263.6,158.3,264,158.3z"/>
	<path class="st6" d="M276.8,153.9c0.4,0,0.8-0.3,0.8-0.8s-0.3-0.8-0.8-0.8s-0.8,0.3-0.8,0.8S276.4,153.9,276.8,153.9z"/>
	<path class="st6" d="M265.6,148.3c0.4,0,0.8-0.3,0.8-0.8s-0.3-0.8-0.8-0.8s-0.8,0.3-0.8,0.8S265.2,148.3,265.6,148.3z"/>
	<path class="st6" d="M289.7,148.3c0.4,0,0.8-0.3,0.8-0.8s-0.3-0.8-0.8-0.8s-0.8,0.3-0.8,0.8S289.3,148.3,289.7,148.3z"/>
	<polygon class="st2" points="169.8,144.9 259.9,146 224.5,263 209.5,263 	"/>
	<polygon class="st2" points="84.1,134.1 77.1,144.5 345.1,145.2 340.1,135.3 	"/>
</g>
</svg>
