<svg id="Layer_1" data-name="Layer 1" xmlns="http://www.w3.org/2000/svg" width="300" height="300" viewBox="0 0 300 300">
  <defs>
    <style>
      .cls-1 {
        fill: #d9c9c1;
      }

      .cls-2 {
        fill: none;
      }

      .cls-2, .cls-3 {
        stroke: #fff;
        stroke-miterlimit: 10;
        stroke-width: 2px;
      }

      .cls-3, .cls-4 {
        fill: #fff;
      }
    </style>
  </defs>
  <g id="Layer_1-2" data-name="Layer 1">
    <rect class="cls-1" width="300" height="300" rx="14"/>
  </g>
  <g id="Layer_2" data-name="Layer 2">
    <path class="cls-2" d="M135.19,84.37c1.25,1,4.24-1.08,7.41-3.17a25.59,25.59,0,0,0,8.47-8.47,20.18,20.18,0,0,0,2.11-5.29c.29-1.19,1.13-4.64,0-5.29-.53-.31-1,.29-3.17,1.06a41,41,0,0,1-4.24,1.06,39.21,39.21,0,0,0-4,.91l-.24.15c-2.73,1.7-4.23,8.46-4.23,8.46C135.46,82.09,134.24,83.65,135.19,84.37Z"/>
    <path class="cls-2" d="M134.07,82.28c-.48.16-.61-.12-3.17-1.07-1.7-.64-2.67-.91-3.11-1.07-2.64-.94-7.68-5.15-9.53-11.69-.48-1.7-1.53-5.57,0-9.52a8.25,8.25,0,0,1,3.2-4.22,6.47,6.47,0,0,1,3.17-1,13.68,13.68,0,0,1,4.23,1.08c2.56.89,2.47,1,3.17,1.07,2.09,0,2.76-1.45,4.24-1,1,.28,1.6,1.26,2.11,2.12a8.83,8.83,0,0,1,1,4.24,36.78,36.78,0,0,1-1.1,9.52c-.31,1.37-.57,2.32-1.08,4.23C135.58,81.14,134.89,82,134.07,82.28Z"/>
    <path class="cls-2" d="M134.84,82.82c.09-.56-3.87-.63-7.84-3.37a36,36,0,0,1-6-5.71c-1.72-1.93-2.74-3.36-4.69-3.73a5.86,5.86,0,0,0-3.15.36,8.63,8.63,0,0,0-4.78,4.8,8.17,8.17,0,0,0-.33,6.43,7.61,7.61,0,0,0,3.63,3.85c1.57.75,2.93.65,5.37.45,2.11-.17,2.58-.48,7.53-1.53,2.51-.53,3.77-.8,5-1C133,83,134.78,83.19,134.84,82.82Z"/>
    <path class="cls-2" d="M134.13,84.37c0,.4-1.41.47-3.17,1.06-1.39.47-2.06.95-5.29,3.18-.62.42-3.45,2.37-6.35,4.23S115.21,95.33,114,95a3.82,3.82,0,0,1-2.12-2.11A4.78,4.78,0,0,1,113,87.55a5.3,5.3,0,0,1,2.12-1.06,23.86,23.86,0,0,1,5.29-1.06,50,50,0,0,0,5.29-1.06c2.72-.69,3.54-1.17,5.29-1.06C132.51,83.42,134.15,83.94,134.13,84.37Z"/>
    <path class="cls-2" d="M135.19,85.43c.55.77,1.29,1.85,2.12,3.18a69.65,69.65,0,0,1,5.29,10.58,105,105,0,0,1,4.23,12.7A126.21,126.21,0,0,1,150,128.82c.21,1.69.44,3.85,1.06,13.75s1,17.62,1.05,19.05c.79,16.46.58,15.87,1.06,23.28.62,9.64,1,14.59,2.12,21.16A98.81,98.81,0,0,0,159.53,223c1,2.92,5.85,16.71,10.58,19,.38.19,1.93.88,2.12,2.12a2,2,0,0,1-1.06,2.11c-1.93.59-5.45-5.78-6.35-7.4A47.2,47.2,0,0,1,159.53,223"/>
    <path class="cls-2" d="M160.59,90.72c0-.44.13-1.22,4.23-4.23,2.44-1.79,3.69-2.7,5.29-3.18,1.29-.38,3.38-1,5.29,0a6.51,6.51,0,0,1,2.12,2.12,15.26,15.26,0,0,1,2.12,4.23c1.24,3.51,1.93,5.4,1.05,6.35-.7.76-1.65.1-3.17,1.06s-1.66,2.22-2.12,2.12c-.64-.15-.46-2.77-1.06-7.41-.27-2.15-.49-3-1.05-3.17s-1.48.56-3.18,2.11A24.89,24.89,0,0,0,168,92.84c-3,3.25-3.63,4.43-4.24,4.23s-.19-1.32-1-3.17C161.77,91.9,160.65,91.82,160.59,90.72Z"/>
    <path class="cls-2" d="M164.82,118.23a6,6,0,0,1-4.23-1c-2.57-2-2.25-5.85-2.12-7.41a17.26,17.26,0,0,1,2.12-6.35,35.44,35.44,0,0,1,3.17-5.29,46.29,46.29,0,0,1,6.35-7.41c1.62-1.64,2.49-2.37,3.18-2.11s.9,1.41,1.05,3.17a54.05,54.05,0,0,1,0,9.52,44.09,44.09,0,0,1-1.05,7.41,15.63,15.63,0,0,1-1.06,3.18,11.94,11.94,0,0,1-3.18,4.23A7.55,7.55,0,0,1,164.82,118.23Z"/>
    <path class="cls-2" d="M163.76,97.07a10.05,10.05,0,0,0-2.11-4.23,10.2,10.2,0,0,0-5.29-3.18c-.54-.14-3.65-1-4.24,0-.36.62.57,1.38,1.06,3.18a9.44,9.44,0,0,1,0,4.23,34.49,34.49,0,0,0,0,9.52,17.1,17.1,0,0,0,2.12,6.35c.75,1.28,3.06,5.16,7.41,6.35,6.18,1.7,11.78-3.37,12.69-4.23a26.26,26.26,0,0,0,5.29-7.41,14.46,14.46,0,0,1,3.18-5.29c1.07-1,1.95-2.12,3.17-2.11.54,0,.9.19,1.06,0,.35-.43-.66-2.17-2.12-3.18A6.94,6.94,0,0,0,181.75,96a11.09,11.09,0,0,0-4.23,1.06,16.77,16.77,0,0,0-2.12,1.06"/>
    <path class="cls-2" d="M161.65,119.29a447.82,447.82,0,0,1-6.35,46.56,256.94,256.94,0,0,0-4.23,26.46c-1.74,17.23-.68,26.34,0,30.68a75.41,75.41,0,0,0,6.34,21.17c.19.39.23,1.79,1.06,2.11.67.27,1.71-.38,2.12-1.05,1.34-2.2-3.09-6.1-6.35-12.7a37.22,37.22,0,0,1-3.17-9.53"/>
    <path class="cls-2" d="M153.18,182.78c1.41-2.63,3.19-5.86,5.29-9.52,0,0,3-5.19,6.35-10.58,7.11-11.42,15.54-23.09,18-26.46"/>
    <path class="cls-3" d="M161.25,167c-.35-.05-.53-.63-.66-1.12a27.26,27.26,0,0,1,0-12.7c.75-3,1.21-3.21,1.45-3.22.8,0,1.48,2.36,1.72,3.22a16.91,16.91,0,0,1,.24,8.3C163.43,163.93,162.11,167.11,161.25,167Z"/>
    <path class="cls-3" d="M170.06,153.33c-.27,0-.41-.49-.51-.86a20.91,20.91,0,0,1,0-9.76c.58-2.29.93-2.48,1.12-2.48.61,0,1.13,1.81,1.32,2.48a13.08,13.08,0,0,1,.19,6.37C171.73,151,170.72,153.43,170.06,153.33Z"/>
    <path class="cls-3" d="M176.34,143.79c-.27,0-.41-.49-.51-.87a21,21,0,0,1,0-9.85c.58-2.3.94-2.49,1.13-2.5.61,0,1.14,1.83,1.33,2.5a13.37,13.37,0,0,1,.19,6.44C178,141.43,177,143.89,176.34,143.79Z"/>
    <path class="cls-3" d="M182.72,136.2c-.28-.24-.14-.79,0-1.25a23.64,23.64,0,0,1,6.5-10c2.18-1.93,2.7-1.88,2.92-1.75.71.41.07,2.67-.16,3.49a14.7,14.7,0,0,1-4,6.68C186.17,135,183.4,136.77,182.72,136.2Z"/>
    <path class="cls-3" d="M158.57,173.37c-.09-.34.37-.74.76-1.06A27.29,27.29,0,0,1,171,167.2c3-.5,3.44-.18,3.54,0,.35.71-1.57,2.3-2.26,2.87a17,17,0,0,1-7.5,3.56C162.23,174.14,158.79,174.21,158.57,173.37Z"/>
    <path class="cls-3" d="M166.55,161c-.15-.32.24-.79.57-1.17a27.24,27.24,0,0,1,10.59-7c2.9-1,3.35-.76,3.5-.56.46.64-1.16,2.53-1.75,3.21a16.91,16.91,0,0,1-6.79,4.77C170.29,161.09,166.91,161.74,166.55,161Z"/>
    <path class="cls-3" d="M175,148.21c-.14-.32.24-.78.58-1.16a27.27,27.27,0,0,1,10.63-7c2.9-1,3.35-.75,3.5-.54.46.64-1.18,2.52-1.76,3.2a17.1,17.1,0,0,1-6.82,4.74C178.73,148.37,175.35,149,175,148.21Z"/>
    <path class="cls-4" d="M151.07,151c.29-.17-1.68-3.7-4.24-9.53-2.75-6.28-2.64-7.14-4.23-10.58A50.48,50.48,0,0,0,132,116.12c-5.92-5.83-13.76-10.65-14.82-9.53-.22.24-.12.73,1.06,3.18a81.83,81.83,0,0,0,5.29,9.52,50.67,50.67,0,0,0,7.41,9.53,59.55,59.55,0,0,0,6.35,5.29C146.7,141.69,150.6,151.31,151.07,151Z"/>
    <path class="cls-4" d="M151.69,158.73c.17-.16-1.71-2.18-4.34-5.63-2.84-3.72-2.9-4.31-4.51-6.33a34.18,34.18,0,0,0-9.4-8.12c-4.86-2.91-10.83-4.85-11.35-3.93-.11.2,0,.5,1.21,1.93a55,55,0,0,0,5,5.47,34.52,34.52,0,0,0,6.44,5.12,41,41,0,0,0,5.07,2.48C147.29,153.23,151.42,159,151.69,158.73Z"/>
    <path class="cls-4" d="M160.38,245a9.44,9.44,0,0,0-1.21-4.21,7.07,7.07,0,0,0-1.71-1.61h0l-.08-.07-.2-.2c-.11-.14.11.19-.05-.08l-.11-.2c.07.14,0,0,0-.08l-.06-.27h0V238a1.12,1.12,0,0,0-1.12-1.12,1.15,1.15,0,0,0-1.13,1.12,3.53,3.53,0,0,0,.81,2.45,4.28,4.28,0,0,0,.93.82l.23.17h0a3.33,3.33,0,0,1,.39.36c0,.05.09.1.13.16-.12-.16,0,0,0,.06a3.32,3.32,0,0,0,.23.4c.07.14.13.27.08.15s.05.13.06.16.1.3.14.45a8.52,8.52,0,0,1,.23,1l.09.53h0V245a1.17,1.17,0,0,0,1.12,1.13,1.12,1.12,0,0,0,1.13-1.13Z"/>
    <path class="cls-4" d="M171.28,244.11h.13a2.69,2.69,0,0,1-.62-.16c-.09,0-.22-.13.08,0l-.14-.07-.26-.14-.26-.18.08.06-.13-.11c-.16-.14-.32-.3-.47-.46l-.22-.25-.09-.11h0a6.4,6.4,0,0,1-.38-.53c-.24-.38-.47-.78-.69-1.17l-1.54,1.53.27.17.12.08h0c.15.13.29.27.43.41.3.3.57.62.86.92a3.89,3.89,0,0,0,2.66,1.38,1.13,1.13,0,0,0,0-2.25h.11l-.27,0h-.13c-.17-.06.27.13.1,0a3.7,3.7,0,0,1-.43-.25l.08.06-.11-.09-.21-.2a5,5,0,0,1-.39-.41,8.06,8.06,0,0,0-1.9-1.69,1.13,1.13,0,0,0-1.54,1.54,12,12,0,0,0,1.81,2.6,5,5,0,0,0,1.28,1,4.48,4.48,0,0,0,1.78.53,1.12,1.12,0,0,0,.79-1.92,1.3,1.3,0,0,0-.79-.33Z"/>
  </g>
</svg>
