<svg xmlns="http://www.w3.org/2000/svg" width="300" height="300" viewBox="0 0 300 300">
  <defs>
    <style>
      .cls-1 {
        fill: #d9c9c1;
      }

      .cls-2, .cls-3 {
        fill: none;
      }

      .cls-2, .cls-3, .cls-4, .cls-6 {
        stroke: #fff;
        stroke-miterlimit: 10;
      }

      .cls-2 {
        stroke-width: 5px;
      }

      .cls-3, .cls-4 {
        stroke-width: 2px;
      }

      .cls-4, .cls-5, .cls-6 {
        fill: #fff;
      }
    </style>
  </defs>
  <g id="Layer_1" data-name="Layer 1">
    <rect class="cls-1" width="300" height="300"/>
  </g>
  <g id="Layer_2" data-name="Layer 2">
    <g>
      <path class="cls-2" d="M226.32,156.11c0,37.55-34.06,68.45-75.46,68.45S75.4,193.66,75.4,156.11Z"/>
      <g>
        <path class="cls-3" d="M69.7,120.6a8.55,8.55,0,0,1-3.58-3.13,10.77,10.77,0,0,1-1.73-6.36,15.67,15.67,0,0,1,2.09-7.39c1-2.09,2.34-3.67,5-6.82,3.29-3.94,4-4.07,4.4-3.93.72.25.58,1.47,1.38,5.09.19.84.59,2.26,1.38,5.09,1.25,4.41,1.47,4.68,1.73,6.36a12.8,12.8,0,0,1,.12,5.43,8.29,8.29,0,0,1-2.78,4.85A8,8,0,0,1,69.7,120.6Z"/>
        <path class="cls-3" d="M79.19,121.59A8.46,8.46,0,0,1,80.46,117a10.8,10.8,0,0,1,5-4.3A15.82,15.82,0,0,1,93,111.39c2.32,0,4.31.53,8.3,1.55,5,1.26,5.39,1.85,5.44,2.26.09.77-1.07,1.16-4,3.45-.68.53-1.78,1.5-4,3.45-3.45,3-3.6,3.34-5,4.3a12.8,12.8,0,0,1-4.85,2.45,8.23,8.23,0,0,1-5.58-.41A8,8,0,0,1,79.19,121.59Z"/>
        <path class="cls-3" d="M76.64,129.88a8.42,8.42,0,0,1,4.59-1.25,10.83,10.83,0,0,1,6.25,2.09,15.81,15.81,0,0,1,5,5.83c1.17,2,1.75,4,2.92,7.92,1.45,4.93,1.16,5.59.83,5.84-.61.46-1.54-.33-5-1.67-.81-.31-2.21-.76-5-1.67A60.06,60.06,0,0,1,80,144.89,12.9,12.9,0,0,1,75.39,142a8.21,8.21,0,0,1-2.5-5A8,8,0,0,1,76.64,129.88Z"/>
        <path class="cls-3" d="M65,127.71a8.51,8.51,0,0,1-4.23,2.16,10.86,10.86,0,0,1-6.55-.76,15.85,15.85,0,0,1-6.09-4.69c-1.55-1.73-2.53-3.54-4.47-7.16-2.44-4.52-2.28-5.23-2-5.54.5-.58,1.57,0,5.23.61.85.14,2.32.3,5.24.61,4.56.49,4.89.39,6.55.76a12.94,12.94,0,0,1,5.08,1.92A8.18,8.18,0,0,1,67.23,120,8,8,0,0,1,65,127.71Z"/>
        <path class="cls-3" d="M71.65,133.32A8.47,8.47,0,0,1,72.6,138a10.8,10.8,0,0,1-2.49,6.1A15.74,15.74,0,0,1,64,148.69c-2.08,1-4.08,1.49-8.09,2.4-5,1.13-5.65.8-5.88.45-.42-.64.43-1.52,2-4.88.36-.78.91-2.15,2-4.88,1.69-4.27,1.68-4.61,2.49-6.11a12.73,12.73,0,0,1,3.21-4.38,8.21,8.21,0,0,1,5.15-2.17A8,8,0,0,1,71.65,133.32Z"/>
        <ellipse class="cls-4" cx="73.34" cy="126.44" rx="5.93" ry="3.95" transform="translate(-30.61 23.68) rotate(-15.21)"/>
        <path class="cls-5" d="M65.52,150.42c.27.19-.58,1.11-.58,2.89,0,2.28,1.39,3.55,3,6a26.13,26.13,0,0,1,3.35,7.29,16.15,16.15,0,0,1-.47,8.32c-2.55,9.1-11,14.23-11.23,14s1.59-1.17,1.86-3.23c.31-2.4-1.66-3.61-3.35-7.29A22.29,22.29,0,0,1,56.37,172a23.64,23.64,0,0,1,.12-9.59C58.37,154.87,64.84,149.94,65.52,150.42Z"/>
        <path class="cls-5" d="M58.23,153.77c-1.09-1.53-3.83-1.32-5.78-1.16a15.11,15.11,0,0,0-8.56,3.69,17.84,17.84,0,0,0-4,5.2c-2,3.78-2.12,7.17-4.63,8.09-.67.25-1.27.22-1.27.34,0,.33,4.24,1.07,8.33.47a20.94,20.94,0,0,0,12.95-7.62C55.65,162.22,60.12,156.41,58.23,153.77Z"/>
        <path class="cls-3" d="M80.46,114.94c.47-1.12,3.2-7.27,9.71-9.47a19.88,19.88,0,0,1,15.11,2.19l.61.36a32.38,32.38,0,0,1,9.13,8.45c2.59,3.27,4.48,5.65,5.31,9.48a19.79,19.79,0,0,1-1,11.21,28.32,28.32,0,0,1-3.7,6.47c-1.54,2.29-4.06,6-5.32,5.55-.58-.22-.5-1.17-1-3.82-.5-2.47-.84-2.94-1.38-5.08a31.7,31.7,0,0,1-1.15-9.25,32.09,32.09,0,0,1,1.74-8.67c1.37-4.62,2.27-5.33,2.08-7.4-.16-1.86-1.16-4.27-4.62-6.94"/>
        <path class="cls-3" d="M99.77,105.59c-.15-.33,2.68-1.31,5.67-4.27,1.2-1.2,1.42-1.72,4-5.2,1.46-1.94,3.3-4.31,4.05-5.2a24,24,0,0,1,11.68-7.28c4.4-1.11,7.18-.17,10.17-2.77,1.12-1,1.93-2.13,2.2-2,.54.34-2.05,5.38-2.43,6.13-.86,1.66-1.67,3.06-2.78,4.85-3,4.85-4.5,7.28-5.9,8.43a18,18,0,0,1-7.29,3.35c-3.85,1.07-4.72.38-9.25,1.15C103.94,103.84,100,106,99.77,105.59Z"/>
        <path class="cls-3" d="M101,105.24a29.54,29.54,0,0,1,9.94,1.4c6.26,2,6.93,4.69,12.6,6.13,5.43,1.39,6.24-.69,12.48.71a23.08,23.08,0,0,1,11,5.21c2.83,2.56,4.69,5.8,6.58,9.13,1.58,2.76,2.29,4.63,4.62,6.94,1.17,1.16,2.14,1.83,2,2.2-.3.62-3.39-.5-8.67-1.74-5-1.17-4.66-.74-8.67-1.74-5-1.24-7.64-1.93-10.63-3.94a23,23,0,0,1-5.55-5.32A24.8,24.8,0,0,1,122,111.85"/>
      </g>
      <path class="cls-3" d="M208.89,116.15a6.09,6.09,0,0,1,.16-3.46,7.91,7.91,0,0,1,2.84-3.86,11.61,11.61,0,0,1,5.16-2.16,25.33,25.33,0,0,1,6.13-.25c3.74.1,4.13.45,4.23.73.18.53-.57,1-2.27,3.09-.4.49-1,1.36-2.28,3.09a39.55,39.55,0,0,1-2.84,3.86,9.36,9.36,0,0,1-3,2.53,6,6,0,0,1-4,.61A5.79,5.79,0,0,1,208.89,116.15Z"/>
      <path class="cls-3" d="M212.61,122a6.15,6.15,0,0,1,3.19-1.35,7.9,7.9,0,0,1,4.71.89,11.57,11.57,0,0,1,4.17,3.72,25.47,25.47,0,0,1,2.88,5.43c1.53,3.41,1.38,3.91,1.17,4.12-.4.4-1.15-.08-3.77-.71-.61-.15-1.66-.34-3.77-.72a41.17,41.17,0,0,1-4.71-.89,9.19,9.19,0,0,1-3.59-1.66,5.93,5.93,0,0,1-2.29-3.36A5.8,5.8,0,0,1,212.61,122Z"/>
      <path class="cls-3" d="M206.74,124.3a6.17,6.17,0,0,1,2.78,2,7.82,7.82,0,0,1,1.64,4.51,11.43,11.43,0,0,1-1.06,5.49,25,25,0,0,1-3.19,5.24c-2.15,3.06-2.66,3.19-2.95,3.12-.54-.14-.51-1-1.31-3.61-.19-.6-.56-1.6-1.31-3.6a42,42,0,0,1-1.65-4.51,9.51,9.51,0,0,1-.41-3.93,6,6,0,0,1,1.72-3.69A5.83,5.83,0,0,1,206.74,124.3Z"/>
      <path class="cls-3" d="M202.71,116.69a6.18,6.18,0,0,1-3.14-1.43,7.88,7.88,0,0,1-2.53-4.07,11.45,11.45,0,0,1-.08-5.6,25.32,25.32,0,0,1,2-5.78c1.47-3.44,2-3.67,2.25-3.66.55,0,.71.91,2,3.26.3.55.88,1.46,2,3.26a40.37,40.37,0,0,1,2.53,4.08,9.32,9.32,0,0,1,1.21,3.76,6,6,0,0,1-.93,4A5.8,5.8,0,0,1,202.71,116.69Z"/>
      <path class="cls-3" d="M202.52,123a6.22,6.22,0,0,1-2.23,2.65,7.87,7.87,0,0,1-4.6,1.34,11.54,11.54,0,0,1-5.41-1.42,24.7,24.7,0,0,1-5-3.53c-2.92-2.34-3-2.85-2.92-3.14.17-.53,1.06-.44,3.68-1.08.61-.14,1.64-.45,3.68-1.07a42,42,0,0,1,4.61-1.35,9.46,9.46,0,0,1,3.95-.15,6,6,0,0,1,3.57,2A5.83,5.83,0,0,1,202.52,123Z"/>
      <ellipse class="cls-6" cx="207.21" cy="120.86" rx="2.88" ry="4.32" transform="translate(-12.93 216.18) rotate(-53.67)"/>
      <path class="cls-5" d="M190,127.26c0,.24-.89.17-1.91,1-1.29,1-1.39,2.4-2.06,4.43a19.38,19.38,0,0,1-2.64,5.2,11.63,11.63,0,0,1-4.95,3.5c-6.34,2.66-13.07.19-13.05-.07a4.69,4.69,0,0,0,2.68-.41c1.51-.91,1.31-2.58,2.64-5.2a16.3,16.3,0,0,1,2.84-3.87,17.39,17.39,0,0,1,5.52-4.27C184.24,125.2,190,126.66,190,127.26Z"/>
      <path class="cls-5" d="M184.8,124.62c.38-1.31-1-2.78-2-3.82a11,11,0,0,0-6-3.2,13,13,0,0,0-4.79,0c-3.07.57-5.05,2-6.71,1-.45-.28-.7-.63-.77-.57s1.31,2.9,3.5,5A15.14,15.14,0,0,0,178.3,127C178.81,127,184.15,126.89,184.8,124.62Z"/>
      <path class="cls-3" d="M218,120.1c.82-.34,5.36-2.16,9.88,0a14.46,14.46,0,0,1,6.76,8.81c.06.21.11.38.14.5a23.56,23.56,0,0,1,.47,9c-.31,3-.54,5.22-2,7.64a14.44,14.44,0,0,1-6.24,5.31,20.86,20.86,0,0,1-5.22,1.5c-2,.41-5.16,1.08-5.58.19-.2-.41.33-.86,1.39-2.52s1.06-2,1.86-3.35a23.18,23.18,0,0,1,4.1-5.41,23.45,23.45,0,0,1,5.3-3.63c3.06-1.71,3.89-1.63,4.84-2.8s1.57-2.82,1.12-6"/>
      <path class="cls-3" d="M232.8,125c.09-.25,2.06.68,5.12.65a33.94,33.94,0,0,0,4.75-.66c1.75-.27,3.91-.57,4.75-.65a17.55,17.55,0,0,1,9.78,2.13c2.86,1.66,3.84,3.56,6.71,3.72,1.07.06,2.09-.13,2.14.09.11.46-3.79,1.77-4.37,2-1.29.44-2.43.75-3.91,1.12-4,1-6,1.51-7.36,1.41a13.16,13.16,0,0,1-5.5-2c-2.55-1.39-2.65-2.19-5.4-4.09C235.86,126.23,232.69,125.33,232.8,125Z"/>
      <path class="cls-3" d="M233.64,125.49a21.3,21.3,0,0,1,4.47,5.78c2.23,4.23,1.23,6,3.46,9.59,2.12,3.48,3.6,2.81,6.15,6.7a16.94,16.94,0,0,1,3.08,8.29,25.84,25.84,0,0,1-1.21,8.1c-.58,2.24-1.15,3.58-1.11,6,0,1.2.19,2-.09,2.15-.47.17-1.52-2-3.64-5.31-2-3.15-2.05-2.75-3.63-5.31-2-3.16-3-4.88-3.55-7.45a16.88,16.88,0,0,1-.19-5.58,18.18,18.18,0,0,1,3.81-8.86"/>
      <g>
        <path class="cls-3" d="M165.91,97.85a6.06,6.06,0,0,1,2.55,2.34,7.81,7.81,0,0,1,1.14,4.65,11.46,11.46,0,0,1-1.65,5.35,25.23,25.23,0,0,1-3.74,4.86c-2.46,2.81-3,2.89-3.27,2.78-.52-.19-.39-1.08-.91-3.72-.12-.62-.39-1.66-.92-3.73a41.31,41.31,0,0,1-1.14-4.66,9.22,9.22,0,0,1,0-4,6,6,0,0,1,2.1-3.48A5.82,5.82,0,0,1,165.91,97.85Z"/>
        <path class="cls-3" d="M159,97a6.11,6.11,0,0,1-1,3.31,7.81,7.81,0,0,1-3.71,3,11.4,11.4,0,0,1-5.53.82,25.25,25.25,0,0,1-6-1.27c-3.6-1-3.9-1.45-3.92-1.75-.05-.55.8-.82,3-2.43.51-.37,1.33-1.06,3-2.43a42.4,42.4,0,0,1,3.7-3,9.48,9.48,0,0,1,3.58-1.69,6,6,0,0,1,4.05.4A5.82,5.82,0,0,1,159,97Z"/>
        <path class="cls-3" d="M161,91a6.25,6.25,0,0,1-3.36.83,7.9,7.9,0,0,1-4.51-1.63,11.5,11.5,0,0,1-3.53-4.34,25.4,25.4,0,0,1-2-5.81c-1-3.61-.75-4.08-.5-4.26.45-.32,1.11.27,3.61,1.3.58.24,1.59.6,3.6,1.31A37.32,37.32,0,0,1,158.87,80a9.37,9.37,0,0,1,3.29,2.2,6,6,0,0,1,1.73,3.68A5.82,5.82,0,0,1,161,91Z"/>
        <path class="cls-3" d="M169.45,92.76a6.29,6.29,0,0,1,3.12-1.5,7.77,7.77,0,0,1,4.74.68,11.48,11.48,0,0,1,4.35,3.52,25.3,25.3,0,0,1,3.13,5.28c1.69,3.33,1.56,3.85,1.36,4.07-.38.41-1.15,0-3.8-.54-.62-.12-1.68-.26-3.8-.54a41.24,41.24,0,0,1-4.75-.67,9.36,9.36,0,0,1-3.66-1.48,6,6,0,0,1-2.45-3.26A5.81,5.81,0,0,1,169.45,92.76Z"/>
        <path class="cls-3" d="M164.72,88.56a6.25,6.25,0,0,1-.61-3.41A7.86,7.86,0,0,1,166,80.76a11.44,11.44,0,0,1,4.56-3.24,24.94,24.94,0,0,1,5.93-1.6c3.66-.74,4.12-.48,4.28-.22.3.47-.34,1.09-1.53,3.51-.28.56-.7,1.55-1.54,3.52a42.62,42.62,0,0,1-1.92,4.39,9.33,9.33,0,0,1-2.41,3.13,6.05,6.05,0,0,1-3.79,1.49A5.82,5.82,0,0,1,164.72,88.56Z"/>
        <ellipse class="cls-6" cx="163.37" cy="93.54" rx="4.32" ry="2.88" transform="translate(-17.6 41.67) rotate(-13.8)"/>
      </g>
      <path class="cls-5" d="M68.7,124.38a1.5,1.5,0,0,0,0-3,1.5,1.5,0,0,0,0,3Z"/>
    </g>
    <path class="cls-5" d="M69.69,123.45a1.5,1.5,0,0,0,0-3,1.5,1.5,0,0,0,0,3Z"/>
    <path class="cls-5" d="M78.17,122.74a1.5,1.5,0,0,0,0-3,1.5,1.5,0,0,0,0,3Z"/>
    <path class="cls-5" d="M80.29,129.1a1.5,1.5,0,0,0,0-3,1.5,1.5,0,0,0,0,3Z"/>
    <path class="cls-5" d="M72.69,133.52a1.5,1.5,0,0,0,0-3,1.5,1.5,0,0,0,0,3Z"/>
    <path class="cls-5" d="M66.69,129.46a1.5,1.5,0,0,0,0-3,1.5,1.5,0,0,0,0,3Z"/>
    <path class="cls-5" d="M164.4,91.64a1.5,1.5,0,0,0,0-3,1.5,1.5,0,0,0,0,3Z"/>
    <path class="cls-5" d="M159.8,94.29a1.5,1.5,0,0,0,0-3,1.5,1.5,0,0,0,0,3Z"/>
    <path class="cls-5" d="M160.86,96.94a1.5,1.5,0,0,0,0-3,1.5,1.5,0,0,0,0,3Z"/>
    <path class="cls-5" d="M160.69,97.3a1.5,1.5,0,0,0,0-3,1.5,1.5,0,0,0,0,3Z"/>
    <path class="cls-5" d="M166.34,97.47a1.5,1.5,0,0,0,0-3,1.5,1.5,0,0,0,0,3Z"/>
    <path class="cls-5" d="M207.69,118.68a1.5,1.5,0,0,0,0-3,1.5,1.5,0,0,0,0,3Z"/>
    <path class="cls-5" d="M211.75,122.92a1.5,1.5,0,0,0,0-3,1.5,1.5,0,0,0,0,3Z"/>
    <path class="cls-5" d="M204.51,124a1.5,1.5,0,0,0,0-3,1.5,1.5,0,0,0,0,3Z"/>
    <path class="cls-5" d="M209.81,125.57a1.5,1.5,0,0,0,0-3,1.5,1.5,0,0,0,0,3Z"/>
  </g>
</svg>
