<svg xmlns="http://www.w3.org/2000/svg" width="304" height="305" viewBox="0 0 304 305">
  <defs>
    <style>
      .cls-1 {
        fill: #d9c9c1;
      }

      .cls-2 {
        fill: none;
        stroke: #fff;
        stroke-miterlimit: 10;
        stroke-width: 2px;
      }

      .cls-3 {
        fill: #fff;
      }
    </style>
  </defs>
  <g id="Layer_1" data-name="Layer 1">
    <g id="Layer_3" data-name="Layer 3">
      <rect class="cls-1" width="304" height="305"/>
    </g>
  </g>
  <g id="Layer_2" data-name="Layer 2">
    <g>
      <path class="cls-2" d="M122.15,26.35c.4.7.94,1.73,1.51,3a39.51,39.51,0,0,1,3,12,84.17,84.17,0,0,1,0,18.08c-.62,6.34-1.22,6.52-1.51,10.55-.41,5.8.79,9.17,3,19.58,2.61,12.19,1.76,10.19,3,15.07,3.58,13.89,6.87,16,10.55,30.13.37,1.43,1.25,6,3,15.06,2.53,13.06,3.79,19.59,4.52,25.61.25,2,1.2,10.22,1.51,21.1.14,5.23.09,9.45,0,11.84,0,.92,0,1.61,0,1.72-.26,9,1.44,81.35,1.5,81.35s-.55-94.38,0-123.54a104,104,0,0,1,1.51-16.57c.37-2.17,1.2-6.52,7.53-25.61,6.47-19.52,7.12-19.53,8-24a43.71,43.71,0,0,1,3.24-10.53c.8-1.72,2-4.09,2.33-4.62,1.65-3.12,2.94-5.3,3.46-6.19a152.56,152.56,0,0,0,8.59-17.92c.78-1.83,1.83-4.4,3-7.53" transform="translate(4 5)"/>
      <path class="cls-2" d="M217,101.49a15.39,15.39,0,0,0-6,3c-2.11,1.76-2.73,3.34-6,9-.88,1.53-2.56,4.44-4.52,7.54-2.16,3.41-2.2,3.19-6,9a83.73,83.73,0,0,0-4.52,7.53c-.81,1.53-1.15,2.29-1.51,3-2.42,4.81-5.41,6.62-10.55,12.05a99.63,99.63,0,0,0-7.53,9c-2.08,2.76-3.54,5.13-6,9-2.82,4.45-4,6.67-4.52,7.54-1.2,2.21-2,3.86-3,6-2.39,5-4.71,10.45-4.52,10.55a57.26,57.26,0,0,1,4.52-7.53,39.05,39.05,0,0,1,7.53-7.54,41.59,41.59,0,0,1,7.54-4.52s7.28-1.54,8.92-2.9l0,0h0l.09-.08,0,0,.23-.24a23.36,23.36,0,0,1,2.87-2.57,6.69,6.69,0,0,1,3-1.51c1-.15,1.24.16,3,0,1-.08,1.32-.21,1.5,0,.41.48-.47,2-1.5,3a6.35,6.35,0,0,1-3,1.5,12.49,12.49,0,0,1-3,0c-1.29,0-2.34,0-3,0" transform="translate(4 5)"/>
      <path class="cls-2" d="M164.33,171c2-1.26,5.22-3.31,9-6,6.16-4.38,6.85-5.47,12.06-9a124.12,124.12,0,0,1,12-7.53,42.31,42.31,0,0,0,9-6c1.31-1.17,2.41-1.7,3-3,.79-1.73.24-3,1.51-4.52.41-.49.63-.53,1.5-1.51s1.14-1.51,1.51-1.51c.71,0,1.48,1.58,1.51,3a4.81,4.81,0,0,1-3,4.52,4.68,4.68,0,0,1-3,0" transform="translate(4 5)"/>
      <path class="cls-2" d="M160.57,128c3-4.55,5.76-8.27,8-11.1a163.69,163.69,0,0,1,11.21-12.69c2.64-2.74,6.14-5.29,5.65-7.1-.23-.83-.44-.13-1.51-1.5a8.51,8.51,0,0,1-1.51-4.52c-.26-2.07.33-4.39,1.51-9,.43-1.71.78-2.88,1.51-3,1-.19,1.89,1.77,3,1.5.68-.16.57-1,1.51-1.5a2.91,2.91,0,0,1,3,0c1.14.83.44,2.39,1.51,3,.43.25,1.29.16,3,0a3.26,3.26,0,0,1,1.51,0,2.43,2.43,0,0,1,1.5,1.5,2.73,2.73,0,0,1,0,1.51c-.41,1.83-1.74,2.63-1.5,3s2.18-.7,3,0,.12,2.66,0,3c-1.31,3.88-5.39,5.74-6,6a14.08,14.08,0,0,1-10.54,0" transform="translate(4 5)"/>
      <path class="cls-2" d="M131.19,106.19c-2.71-2.15-6.37-5.19-10.55-9a98.71,98.71,0,0,1-9-9c-4.89-5.75-4.95-10.71-9-13.55a11.71,11.71,0,0,1-3-3c-1.16-1.69-2.09-4.05-1.5-4.52s2.12.69,3,1.51c2.45,2.25,2.93,5.57,3,7.53" transform="translate(4 5)"/>
      <path class="cls-2" d="M128.18,89.62c2.89-3.48,5.43-6.53,7.53-9,5.61-6.71,7-8.39,9-10.54,3.09-3.34,5.77-5.9,7.53-7.54" transform="translate(4 5)"/>
      <path class="cls-2" d="M150.78,198.09a83.82,83.82,0,0,0-19.59-40.67" transform="translate(4 5)"/>
      <path class="cls-2" d="M150.78,208.64a37.6,37.6,0,0,1-10.55-10.55c-3.18-4.87-3-7.28-7.53-15.06a100,100,0,0,0-6-9,98.94,98.94,0,0,0-9-10.55,91.9,91.9,0,0,0-10.54-9" transform="translate(4 5)"/>
      <path class="cls-2" d="M150.78,204.12a16.2,16.2,0,0,0-3-9c-2.78-3.78-6.58-5.17-9-6-5-1.74-7.13-.69-12-1.5a31,31,0,0,1-13.56-6" transform="translate(4 5)"/>
      <path class="cls-2" d="M140.48,264.5c5.51-11.16,6.79-17.22,6.87-20.73a25.45,25.45,0,0,1,3.93-13.4" transform="translate(4 5)"/>
      <path class="cls-2" d="M165.84,273.42a35.85,35.85,0,0,1-4.52-7.53,48.06,48.06,0,0,1-3-10.55c-1-4.72-.89-5.85-1.51-9a55.81,55.81,0,0,0-4.52-13.56" transform="translate(4 5)"/>
      <path class="cls-2" d="M167.35,262.88a25.3,25.3,0,0,1-4.52-6c-.41-.76-1.28-2.5-3-9s-1.65-7.86-3-10.55a21.9,21.9,0,0,0-4.52-6" transform="translate(4 5)"/>
      <path class="cls-2" d="M171.87,244.8a21.9,21.9,0,0,0-5.09-4.66c-2.44-1.61-3.47-1.58-5.08-3.1-2-1.89-2.71-4.07-3.39-6.2-1.3-4.07-.37-5.26-1.7-7.76a11.38,11.38,0,0,0-5.08-4.65" transform="translate(4 5)"/>
      <path class="cls-2" d="M170.36,229.73c-3.72.22-5.72-.72-6.85-1.59-.76-.59-.92-1-3.42-4.77s-2.93-4.28-3.43-4.77a14.3,14.3,0,0,0-5.13-3.18" transform="translate(4 5)"/>
      <path class="cls-3" d="M149.1,211.15a4.37,4.37,0,0,0-3.12.3,3.54,3.54,0,0,0-1.77,3.34l.06.77c0,.18,0,.35.07.54a1.78,1.78,0,0,0,.21.82,3.06,3.06,0,0,0,.65,1,3.58,3.58,0,0,0,.66.5,17.44,17.44,0,0,0,2,.72l-.71-.3a4.7,4.7,0,0,1,.92.47l-.61-.47a.94.94,0,0,1,.1.1l-.47-.6,0,0-.3-.71,0,.06-.11-.8V217l.11-.79,0,.06.3-.72,0,.05,1.08-1.07a.39.39,0,0,1-.11.06l.72-.3h-.07l.8-.11c-.86.12-1.76,0-2.63.12a4.44,4.44,0,0,0-1.89.51,3.94,3.94,0,0,0-1.67,1.63,4.27,4.27,0,0,0-.52,1.91,2.94,2.94,0,0,0,.4,1.51,3.1,3.1,0,0,0,1.08,1.08,9.43,9.43,0,0,0,3.89,1,9,9,0,0,0,2-.17,5.59,5.59,0,0,0,1.29-.35,2.2,2.2,0,0,0,1-.54,2.25,2.25,0,0,0,.78-.84,3,3,0,0,0-1.08-4.11,2.94,2.94,0,0,0-2.31-.3,6.4,6.4,0,0,1-1.41.38l.8-.11a6.28,6.28,0,0,1-1.62,0l.79.11a6.38,6.38,0,0,1-1.48-.41l.72.3-.37-.17,1.49,2.59v-.07l-.1.8a1.34,1.34,0,0,1,.07-.27l-.3.72c0-.08.09-.16.14-.24l-.47.61a1.36,1.36,0,0,1,.24-.24l-.6.46A1.71,1.71,0,0,1,148,220l-.71.3a1.67,1.67,0,0,1,.3-.08l-.8.11c.6-.08,1.22-.07,1.82-.09l.86,0a3.71,3.71,0,0,0,1.69-.48,3.18,3.18,0,0,0,1.46-1.89,3.35,3.35,0,0,0-.93-3.23,4.15,4.15,0,0,0-1.28-.83,14.84,14.84,0,0,0-2.28-.83l.71.3,0,0,1.07,1.08,0-.06.31.72v-.07l.1.8a10.49,10.49,0,0,1-.08-1.25l-.1.8a.35.35,0,0,1,0-.14l-.3.72a.34.34,0,0,1,.06-.12l-.47.61a.27.27,0,0,1,.07-.08l-.6.47a.67.67,0,0,1,.14-.09l-.72.31.17-.05-.8.11a1.61,1.61,0,0,1,.38,0l-.8-.11.25.05a3.15,3.15,0,0,0,2.31-.3,3.11,3.11,0,0,0,1.38-1.8,3,3,0,0,0-2.1-3.69Z" transform="translate(4 5)"/>
      <path class="cls-2" d="M174.88,174a9.83,9.83,0,0,1,1.51-4.52c.9-1.42,2.87-1.64,3-3,.06-.59-.22-.88,0-1.51.07-.2.25-.62,1.51-1.51a7.62,7.62,0,0,1,3-1.5c.73-.16,1.28-.28,1.51,0,.41.5-.5,2.08-1.51,3a6.54,6.54,0,0,1-4.52,1.51" transform="translate(4 5)"/>
      <path class="cls-2" d="M196.73,149.13c1.18-2.25,2.14-4,2.76-5.13,2.25-4.1,3-5.29,2.76-6.84s-1.29-1.69-1.38-3.42c-.06-1.2.33-2.9,1.38-3.42a1.55,1.55,0,0,1,1.38,0c1.31.68,1.38,3.18,1.38,3.42a6.76,6.76,0,0,1-2.76,5.13" transform="translate(4 5)"/>
      <path class="cls-2" d="M188.38,154.17a14.31,14.31,0,0,1,3.05-1.42c2.84-.95,3.72-.28,6.07-1.34a14.34,14.34,0,0,1,3.05-1.42,4.48,4.48,0,0,1,3,.08c.53.25,1.54.89,1.47,1.55-.09.85-1.88,1.35-3.06,1.42a6.55,6.55,0,0,1-4.47-1.63" transform="translate(4 5)"/>
      <path class="cls-2" d="M167.35,165c-1.51-1.51,1.33-7.15,1.5-9a26.6,26.6,0,0,0,0-6,23.29,23.29,0,0,0-1.5-6c-.49-1.19-1.26-1.68-1.51-3a22.17,22.17,0,0,1,0-3c-.05-2.13-.38-2.73,0-3,.57-.43,2.24.36,3,1.5,1.2,1.77.52,4.71-1.5,7.54" transform="translate(4 5)"/>
      <path class="cls-2" d="M168.85,151.39c.44-1,2.45-3.55,3-4.52,1.09-1.86,1.71-2.35,3-4.52a13.11,13.11,0,0,0,1.51-3c.49-1.61.8-4.16,0-4.52s-2.56,1.16-3,3c-.58,2.38,1.35,4.36,1.51,4.52" transform="translate(4 5)"/>
      <path class="cls-2" d="M191.45,133.31a17.7,17.7,0,0,1,0-6c.46-1.82,1.25-2.44,1.51-4.51.21-1.67-.26-1.61,0-3,.44-2.4,1.88-3.08,1.51-4.52-.21-.8-.91-1.54-1.51-1.5-.86,0-1.54,1.69-1.51,3a4.31,4.31,0,0,0,1.51,3" transform="translate(4 5)"/>
      <path class="cls-2" d="M191.45,128.79a9.74,9.74,0,0,0-3-3c-.51-.31-1.28-.7-1.51-1.51-.18-.64.16-.93,0-1.5-.3-1.13-2.19-2.08-3-1.51s-.58,2,0,3c.77,1.27,2.56,1.87,4.52,1.51" transform="translate(4 5)"/>
      <path class="cls-2" d="M197.48,125.78a43.17,43.17,0,0,0,6-1.51,8.39,8.39,0,0,0,3-1.5c.67-.57.72-.83,1.5-1.51s2.26-1.94,3-1.51.67,2,0,3-1.78,1.24-3,1.5a10.73,10.73,0,0,1-4.51,0" transform="translate(4 5)"/>
      <path class="cls-2" d="M206.52,110.71a24.28,24.28,0,0,1-1.51-4.52c-.46-2.07-.44-3.31-1.5-4.52-.41-.46-1.46-1.46-1.51-1.5-1.1-1-1.27-1.09-1.51-1.51-.56-1-.72-2.5,0-3a1.73,1.73,0,0,1,1.51,0,3,3,0,0,1,1.51,1.5,5.72,5.72,0,0,1,0,4.52" transform="translate(4 5)"/>
      <path class="cls-2" d="M205,104.69a12.46,12.46,0,0,0,1.51-6c-.05-2.13-.71-3.09,0-4.52.19-.39.34-.64,3-3h0a7.13,7.13,0,0,1,0,3,7.71,7.71,0,0,1-3,4.52" transform="translate(4 5)"/>
      <path class="cls-2" d="M216.83,101.31c-.38-.63.92-2.11,1.84-2.82a5.93,5.93,0,0,1,3.17-1.15c.74-.07,1.31-.12,1.5.18.34.54-.71,2-1.85,2.82C219.78,101.61,217.25,102,216.83,101.31Z" transform="translate(4 5)"/>
      <path class="cls-2" d="M209.53,106.19a5.68,5.68,0,0,1,3,0c1.41.43,1.59,1.18,3,1.51,1.24.29,1.38-.23,3,0,.82.12,2.46.35,3,1.51a1.51,1.51,0,0,1,0,1.5c-.68.9-2.9,0-3,0a5.89,5.89,0,0,1-3-3" transform="translate(4 5)"/>
      <path class="cls-2" d="M155.3,143.86c-1,.13-2.38-3.24-3-6-1.25-5.51-.13-11.84,1.51-12.05,1.14-.15,2.5,2.69,3,4.52.32,1.15.41,2.25,0,6C156.27,141.28,156,143.76,155.3,143.86Z" transform="translate(4 5)"/>
      <path class="cls-2" d="M168.59,117.57c-.41-1.26,4-3.69,4.86-4.14a21,21,0,0,1,7.75-2.4c1-.11,4.25-.46,4.51.36.06.19,0,.67-3.24,2.76-3.56,2.27-5.34,3.41-7.88,3.9C172.34,118.49,168.92,118.6,168.59,117.57Z" transform="translate(4 5)"/>
      <path class="cls-2" d="M176.22,83.59c-.86,0-1.58-2.54-2.07-4.29-.8-2.86-.71-4.57-1-7.47-.49-5.93-1.71-8.75-1.14-9,.8-.3,3.47,5,3.75,5.6a20.14,20.14,0,0,1,2.25,5.79C178.86,78.73,177.38,83.56,176.22,83.59Z" transform="translate(4 5)"/>
      <path class="cls-2" d="M185.26,67.43c.49-.53.83-.63,5.06-2,2.76-.88,4.16-1.34,5.06-2s1.51-1.33,1.79-1.15c.46.29-.45,2.47-.64,2.94a13.35,13.35,0,0,1-2.43,4.1c-2.9,3.05-8.45,4.19-9.8,2.49C183.49,70.81,184.14,68.64,185.26,67.43Z" transform="translate(4 5)"/>
      <path class="cls-2" d="M188.44,80.58a26,26,0,0,0-1.51,4.52,27,27,0,0,0,0,12.05" transform="translate(4 5)"/>
      <path class="cls-2" d="M186.93,97.15a15.22,15.22,0,0,0,4.81-1,4.53,4.53,0,0,0,2.73-2c1-1.58,2.07-3.28,3-4.52.61-.8,0,0,1.51-1.51" transform="translate(4 5)"/>
      <path class="cls-2" d="M188.44,55a9.81,9.81,0,0,1-3-3,11.67,11.67,0,0,1-1.51-4.52,18.28,18.28,0,0,1,0-7.54c.28-1.27.65-2.84,1.51-3,1-.2,1.85,1.78,3,1.51.29-.07.69-.55,1.51-1.51s1-1.3,1.5-1.51a2.32,2.32,0,0,1,1.51,0c.61.24.8.68,1.51,1.51A7,7,0,0,0,196,38.4c.83.51,1.53.29,4.52,0,2.66-.26,2.88-.16,3,0,1,1.16-2.33,5.33-1.51,6a6.08,6.08,0,0,0,1.51,0,5.87,5.87,0,0,1,1.5,0,2.26,2.26,0,0,1,1.51,1.51c.1.4.09,1.08-1.51,3a22.83,22.83,0,0,1-3,3,23.3,23.3,0,0,1-4.52,3c-2,1-3,1.5-4.52,1.51A8.2,8.2,0,0,1,188.44,55Z" transform="translate(4 5)"/>
      <path class="cls-2" d="M188.44,38.4V55" transform="translate(4 5)"/>
      <path class="cls-2" d="M188.44,55A14.11,14.11,0,0,0,193,52c1.2-1.22,1.53-2,3-3,1.26-.83,1.78-.74,3-1.5a9.85,9.85,0,0,0,3-3" transform="translate(4 5)"/>
      <path class="cls-2" d="M144.75,124.27c-.51-.64-1.17-6.17-1.51-7.53a13.36,13.36,0,0,1,0-4.52c.24-2.57.55-3.39,0-4.52-.42-.88-1.22-1.65-1.5-1.51s-.18,1.46,1.5,6" transform="translate(4 5)"/>
      <path class="cls-2" d="M144.75,122.77c1.93-1.37,3.49-2.37,4.52-3,1.29-.81,4.06-2.49,4.48-4.34,0,0,0-.09,0-.18.31-1.6-.18-2.31,0-3,.32-1.23,2.61-2,3-1.51s-1,2.34-1.5,3a10.42,10.42,0,0,1-1.51,1.5" transform="translate(4 5)"/>
      <path class="cls-2" d="M149.27,107.7a32.6,32.6,0,0,1,4.52-6l4.52-4.52,1.5-1.5a36.56,36.56,0,0,1,3-3c1.09-.87,2.35-1.89,3-1.5s.61,2,0,3c-.9,1.52-3.3,2.1-6,1.51" transform="translate(4 5)"/>
      <path class="cls-2" d="M156.8,88.11a10.68,10.68,0,0,1,0-4.52c.12-.54.66-3,1.51-3,.69,0,1.54,1.56,1.5,3,0,2.07-1.87,3.43-3,4.52-.9.87-1.44,1.63-6,15.07-1.7,5-2.55,7.46-3,9a116.41,116.41,0,0,0-3,12,90.57,90.57,0,0,0-1.51,18.08" transform="translate(4 5)"/>
      <path class="cls-2" d="M150.78,103.18c-1.9-3.49-1.88-5.94-1.51-7.53.54-2.37,2-3.72,1.51-6a9.38,9.38,0,0,0-1.51-3c-.66-.94-1.12-1.6-1.51-1.51-.69.17-1.27,2.82,0,4.52a4.21,4.21,0,0,0,3,1.51" transform="translate(4 5)"/>
      <path class="cls-2" d="M149.27,98.66a18,18,0,0,0-4.52-3l-.33-.15a20.94,20.94,0,0,0-4.19-1.36c-1.65-.31-2.65-.5-3,0-.49.66.27,2.4,1.5,3s3.19.09,4.52-1.5" transform="translate(4 5)"/>
      <path class="cls-2" d="M129.68,133.31a36.17,36.17,0,0,0-3-7.53,10,10,0,0,1-1.51-4.52v-1.07c0-2.66.1-2.73,0-3.45s-.33-2.48-1.5-3a1.73,1.73,0,0,0-1.51,0c-1,.67-.67,3.06,0,4.52a6.61,6.61,0,0,0,3,3" transform="translate(4 5)"/>
      <path class="cls-2" d="M117.63,124.27a22.39,22.39,0,0,1-3-6c-.63-2-.55-2.85-1.51-4.52-.8-1.4-1.44-1.85-1.51-3a3.14,3.14,0,0,1,1.51-3c.08,0,1-.42,1.51,0,.69.55.26,2.08,0,3a9.28,9.28,0,0,1-1.51,3" transform="translate(4 5)"/>
      <path class="cls-2" d="M104.07,109.21c-.62-.07-2.58-.36-3-1.51a9.23,9.23,0,0,1,0-3c0-.19,0-.16,0-.29.13-1.91-.25-2.57,0-2.73s2.24,1,3,3a7.85,7.85,0,0,1,0,4.52c-.55,4,4.3,8,12.78,14.48,6.55,5,12.15,9.2,12.77,9.66,6.24,4.62,11.16,8.6,14.38,11.26" transform="translate(4 5)"/>
      <path class="cls-2" d="M111.6,119.75c-1.28-.58-2.3-1.11-3-1.5a13.49,13.49,0,0,0-3-1.51c-1.35-.38-2.89-.39-3,0s.45.45,1.5,1.51,1.05,1.34,1.51,1.5,1.44,0,3-1.5" transform="translate(4 5)"/>
      <path class="cls-2" d="M126.5,130.59c-.66.13-1.69.35-2.93.69-1.92.51-2.17.7-2.94.68-1.81,0-2.42-1.16-3.28-.78-1,.46-1.48,2.72-.78,3.28.51.4,1.88.08,5.53-2.84" transform="translate(4 5)"/>
      <path class="cls-2" d="M120.64,97.15a45.91,45.91,0,0,0,0-6,34,34,0,0,0-1.5-9,41,41,0,0,0-6-10.55A13.62,13.62,0,0,0,111,69.26c-.37-.32-.67-.55-.92-.73-2-1.46-3.21-2.08-4.52-3-1.7-1.21-3.23-2.3-3-3,.28-.93,3.54-1.23,6,0a6,6,0,0,1,3,3,6,6,0,0,1,0,4.52" transform="translate(4 5)"/>
      <path class="cls-2" d="M116.12,76.06a6.54,6.54,0,0,0,1.51-3c.5-2.6-1-4.22,0-6,.41-.71.68-.5,1.51-1.5,1.13-1.38,2.23-3.72,1.5-4.52s-3.57-.44-4.52,1.5A3.6,3.6,0,0,0,117.63,67" transform="translate(4 5)"/>
      <path class="cls-2" d="M108.59,83.59a52.07,52.07,0,0,1-6-1.5,38.17,38.17,0,0,0-6-1.51c-2.69-.42-3-.12-3,0-.34.64,1.12,2.55,3,3,2.33.58,4.32-1.3,4.52-1.5" transform="translate(4 5)"/>
      <path class="cls-2" d="M126.67,61l4.52-4.52c7.47-7.48,7.29-7.35,7.53-7.54,3.59-2.75,9.64-6.07,10.52-8.94l0-.1a37.41,37.41,0,0,1,1.51-4.52c1.28-2.19,4.49-3,4.52-3h0a7.24,7.24,0,0,1,0,3,6,6,0,0,1-1.51,3,5.86,5.86,0,0,1-4.52,1.5" transform="translate(4 5)"/>
      <path class="cls-2" d="M141.74,47.44c3,1,4.88.59,6,0s1.65-1.4,3-1.51c.5,0,1.44,0,3,0h.56c.79,0,.9-.06,1,0,.21.27-1,2.47-3,3-2.38.63-4.4-1.38-4.52-1.5" transform="translate(4 5)"/>
      <path class="cls-2" d="M122.1,26.83c.79-.55.65-2.27.11-3.37a4.37,4.37,0,0,0-2.63-2.1,5.56,5.56,0,0,0-3.37-.11c-.81.19-1.23.29-1.36.63-.42,1.06,2.73,3.13,3.25,3.47C119.69,26.39,121.26,27.42,122.1,26.83Z" transform="translate(4 5)"/>
      <path class="cls-2" d="M125.91,35.77a22,22,0,0,1,1.92-4.09,17,17,0,0,1,3.92-4.82c1.48-1.21,1.93-1.08,2.64-2.09,1.26-1.81,1.29-4.36.55-4.73-.29-.15-.49.15-2,.72-1.35.51-1.55.4-2,.73a3.81,3.81,0,0,0-1.27,2.73,5.36,5.36,0,0,0,1.45,4" transform="translate(4 5)"/>
      <path class="cls-2" d="M126.67,61a40.74,40.74,0,0,0-6-7.54c-.34-.33-.11-.1-7.53-6-2.36-1.89-3.11-2.5-4.52-3-2.19-.81-3.23-.4-4.52-1.5-1.61-1.39-2.19-3.93-1.5-4.52.22-.19.4,0,1.5,0,1.8.06,2.21-.31,3,0a3.11,3.11,0,0,1,1.5,1.5,5.29,5.29,0,0,1,0,4.52" transform="translate(4 5)"/>
      <path class="cls-2" d="M113.11,47.44c.55-4.11.33-6.29,0-7.54a9.11,9.11,0,0,1,0-4.52l0-.08a16.31,16.31,0,0,1,1.48-2.93c.79-1.65-.59-4.51-1.51-4.52-.71,0-1.37,1.72-1.51,3a6.31,6.31,0,0,0,1.51,4.51" transform="translate(4 5)"/>
      <path class="cls-2" d="M120.44,44c-.4.4-3.39-.87-4.22-3.42-.72-2.23.34-5,1.55-5.21.89-.13,2.08,1.15,2.33,2.43s-.62,1.71-.55,3.32C119.63,42.88,120.71,43.73,120.44,44Z" transform="translate(4 5)"/>
      <path class="cls-2" d="M119.14,52v-9" transform="translate(4 5)"/>
      <path class="cls-2" d="M135.71,80.58c-1.62-5.17-1-8.45,0-10.54.66-1.4,1.65-2.63,1.51-4.52-.2-2.56-2.35-4.81-3-4.52s-.46,2.29,1.51,9" transform="translate(4 5)"/>
      <path class="cls-2" d="M151.68,60.91c-.15-2.19,2.79-3.43,3.14-3.58,1.3-.53,3.46-.84,4.75.36.59.55,1.11,1.51.81,2-.41.63-1.85-.39-3.36.22-2,.79-1.85,3.46-3.14,3.58C152.92,63.55,151.77,62.2,151.68,60.91Z" transform="translate(4 5)"/>
      <path class="cls-2" d="M135.71,80.58h9c2.42.22,3.31.65,4.52,0a4.07,4.07,0,0,0,1.51-1.5c1-1.72.81-4.16,0-4.52s-2.32.74-6,6" transform="translate(4 5)"/>
      <path class="cls-2" d="M116.12,92.63a24.86,24.86,0,0,1-4.52,1.51c-2.66.62-5,1.16-6,0a2.39,2.39,0,0,1,0-3c.87-.84,2.5-.2,3,0a5.76,5.76,0,0,1,3,3" transform="translate(4 5)"/>
      <path class="cls-2" d="M126.67,45.93a11.72,11.72,0,0,1,3-3,14.45,14.45,0,0,1,3-1.51c2.05-.83,2.53-.7,4.52-1.51a13.2,13.2,0,0,0,3-1.5c.35-.25,3.58-2.56,3-4.52a2.42,2.42,0,0,0-1.5-1.51,2.47,2.47,0,0,0-1.51,0c-.69.23-1.56.87-1.51,1.51s1,.69,1.51,1.5a3.47,3.47,0,0,1,0,3" transform="translate(4 5)"/>
      <path class="cls-2" d="M132.7,55a4,4,0,0,1-1.51-3c.05-.86.48-.93,1.51-3,.85-1.74.77-2.14,1.5-3,.88-1,1.58-1.15,1.51-1.51-.14-.72-3.35-1.56-4.52,0a3,3,0,0,0,0,3,3.47,3.47,0,0,0,1.51,1.5" transform="translate(4 5)"/>
      <path class="cls-2" d="M140.23,171c-.78-2.3-3.77-2.87-4.52-3-1.42-.27-1.55.15-4.52,0-2-.1-2.86-.33-3,0s1,1.06,3,3,1.81,2.15,3,3,3,2.18,4.52,1.5S140.78,172.6,140.23,171Z" transform="translate(4 5)"/>
      <path class="cls-2" d="M131.19,157.42a8.19,8.19,0,0,1-3,1.5c-5.19,1.65-11.53-.37-12.06-3-.31-1.57,1.68-2.16,1.51-4.52-.14-2-1.64-2.53-1.51-4.52a4.54,4.54,0,0,1,1.51-3c1.38-1.07,2.74-.34,4.52-1.51a12.49,12.49,0,0,0,1.51-1.51c1.07-1.13,1.11-1.29,1.5-1.5a4.09,4.09,0,0,1,3,0,9,9,0,0,1,3,1.5C134.63,143.64,136.05,153.39,131.19,157.42Z" transform="translate(4 5)"/>
      <path class="cls-2" d="M107.09,154.4c.29-.53.19-1.86,0-4.52-.44-5.88-1.22-8.21-1.51-9-.79-2.22-1.52-4.28-3-4.52a3.71,3.71,0,0,0-3,1.51c-1.12,1.37-.73,2.77-1.5,3s-1.42-1.34-3-1.5a3.26,3.26,0,0,0-3,1.5c-.86,1.61.88,3.22,0,4.52-.63.93-1.67.35-3,1.51a4.32,4.32,0,0,0-1.51,3,4.46,4.46,0,0,0,1.51,3C92.78,156.76,104.77,158.65,107.09,154.4Z" transform="translate(4 5)"/>
      <path class="cls-2" d="M127.19,186.33c1-.81-.89-4.42-1.31-5.23-2.1-4.07-6.09-8.16-7.41-7.41s-.33,5.46,2.18,8.72C122.75,185.14,126.25,187.13,127.19,186.33Z" transform="translate(4 5)"/>
      <path class="cls-2" d="M113.68,181.37c0-.39-1.07-.38-1.74-1.43a4,4,0,0,1-.24-3.11c1-4-1.69-12.22-5.94-13.6-.14,0-2.12-.67-3.26.24s-.34,2.44-1.4,3.23c-1.24.92-3-.66-4.89.37a3.43,3.43,0,0,0-1.52,1.67,4,4,0,0,0,.24,3.11c.72,1.79,1.72,1.8,1.86,3s-.86,1.65-1.4,3.23a6.09,6.09,0,0,0,.35,4.66C98.42,187.13,113.77,182.86,113.68,181.37Z" transform="translate(4 5)"/>
      <path class="cls-2" d="M131.19,157.42a21.73,21.73,0,0,0,0-6c-.42-3-.8-5.74-3-7.53a8.3,8.3,0,0,0-6-1.51" transform="translate(4 5)"/>
      <path class="cls-2" d="M128.18,158.92a8.77,8.77,0,0,0-3-4.52,9.2,9.2,0,0,0-7.53-1.5" transform="translate(4 5)"/>
      <path class="cls-2" d="M107.09,152.9a31,31,0,0,1-9-12.06" transform="translate(4 5)"/>
      <path class="cls-2" d="M105.58,155.91A35.45,35.45,0,0,1,92,145.36" transform="translate(4 5)"/>
      <path class="cls-2" d="M111.6,177a21,21,0,0,1-3-3c-2.13-2.65-2.42-4.42-4.52-6a9,9,0,0,0-3-1.5" transform="translate(4 5)"/>
      <path class="cls-2" d="M111.6,178.51a17.38,17.38,0,0,0-6,0,18.05,18.05,0,0,0-9,4.52" transform="translate(4 5)"/>
    </g>
  </g>
</svg>
