<svg xmlns="http://www.w3.org/2000/svg" width="114.68" height="109.14" viewBox="0 0 114.68 109.14">
  <defs>
    <style>
      .cls-1 {
        fill: #fff1d9;
      }

      .cls-2 {
        fill: none;
        stroke: #000;
        stroke-miterlimit: 10;
        stroke-width: 0.5px;
      }
    </style>
  </defs>
  <g id="Layer_2" data-name="Layer 2">
    <g>
      <path class="cls-1" d="M108.38,80.18a40.78,40.78,0,0,0-2.1-4.38l2.71,6Z" transform="translate(-35.91 -48.43)"/>
      <path class="cls-1" d="M102.68,69.3c1.24,3,3.48,8.14,6.09,13.64-2.56-5.83-1.43-3.43-4.48-10.36-.24-.74,1,1.86,2,4.08-.68-1.55.74,1.26-1-2.53-2.26-4.61-2.48-4.73-.86-.82C103.88,72,103.19,70.42,102.68,69.3Z" transform="translate(-35.91 -48.43)"/>
      <path class="cls-1" d="M90,63.77l.39.69A7.79,7.79,0,0,0,90,63.77Z" transform="translate(-35.91 -48.43)"/>
      <path class="cls-1" d="M83.3,62.86a9.36,9.36,0,0,0-.53-1.32A10.37,10.37,0,0,0,83.3,62.86Z" transform="translate(-35.91 -48.43)"/>
      <path class="cls-1" d="M79.37,56.64a4.41,4.41,0,0,0,.24.38C79.33,56.48,79.17,56.18,79.37,56.64Z" transform="translate(-35.91 -48.43)"/>
      <path class="cls-1" d="M90,63.77,89,62C89.89,63.91,89.74,63.37,90,63.77Z" transform="translate(-35.91 -48.43)"/>
      <path class="cls-1" d="M108.2,84.34c-.1-.3-.34-.88-.65-1.61.09.26.17.49.22.66Z" transform="translate(-35.91 -48.43)"/>
      <path class="cls-1" d="M90.05,57.85l0,0L89,55.36Z" transform="translate(-35.91 -48.43)"/>
      <path class="cls-1" d="M91.38,56.12c-.15-.21,2.19,4.91,3.2,7.14-1-2.11-1.38-3.12-1.52-3.53C92.61,58.75,92.07,57.59,91.38,56.12Z" transform="translate(-35.91 -48.43)"/>
      <path class="cls-1" d="M98.29,63.83,98,63.09C98.1,63.32,98.17,63.54,98.29,63.83Z" transform="translate(-35.91 -48.43)"/>
      <path class="cls-1" d="M88.28,57.32c-.35-.76-.66-1.42-.85-1.82C87.72,56.14,88,56.75,88.28,57.32Z" transform="translate(-35.91 -48.43)"/>
      <path class="cls-1" d="M56.88,118.26l-.42-.91C56.69,117.87,56.85,118.24,56.88,118.26Z" transform="translate(-35.91 -48.43)"/>
      <path class="cls-1" d="M43.21,93.9l-.1-.29c-.44-1-.87-1.92-1.31-2.86Z" transform="translate(-35.91 -48.43)"/>
      <path class="cls-1" d="M74.74,50.84l.05.09C74.57,50.33,74.59,50.44,74.74,50.84Z" transform="translate(-35.91 -48.43)"/>
      <path class="cls-1" d="M61.6,61.44c2.27,4.49,2.42,6,5,11C65.66,70.4,63.17,64.31,61.6,61.44Z" transform="translate(-35.91 -48.43)"/>
      <path class="cls-1" d="M107.85,83.69c0,.07,0,.13,0,.09C107.91,83.93,107.92,83.9,107.85,83.69Z" transform="translate(-35.91 -48.43)"/>
      <path class="cls-1" d="M66.61,72.39l0,0,.24.47C66.77,72.69,66.7,72.56,66.61,72.39Z" transform="translate(-35.91 -48.43)"/>
      <path class="cls-1" d="M72.42,55.63c.42.89.75,1.57,1.06,2.21C73.24,57.32,72.94,56.68,72.42,55.63Z" transform="translate(-35.91 -48.43)"/>
      <path class="cls-1" d="M78.54,61.61,78.16,61A4,4,0,0,0,78.54,61.61Z" transform="translate(-35.91 -48.43)"/>
      <path class="cls-1" d="M74.29,63.5c-.22-.38-.55-1.07-.29-.37.12.26.21.44.3.62C74,63.05,73.87,62.71,74.29,63.5Z" transform="translate(-35.91 -48.43)"/>
      <path class="cls-1" d="M72.8,64.22l.5,1-.08-.29Z" transform="translate(-35.91 -48.43)"/>
      <path class="cls-1" d="M60.32,113.71c-.7-1.43-1.45-3-2.18-4.56C59.83,112.77,60.2,114.16,60.32,113.71Z" transform="translate(-35.91 -48.43)"/>
      <path class="cls-1" d="M106.88,81.47c.58,1.29.86,1.94,1,2.22a2.84,2.84,0,0,0-.08-.3C107.43,82.63,107.1,81.91,106.88,81.47Z" transform="translate(-35.91 -48.43)"/>
      <path class="cls-1" d="M92.76,103.82l-.59-.65C92.47,103.64,92.67,103.86,92.76,103.82Z" transform="translate(-35.91 -48.43)"/>
      <path class="cls-1" d="M70.76,108l.23.64C71.06,108.76,71,108.61,70.76,108Z" transform="translate(-35.91 -48.43)"/>
      <path class="cls-1" d="M91.81,104.25c-.87-1.78-1.4-2.8-1.76-3.46.18.4.32.73.58,1.33Z" transform="translate(-35.91 -48.43)"/>
      <path class="cls-1" d="M58.11,109.1l0,.05Z" transform="translate(-35.91 -48.43)"/>
      <path class="cls-1" d="M62.12,122c.29,0-2.92-6.62-4.64-10.49-.61-2,2.4,4.88,4.07,8.27-.65-1.86-3.35-8.08-3.11-7.87.52,1.1.73,1.49,1.34,2.89-2.28-5.42.41-.51-2.46-7.31.29.59.55,1.15.79,1.66-1.58-3.35-3.16-6.77-4.27-9.2,0-.16-1.76-4.33.3,0-.12-.1.68,1.67,1.28,3.06l-.76-2c3,6.26.85,2.25,3,6.92-.74-2.15-2.89-7.48-1.91-5.77,2.87,6.15.58,2.25,3.31,7.64l-1.33-2.25c4.67,9.65-.46-.61,4.5,9.73,1.15,1.63-1.08-3.32.07-1.67-1.5-3.46-2.35-5.06-3.86-8.52-2.37-6.38,7.5,15.35,4.06,7-1.8-4.15-5.36-12-3.22-8l3.13,7c.63.55-4.44-10.11-1.95-5.57,1.2,2.77.82,2.43,1.25,3.23,2.74,5.41-1.67-4-1.51-4.1l2.88,6.17c-.11-1.13-1.8-5.76-1.94-7.06.82,1.85,1.65,3.81,2.6,5.66-1-3.3,1.35.29,3.48,3.75l-2.28-5.41c.07,0,1.19,2.37,1.62,3.43,1.11,1.94-1.55-3.39-2.43-5.52a36.14,36.14,0,0,1,2.22,4.63c-1.77-4.66-3.6-10.15-.64-4.59l.66,1.62c1.25,2-4.74-11.07-2.21-6.2l.38,1c1.62,2.06,0-3.1,4.11,4.75-3.45-7.72,2.12,3.18-2.77-7.55,2.76,5.16,3.55,7.12,5.64,10.48.34.44-2.9-6.77-3.27-8l2.58,5.6-2.51-6,3.19,6.65-.52-1.5c-.21-.31-1.28-2.46-2-4.08-1-2.64,2.32,3.66,3.65,6.53l-1.67-5c1,2.25,1.29,3.06,1.88,4.53-2.35-5.84,2.77,5.88.61.53-.62-1.26-1.52-3.35-2-4.48,1.68,3.33,2,3.23,1.53,1.7l1.73,3.88c.83.81-.05-2.21.4-2.34-1-1.73-4-8.44-4.19-9.14l2.77,5.9c-1.6-3.7-1.16-2.17-3-6.73.47.61,3.2,6.68,4,8.65l-.76-2.14c.83,1.76,1.21,2.71,2.23,5-1.61-3.71,3.07,5.79.25-.65l.82,1.76c.44-.15-.3-2.27-.09-2.73-2.35-5.11-1.69-4-3.49-8.21,1,1.51,3.14,5.4,3.24,4.82-1-2.64-1.93-4.36-3.22-7.43,2.15,4.64,2.26,4.07,3.64,7.48,0-.92,0-1.14-1.24-5.13-.92-1.89-1.36-2.69-2.06-4.29-.27-.8,1.08,1.86,2.1,4.1l.2.5c-2.69-7.22,7.44,13,3.39,3.12l.2.49-1.89-5.25c.56.71,1.49,3.55,3,6.36-3.11-8,1.25.79-.75-4.56,6.61,13.6.6-1.45,5,7.13l-1.51-3.22c-1.35-3.21,1,1.79,1.4,2.5-1.17-2.51-1.45-2.85-2.2-4.64-.91-4.3,4,3.89,6.22,6.4.72.72-7.51-16.81-3.55-9.28l2.65,6.05c-2.65-7.5,1.46-.37-.7-6.78.6,1.41,1.42,3.21,1.35,3.21,2.14,4.3.6,0-1-3.57.29.35,1.5,3.2,2.4,5,1.32,2.51-2.22-5.72-.15-1.42.34.7.61,1.44.74,1.78-.88-2.15.66.35-1.74-4.64,1.35,2.29-.56-2.45,1,.44-2.46-5.69,1.67,2.51-2-5.46,3.76,8.23,3.47,6.43,1.85,2.5,1.09,2.5,1.32,2.51,2.84,6,.12-.2-.42-1.8-2.4-6,4.85,9.69-3-8.21,3,4.31a94.82,94.82,0,0,1-2.82-10c3.75,8.2-.14,1.06,3.83,9.65-1.1-3.58-4.08-10.73-2.73-9,.63,1.07,1.57,3.59,2.17,5-1.11-3.58,1.2.35-.45-4.3.35.77.69,1.62.93,2.26,0-.3.74,1.12-1-2.6l.39,1c-2.62-5.35-4.89-11.44-6.19-14.3,4.78,10.73,1.62,2.5,7.62,16.09-.27-.73-1-2.52-2.18-5a49.65,49.65,0,0,1,2.33,5c-.65-2.16-2.57-6.07-2.28-6.11.83,1.81,1.1,2.53,2,4.66-1.49-3.57-3-7.15-2.07-5.72.49,1.09,1.16,2.49,1.09,2.49.11-.71-3.69-9.65-1.72-6.43,3.49,7.88,1.32,2.51,4.46,9.28l-.71-2.12-1.6-3.25c.24,0-1.86-5-.68-2.84L95,88.82l-.24-1.45-1.38-2.48c-1.42-3.59-4-8.58-2.85-6.8.27.71.22,0,2.16,3.94v0c-.9-2.2-1.85-4.52-.93-2.9,1,2.15,3.42,7.52,4.1,8.95-2.51-5.71-.28-1.78-2.94-7.87.62,1.43,2.25,5,2.6,5.72l-2-4.65c.76,1.44,1.1,2.14,2.4,5,.65.72-4-8.57-2-5,.15.38.48,1.07.75,1.79,1.2,1.79-.74-3.21.59-1.07,3.23,6.79.52,1.79,3.27,7.5-.16-1.43-2.9-8.58-1.76-7.16l-.42-.72c-4.38-9.66,2.49,4.63.6,0,.28.74,2.4,5.38,1.92,4.3,1,1.42-.53-2.63-1.5-5.85l1.08,2.5c1.18,2.13,1,1.07,1.71,2.12-1.08-2.5-.8-2.14-2.51-5.71,7,13.85-2.45-8,3.44,3.49a16.62,16.62,0,0,0,.9,2.22l-.63-2.47c-2-4.19-1.23-2.52-2.82-5.75a30.06,30.06,0,0,1-1.76-4.54c1.1,2.86,3.1,6.74,4.26,9-.61-1.28-1.23-2.71-1.84-4,3.65,7.37-3.85-8.47-1.24-3.57l1,2.21c-.41-1.18-1.65-4.14-1.24-3.56,2.28,4.83.92,2.32,2.75,6.32,0-.36-3.9-9.35-1.53-4.58.56,1.39.46,1.45,1,2.83,2.79,5.63,2.14,4.17,2.68,5l-.07-.12L104,84l-.79-1.51c-5.61-12.76-.64-2.51-4.17-10.93,3.33,8,2,4.56,4.55,10.07.77,1.5,1.67,3.16,2.35,4.72-1.91-4.5,1.83,3.4-1-3.18.82,1.77.22.11,2.24,4.57-.47-1.47-1.46-3.06-2.47-5.29-2.52-6.17,4,7,.56-1.43-1.24-3.57-3.93-9.57-5-12.69,1.41,2.79,2.89,6.5,2.89,6.5,1.36,2.53,1.27,2,.49-.11.68,1.56,1.31,2.86,2.28,4.82-.09-.52-2.89-6.49-1.52-4,.88,2,2.3,5.17,3.15,7.18-.6-1.7-2-5.08-2.56-6.75,1.46,3.07,2.06,4.73,2.94,6.77a57.13,57.13,0,0,0-3-7.91l-.92-1.7c0-.26,2,4.18,2.33,5.1,1.62,3.9-1-1.6-1.82-3.37l-.41-1.19c-4.89-10.34.33,1.87-.17,1.37l-3.38-7.6,2.66,6.37c-1-1.94-2.93-6.15-3.34-7.33-1.87-3.66,1.1,2.75-1-1.35-.32-.64-.48-1-.6-1.31l.88,2.32c-.7-1.61-2.48-5.33-1.88-4.28-2.28-4.23,2.16,5.87-.58.19l-.19-.47c.79,2.73,2.52,5.57,5.22,12.21L95.26,60.2l2.51,5.56A16.84,16.84,0,0,1,96.36,63c1.6,3.86,1.14,2.4,2.7,6-2.51-5,.57,2.61-3.54-6.21C97.39,67,97.2,66,98.34,69c-4.43-9.48.52,1.74-1.66-2.54-2.21-4.93-.85-2.41-3-6.71,3.7,8.34-1.18-1.66-.59,0,3,6.6.94,2.9,1.71,5.21-1-2.23-2.13-3.42-3.46-5.7l-.5-1.11c3,6.69,2.21,5.54,2.67,7-1.83-4-2.52-5.59-3.25-7.42l-.15.11a39,39,0,0,1,1.66,4.12l-2.25-5c-.09.37,2.27,6.07.46,2.87,2.13,4.66,6.18,12.86,7.32,16.1-1.17-2.51-3.16-6.81-3.56-7.88.13.34.87,2.13.33,1.08l-1.83-4.28c-1-1.8,1.56,3.56,1.28,3.21-1.65-3.58-1.25-2.52-2.55-5.38-.13-.35.77,1.45.16,0a57.1,57.1,0,0,1-2.82-5.35c1,2,2.22,4.83,2.36,5.33-.1.37-2.06-4.28-3-6.06,1.1,2.51-.23,0,2.24,5.36-.08,0-1.24-2.5-1.93-3.94,1,2.42-.21.92,2.54,6.56l.2.37c0,.11,0,.12.09.24h0c2.09,5.5-2.15-2.69-1.46-.22l-.82-1.8c.72,2.15.07,1.43,1.69,5.36-.06,0-1.65-3.2-2.61-5.36.46,1.43,1.36,3.45-.24.6C86,60.55,86,61,86.42,61.39c-.93-1.45-2.3-4.3-.27.71-2-4.63-2.82-5.71-2.29-4.29L85.52,61c.19.72-.1.36-.38,0L82.42,55c-3.82-7.15,5,12.88-1,.72,1.83,4.28,1.6,2.87,3.77,7.86-.57-.72-4.77-9.3-4.84-9.29-1.82-3.22,3.8,9,2.46,6.8,1,2.13,3.71,7.87,4.43,10-.57-.7-4.41-8.93-5.08-10.72,0-.2.3.47.64,1.2A34,34,0,0,0,81,57.47l1,2.16a44.45,44.45,0,0,1-2.84-5.36,27.37,27.37,0,0,0,2.19,4.63c-1.7-3-.45.1-1.68-1.88.59,1.17,1.79,3.69,1.74,3.68-1.62-2.49,1.71,4.17,1.88,5.24-1.67-3.22-3.56-7.87-2.56-5-1.18-2.15-2.66-5.7-3.41-7.49,1.67,4.27-1.71-2.52-2.2-3.22l-.67-1.8c.4,1.07.32,1.07.25,1.09l2.06,4.27a16.52,16.52,0,0,1-1.32-2.5c1.23,2.87,3.36,7.15,5,11.08-1.11-2.14.77,2.5-1.89-3.21,1.2,1.8-2.68-5.73-2.84-6.78.26.71.19.71-.24,0s-.53-1.19-.66-1.53c-2.66-5,2.84,6.53,2.46,6.55A41.27,41.27,0,0,0,74.58,52c.16,0,2.54,5.36,3.56,7.88-1.36-2.42.64,2,.4,1.72l.66,1.13a16.7,16.7,0,0,1,1.48,3.95c-1.17-2.51-.67-1.79-1.23-2.87,2.45,5.74-3-5.71-1.51-1.79-1.1-2.14-2.79-6.06-3.56-7.5,1.68,4.29-2.3-4.3-1-.72a81.6,81.6,0,0,1,3.35,7.54l-1-3.24,2.63,6.42c.15,0-1-2.84-.57-2.14,1.5,3.59,1,2.51,2.73,6.08-3.16-6.43,1.4,3.94-.82-.36L74.83,57.38c-2.5-4.65,2,5.75.37,3.23l1,1.81c1.91,4.29,0,.7.7,2.49-1.64-3.59-2.31-4.86-3.4-7.07,1.23,2.66-.39-.11,2.87,7.07L74,60.27c-1.21-1.79,4.34,10.38,3.48,9.3-1.71-3.94-3-6.42-4.09-9.3-.12,0-.51-.6.63,1.88-1.09-2.22,1.94,5,.28,1.6.68,1.59,2.4,5.36,2.15,5.11-.35-.72-.82-1.77-.82-1.77.82,1.77.93,2.49,2.86,6.42C73,62.46,78,74.72,73.3,65.23a11.79,11.79,0,0,1,.52,2.94c-.48-1.08-.82-1.79-.61-1.43-1.81-3.21,4.56,10.38,2.54,6.79-2.83-5.72-1.28-3.21-2.39-5.36-5.47-11.78.36,1.79-3-5l-.27-.72c-2-3.93,1.67,4.66,1,3.93,0,0-.47-1.05-.81-1.78a73,73,0,0,1,3.67,10c-2-4.65-1-2.5-3.21-7.17.19.72,3.5,7.53,3.87,8.94-1.23-2.49-2.41-4.63-4.74-9.62l.09-.37c-3.09-6.43-.18.35-.81-.73l-1.28-2.84c.09,1.07,3.37,8.21,2.78,7.87l1,2.13c3.06,7.15-2-3.91.24,1.44l-3.36-7.15c.67,1.79,2.74,7.14,3.13,8.59-2.31-5.38-3.3-8.22-4.58-11.45-.15,0-.19.72,1.37,4.29-.26-.71-1-2.5-.45-1.42,2.44,5.71,3.51,8.58,3.2,8.57-6.35-13.92-2.27-3.2-7.41-13.92,1.91,5.35-1.9-1.79-2-.72,5.16,10.73,0,.37,5.13,11.47.21.77.08.61-.26-.11L63.21,66c-1.57-3.19-1-2.5-2.17-5-.66-.73-2.28-4.66-3.81-7.53,1.86,4,2.53,5.73,1.68,4.29l2.57,5c2.35,6.09-4.61-9.17-2.29-3.15L57.7,56.05c.76,2.15-.74.26,3.18,9.27-.62-1.27-2.07-4.29-2.35-5.13-1.07-1.13,3.35,10,.47,4.63l-1.22-2.73c.28.83,2.2,5.18.84,2.49-.51-1.13-1.22-2.73-1.33-2.87.39,1,2,4.87,1.12,3.33l-1.31-3.1c-2.08-3.35,2.74,7.76,3.23,9.8-3.68-8-5.23-10.44-6-11.66L53.82,59c-1-.75,2.16,7,3.13,10.39-4.29-8.54-2.68-3.16-5.4-7.81.74,1.42,2.85,6.23,3.14,7.08C53.83,67,56.93,74.3,53.57,67l.11.12c-3.4-7.16-2.75-5.14-3-5.25L55,71.44c-6.89-13.74,1.12,5.69-4.88-6.69,1,2.45.83,2.49,1.82,4.94l-2.36-5.15c-.92-1.17-1.37-1.74-1.2-.34l-1.61-3.71c-.37-.23,6.54,15,6.48,15.36L49.7,68.2c-.33.29-3.82-6.27-1,.87-.51-1.13-1.52-3.35-1.6-3.69C46.83,65.26,44,60.5,48.92,71c-3.16-6.86-.7-.49.48,2.63l-2.29-5.08c2.8,6.55,3.61,8.33,4.18,10.23-.36-.63-1.91-4-1.24-2.77-1.41-2.56,2.06,4.86.58,2.28L49.23,75c-.38-.3.44,1.43,2.06,5.25.81,2.09-1-1.1-3.1-5.67,1.26,2.8,2.87,6.58,2.14,5.32-.81-1.72-1.26-2.81-1.48-3.35-1.91-3.29,2.22,6.12-.3,1.25-.78-1.68-1.18-2.51-1.43-3a.88.88,0,0,1,.81.56C45.79,70.7,45.2,70,42.4,63.46c1.45,3.6,4.67,11.38,3.45,9.28-.21-.45-.43-.89-.77-1.6l-.21-.54c-.27-.44-.11,0,.21.82a7.44,7.44,0,0,0-.82-1.33c-1.8-3.85-1.2-2-1.39-2.11,2.36,5.11,1.84,4.35,3.91,8.51a2.59,2.59,0,0,1-.29-.87,4.56,4.56,0,0,0-.2-.55c.07.14.14.31.2.45a1,1,0,0,1,.11-.46c1.11,2.63,2,4.86.6,2.08,1.46,3.31,2.95,6.71,3.65,8.31-3.43-7.06-5.48-10.78-7.54-15.16,1,3,.11,2.25,4.32,11.94.47,1.27-1.37-2.71-2.1-4.2-.39-1-.26-.87-.87-2.26,1,2.55-.1,1.21,2.94,7.93-1.63-2.92-2.71-6.23-2.53-5l-.9-2.07C38.62,66.22,51,94.22,44,80.79c.44.82.64,1.2,1.17,2.32-3.59-5.7,1,6.44-4.23-2.81-1.11-1.84.83,2.45,2.19,5.77l-2.57-5.46L43.24,87c1.8,4.79-6.76-13.2-3.15-4.24l1.75,3.67c-.47-.63.53,2.4-1.4-1.86.3.68,1.72,3.87.77,2L39.89,83.7l1.89,5.09C40.54,86.85,36.59,77.38,35.91,77c.36,1.17,3.41,8.56,4.35,10.45a43.36,43.36,0,0,1,2.31,4.59l.54,1.56c3.87,8.48,7.75,17.19,10.81,22.94l-2.14-5.28,2,4.06-.09.35c1.9,3.81.4.36-.6-2,1,2.17,1.76,3.68,2.18,4.47L51.76,110c1.55,3.29,2.92,6.61,3.92,8.37-1.62-3.81-3.52-7.38-4.47-9.92,1.88,3.78,3.29,6.94,1.91,3.59,1,2.17,1.64,3.57,2,4.55-1.08-2.67-.19-1.25-2.19-5.78,2.3,4.69-.16-1.42,3.51,6.59-.84-1.93-2.68-6.38-2.72-6.77,4.21,9.69.68.38,5.35,10.68-3.81-8.69-1.22-4.08-3.15-9a11.94,11.94,0,0,1,.68,1.66c.48.65,1.72,3.23,2.56,4.81-3.25-7.13-3.77-8.86-5.66-13.31,3.34,6.78,3.74,8.41,6.83,15-2.67-5.77-2.33-5.91-4.61-10.69,2.1,4.19,1.07,2,3.86,7.88-4.07-8.91-.56-1.57-3-7.09,2.22,4.29,3.89,8.32,2.87,5.51C60.87,118.7,62.12,122,62.12,122Zm-1.77-17.84,0,.1c0,.14,0,.26,0,.34A4.26,4.26,0,0,0,60.35,104.11Zm.41-.28c-.15-.18-.23-.18-.29-.12-.82-1.75-1.64-3.58-1.55-3.5C59.44,101.4,60,102.37,60.76,103.83Zm-17.22-35c-.26-.75.22.24.71,1.28a3.91,3.91,0,0,0,.16.67c.09.19.18.41.28.63C44.25,70.46,43.83,69.54,43.54,68.86Z" transform="translate(-35.91 -48.43)"/>
      <path class="cls-1" d="M46.49,75.62a4,4,0,0,1,.14.39c.23.44.42.82.57,1.13-.24-.55-.47-1.09-.71-1.62Z" transform="translate(-35.91 -48.43)"/>
      <path class="cls-1" d="M90.45,64.57l-.06-.11.35.72C90.62,64.94,90.55,64.78,90.45,64.57Z" transform="translate(-35.91 -48.43)"/>
      <polygon class="cls-1" points="35.51 62.34 34.91 61.05 35.39 62.19 35.51 62.34"/>
      <path class="cls-1" d="M101,81c.21.45.43.91.63,1.3C101.45,81.93,101.22,81.48,101,81Z" transform="translate(-35.91 -48.43)"/>
      <path class="cls-1" d="M102.56,81.63l1,1.75C103,82.38,102.73,81.91,102.56,81.63Z" transform="translate(-35.91 -48.43)"/>
      <path class="cls-1" d="M104.54,83.79c-.4-.9-.71-1.58-1-2.2l0,0Z" transform="translate(-35.91 -48.43)"/>
      <path class="cls-1" d="M94.31,95.76s0,.11.08.25C94.77,97,94.64,96.62,94.31,95.76Z" transform="translate(-35.91 -48.43)"/>
      <path class="cls-1" d="M92.69,82.05c.39,1,.76,1.88,1,2.47C93.92,84.88,94,85,92.69,82.05Z" transform="translate(-35.91 -48.43)"/>
      <path class="cls-1" d="M92.83,103.9l0-.09s0,0,0,0Z" transform="translate(-35.91 -48.43)"/>
      <path class="cls-1" d="M93.46,84.52c.53,1,.49.74.22,0C93.46,84.21,93.16,83.71,93.46,84.52Z" transform="translate(-35.91 -48.43)"/>
      <path class="cls-1" d="M109.15,84.48l.13.19c-.15-.34-.28-.61-.37-.82Z" transform="translate(-35.91 -48.43)"/>
      <path class="cls-1" d="M108.91,83.85l-.23-.63S108.66,83.28,108.91,83.85Z" transform="translate(-35.91 -48.43)"/>
      <path class="cls-1" d="M108.18,81.9l.5,1.32S108.83,83.36,108.18,81.9Z" transform="translate(-35.91 -48.43)"/>
      <path class="cls-1" d="M107,82.61l.84,1.86Z" transform="translate(-35.91 -48.43)"/>
      <path class="cls-1" d="M106.9,83.3c.27.39,2,3.86,1.59,2.65l-.67-1.48C109,87.25,105.53,80.14,106.9,83.3Z" transform="translate(-35.91 -48.43)"/>
      <path class="cls-1" d="M95,61l1,1.35a50.72,50.72,0,0,1-2.33-5.11C90.57,51.56,95.72,61.67,95,61Z" transform="translate(-35.91 -48.43)"/>
      <path class="cls-1" d="M92.83,58.57a40.25,40.25,0,0,0-1.83-4A27.8,27.8,0,0,0,92.83,58.57Z" transform="translate(-35.91 -48.43)"/>
      <path class="cls-1" d="M86.65,61.38l-2.12-4.65C84.72,57.45,85.35,58.53,86.65,61.38Z" transform="translate(-35.91 -48.43)"/>
      <polygon class="cls-1" points="60.6 37.52 62.04 40.36 60.14 36.08 60.6 37.52"/>
      <polygon class="cls-1" points="44.68 4.73 44.42 4.05 45.01 5.82 44.68 4.73"/>
      <path class="cls-1" d="M71,59.58l2.67,5.71C73.26,64.23,70.32,57.79,71,59.58Z" transform="translate(-35.91 -48.43)"/>
      <path class="cls-1" d="M69.2,67.47c-1.37-2.84-2.34-4.62-1.12-1.78C68.36,66,69.49,68.23,69.2,67.47Z" transform="translate(-35.91 -48.43)"/>
      <polygon class="cls-1" points="15.58 15.88 14.79 13.93 15.36 15.6 15.58 15.88"/>
    </g>
    <g>
      <path class="cls-1" d="M128.66,95.17c-.57-1.62-2-5.27-1.81-4.5l2.28,6.21Z" transform="translate(-35.91 -48.43)"/>
      <path class="cls-1" d="M123.58,84c1,3.05,2.9,8.37,5.16,14-2.16-6-1.18-3.52-3.75-10.65-.17-.76.94,1.91,1.79,4.2-.57-1.61.68,1.29-.74-2.61-2-4.74-2.22-4.86-.89-.83C124.59,86.77,124,85.14,123.58,84Z" transform="translate(-35.91 -48.43)"/>
      <path class="cls-1" d="M108.75,79l.39.69A4.42,4.42,0,0,0,108.75,79Z" transform="translate(-35.91 -48.43)"/>
      <path class="cls-1" d="M100.38,78.9a7.34,7.34,0,0,0-.54-1.3A9.08,9.08,0,0,0,100.38,78.9Z" transform="translate(-35.91 -48.43)"/>
      <path class="cls-1" d="M96,72.94c.12.18.19.25.27.37C95.94,72.78,95.76,72.49,96,72.94Z" transform="translate(-35.91 -48.43)"/>
      <path class="cls-1" d="M108.75,79l-1-1.81C108.59,79.15,108.47,78.6,108.75,79Z" transform="translate(-35.91 -48.43)"/>
      <path class="cls-1" d="M127.94,99.44c-.09-.31-.28-.9-.55-1.65.07.27.14.51.17.68Z" transform="translate(-35.91 -48.43)"/>
      <path class="cls-1" d="M109.64,72.73l.06,0-1-2.49Z" transform="translate(-35.91 -48.43)"/>
      <path class="cls-1" d="M111.64,70.79c-.15-.21,2,5,2.92,7.26-.86-2.14-1.24-3.18-1.36-3.6Z" transform="translate(-35.91 -48.43)"/>
      <path class="cls-1" d="M119.1,78.44l-.22-.76Z" transform="translate(-35.91 -48.43)"/>
      <path class="cls-1" d="M107.45,72.36l-.83-1.83Z" transform="translate(-35.91 -48.43)"/>
      <path class="cls-1" d="M75.21,143.16l-.68-.74A8.35,8.35,0,0,0,75.21,143.16Z" transform="translate(-35.91 -48.43)"/>
      <path class="cls-1" d="M54.33,124.53l-.18-.25L52,122Z" transform="translate(-35.91 -48.43)"/>
      <path class="cls-1" d="M90.5,67.65l.06.09C90.33,67.14,90.34,67.26,90.5,67.65Z" transform="translate(-35.91 -48.43)"/>
      <path class="cls-1" d="M72.62,82.72c2.93,4.09,3.15,5.65,6.49,10.14C77.89,91,74.66,85.29,72.62,82.72Z" transform="translate(-35.91 -48.43)"/>
      <path class="cls-1" d="M127.61,98.77c0,.07,0,.13-.06.09Q127.7,99.1,127.61,98.77Z" transform="translate(-35.91 -48.43)"/>
      <path class="cls-1" d="M79.11,92.86l0,0,.32.43Z" transform="translate(-35.91 -48.43)"/>
      <path class="cls-1" d="M87,73.34l1.22,2.13C87.91,75,87.56,74.35,87,73.34Z" transform="translate(-35.91 -48.43)"/>
      <path class="cls-1" d="M94.42,78.42,94,77.8A3.5,3.5,0,0,0,94.42,78.42Z" transform="translate(-35.91 -48.43)"/>
      <path class="cls-1" d="M88.86,81.34c-.26-.35-.65-1-.35-.33l.35.59C88.51,80.92,88.37,80.58,88.86,81.34Z" transform="translate(-35.91 -48.43)"/>
      <path class="cls-1" d="M86.93,82.47l.6,1-.09-.3Z" transform="translate(-35.91 -48.43)"/>
      <path class="cls-1" d="M77.55,137.46l-3.36-3.77C76.82,136.7,77.55,138,77.55,137.46Z" transform="translate(-35.91 -48.43)"/>
      <path class="cls-1" d="M126.78,96.5c.51,1.32.75,2,.83,2.27a1.53,1.53,0,0,0,0-.3C127.26,97.69,127,97,126.78,96.5Z" transform="translate(-35.91 -48.43)"/>
      <path class="cls-1" d="M110.35,120.13l-.66-.59C110,120,110.26,120.18,110.35,120.13Z" transform="translate(-35.91 -48.43)"/>
      <path class="cls-1" d="M87.36,128.59l.35.58C87.81,129.26,87.73,129.12,87.36,128.59Z" transform="translate(-35.91 -48.43)"/>
      <path class="cls-1" d="M109.36,120.69c-1-1.7-1.63-2.68-2-3.3l.68,1.28Z" transform="translate(-35.91 -48.43)"/>
      <path class="cls-1" d="M74.15,133.65l0,0Z" transform="translate(-35.91 -48.43)"/>
      <path class="cls-1" d="M81.48,145c.31-.06-4.68-5.52-7.43-8.74-1.13-1.8,3.7,4,6.28,6.76-1.14-1.61-5.48-6.82-5.17-6.71.81.91,1.12,1.23,2.09,2.4-3.68-4.58.3-.64-4.32-6.4l1.22,1.37C71.7,130.87,69.24,128,67.5,126c0-.19-2.85-3.71.34-.08a28.15,28.15,0,0,0,2.06,2.6l-1.26-1.68c4.61,5.18,1.42,1.94,4.77,5.84-1.28-1.88-4.77-6.46-3.34-5.11,4.44,5.14,1.13,2.06,5.25,6.47l-1.92-1.77c7.15,8-.62-.44,7,8.12,1.57,1.24-1.92-2.93-.34-1.67-2.37-2.93-3.64-4.24-6-7.17-3.93-5.56,11.37,12.75,5.85,5.58-2.83-3.53-8.32-10.14-5.16-6.86l4.85,6c.78.34-6.91-8.62-3.28-4.92,1.88,2.37,1.39,2.16,2,2.82,4.08,4.49-2.65-3.47-2.49-3.6l4.38,5.21c-.37-1.09-3.15-5.17-3.57-6.43,1.26,1.58,2.55,3.28,4,4.82-1.71-3,1.48-.15,4.43,2.67l-3.51-4.71c.08,0,1.73,2,2.4,2.94,1.56,1.6-2.32-2.92-3.68-4.78a31.67,31.67,0,0,1,3.28,4c-2.82-4.12-5.8-9.09-1.59-4.4l1,1.42c1.71,1.68-7.14-9.7-3.53-5.57l.59.85c2.11,1.58-.56-3.17,5.25,3.56-5-6.78,2.82,2.6-4.27-6.82,3.85,4.42,5,6.17,7.82,9,.44.35-4.25-6-4.83-7.11L87.68,130,84,124.71l4.51,5.83-.81-1.37c-.27-.25-1.77-2.13-2.82-3.56-1.44-2.41,3.09,3,5,5.59l-2.59-4.57c1.45,2,1.87,2.76,2.74,4.08-3.46-5.27,3.89,5.2.72.37-.86-1.1-2.15-3-2.88-4,2.33,2.91,2.62,2.75,1.9,1.33l2.46,3.47c1,.61-.42-2.21,0-2.44a97.56,97.56,0,0,1-5.84-8.19l3.84,5.26c-2.26-3.33-1.56-1.9-4.26-6a93.58,93.58,0,0,1,5.55,7.75l-1.12-2c1.14,1.58,1.69,2.45,3.11,4.48-2.26-3.36,4.11,5.1.16-.71l1.12,1.58c.44-.25-.66-2.22-.51-2.73-3.21-4.62-2.36-3.69-4.85-7.5,1.29,1.3,4.09,4.74,4.12,4.14-1.36-2.45-2.63-4-4.41-6.79,2.91,4.21,3,3.6,4.86,6.75-.09-.94-.1-1.16-2-4.93-1.23-1.7-1.8-2.42-2.74-3.89-.38-.76,1.4,1.64,2.76,3.7l.27.45c-1.87-3.37.53-.49,2.68,2.11s4.06,4.91,1.34.31l.26.46L94,118.75c.69.61,2,3.3,3.87,5.86-4.19-7.47,1.42.56-1.27-4.48,8.46,12.53.51-1.59,6.08,6.3l-1.92-3c-1.75-3,1.21,1.64,1.72,2.28-1.48-2.33-1.81-2.63-2.78-4.31-1.36-4.22,4.64,3.26,7.16,5.47.82.63-9.31-15.88-4.49-8.86l3.27,5.74c-3.38-7.23,1.51-.6-1.2-6.79.72,1.34,1.72,3.06,1.64,3.08,2.56,4.06.64-.1-1.31-3.5.33.33,1.8,3,2.86,4.74,1.55,2.37-2.7-5.52-.24-1.42.4.67.73,1.37.89,1.71-1.06-2.07.73.27-2.11-4.49,1.56,2.15-.72-2.42,1.1.31-2.91-5.47,1.9,2.34-2.35-5.32,4.42,7.9,4,6.11,2.12,2.31,1.27,2.41,1.52,2.4,3.29,5.74.12-.21-.52-1.77-2.8-5.82,5.57,9.29-3.49-8,3.37,4a73.85,73.85,0,0,1-3.28-9.9c4.23,8-.15,1.1,4.36,9.43-1.3-3.53-4.65-10.52-3.14-8.87a54.31,54.31,0,0,1,2.44,4.89c-1.25-3.56,1.31.24-.52-4.34.39.74.76,1.58,1,2.22,0-.31.81,1.07-1.08-2.56l.43,1c-2.89-5.21-5.37-11.22-6.79-14,5.24,10.52,1.81,2.39,8.36,15.72-.3-.72-1.11-2.48-2.38-4.91a44.14,44.14,0,0,1,2.55,4.9c-.71-2.15-2.8-6-2.48-6,.9,1.77,1.2,2.49,2.23,4.58-1.62-3.52-3.23-7-2.22-5.68a26.67,26.67,0,0,1,1.17,2.46c.13-.74-3.92-9.57-1.77-6.47,3.71,7.79,1.42,2.46,4.77,9.14l-.75-2.12-1.71-3.2c.27,0-1.94-5-.67-2.86l1.2,2.84-.22-1.47L111,100.67c-1.47-3.56-4.19-8.46-3-6.74a35.69,35.69,0,0,1,2.31,3.86v0c-.93-2.19-1.9-4.49-.92-2.91,1.08,2.13,3.56,7.45,4.28,8.86-2.61-5.66-.24-1.8-3-7.86.63,1.43,2.33,5,2.69,5.68L111.31,97c.81,1.41,1.16,2.11,2.5,4.94.71.69-4.19-8.5-2.06-5,.15.38.49,1.06.76,1.78,1.28,1.75-.66-3.25.75-1.16,3.3,6.75.49,1.81,3.31,7.48-.12-1.46-2.82-8.63-1.58-7.24l-.44-.72c-4.37-9.66,2.55,4.6.71,0,.26.74,2.37,5.39,1.89,4.31,1,1.4-.43-2.67-1.29-5.94l1.06,2.51c1.19,2.13,1.08,1.05,1.79,2.09-1-2.51-.74-2.17-2.43-5.75,3.48,6.94,2.93,4.91,2.26,2.57s-1.44-5,1.41.84a15.13,15.13,0,0,0,.85,2.25l-.51-2.51c-1.87-4.23-1.17-2.55-2.7-5.81A23.55,23.55,0,0,1,116,87a95.74,95.74,0,0,0,4,9.15L118.31,92c3.5,7.45-3.61-8.57-1.07-3.63l.93,2.24c-.35-1.2-1.47-4.21-1-3.63,2.14,4.9.82,2.36,2.53,6.41.08-.36-3.54-9.5-1.27-4.67.49,1.41.37,1.49.86,2.89,2.64,5.7,2,4.22,2.57,5.07l-.07-.12,1.44,2.48-.75-1.53c-5.12-13-.47-2.57-3.62-11.15,3,8.13,1.86,4.65,4.14,10.26.73,1.51,1.58,3.2,2.19,4.79-1.7-4.58,1.72,3.46-.78-3.25.75,1.8.24.11,2.06,4.66a56.7,56.7,0,0,0-2.24-5.4c-2.19-6.31,3.77,7.2.8-1.46-1-3.65-3.36-9.79-4.17-13,1.28,2.85,2.51,6.65,2.51,6.65,1.26,2.59,1.22,2,.6-.12.58,1.6,1.15,2.93,2,4.94,0-.53-2.48-6.65-1.23-4,.76,2,2,5.3,2.7,7.36-.48-1.75-1.63-5.21-2.07-6.92,1.28,3.15,1.75,4.85,2.49,6.94a48.88,48.88,0,0,0-2.45-8.12l-.83-1.75c0-.26,1.71,4.3,2,5.24,1.34,4-.93-1.63-1.66-3.46l-.31-1.22c-4.28-10.61.11,1.93-.39,1.42l-2.92-7.8,2.23,6.54c-.85-2-2.6-6.3-2.91-7.51-1.71-3.74.9,2.82-1-1.37-.29-.66-.42-1-.53-1.34l.71,2.38c-.6-1.64-2.19-5.45-1.63-4.38-2.14-4.32,1.72,6-.75.23l-.16-.49c.54,2.81,2.22,5.69,4.52,12.48l-5.88-13.87,2.23,5.68a13.77,13.77,0,0,1-1.3-2.84c1.37,4,1,2.45,2.4,6.15-2.35-5.06.31,2.69-3.43-6.29,1.67,4.33,1.59,3.21,2.55,6.31-4-9.65.38,1.78-1.67-2.56-2-5-.68-2.48-2.75-6.83,3.35,8.49-1.21-1.66-.74,0,2.78,6.71.74,3,1.36,5.35-.93-2.26-2.17-3.43-3.51-5.72L110.58,73c2.82,6.78,2,5.64,2.35,7.13-1.73-4-2.38-5.65-3-7.52l-.2.13a31.27,31.27,0,0,1,1.49,4.18l-2.12-5.06c-.18.4,2,6.17.15,3,2,4.69,6,12.94,7,16.24-1.13-2.53-3-6.87-3.4-8,.12.35.81,2.16.27,1.1l-1.71-4.33c-1-1.8,1.47,3.6,1.17,3.26-1.59-3.61-1.23-2.53-2.47-5.41-.12-.37.77,1.44.2,0a42.93,42.93,0,0,1-2.83-5.35c.92,2,2.15,4.87,2.24,5.38-.16.39-2-4.3-3-6.08,1,2.54-.3,0,2.09,5.42-.09,0-1.23-2.5-1.91-3.94.91,2.45-.4,1,2.34,6.65l.21.36.08.25h0c1.94,5.56-2.37-2.61-1.8-.09l-.82-1.8c.65,2.18-.08,1.5,1.5,5.45a14.71,14.71,0,0,1-1-1.85c-.54-1.07-1.18-2.41-1.66-3.49.41,1.45,1.32,3.47-.37.66-1.24-3.22-1.37-2.73-.84-2.39-1-1.41-2.41-4.24-.43.79-2-4.63-2.92-5.66-2.42-4.23l1.75,3.18c.16.74-.17.4-.48.07l-2.77-6c-4.09-7,4.86,12.95-1.44.94,1.86,4.27,1.74,2.8,4,7.77a52.63,52.63,0,0,1-2.8-4.82l-1.63-3-.54-1a2.67,2.67,0,0,0-.22-.36c-2-3.13,3.9,8.92,2.41,6.84,1.09,2.1,3.92,7.77,4.63,9.91a96.12,96.12,0,0,1-5.39-10.57c0-.21.34.45.7,1.18a24.44,24.44,0,0,0-1.87-4l1,2.15c-1.2-2.11-1.47-1.7-3.1-5.23A21.08,21.08,0,0,0,98.21,75c-1.87-2.91-.59.17-2-1.72.32.57.81,1.48,1.2,2.24a11.71,11.71,0,0,1,.67,1.38c-1.83-2.37,1.78,4.15,1.91,5.25-1.82-3.13-3.8-7.76-2.8-4.87a66.75,66.75,0,0,1-3.65-7.37c1.73,4.25-2-2.37-2.56-3l-.68-1.8c.4,1.07.3,1.09.21,1.12l2.25,4.18A11.31,11.31,0,0,1,91.31,68c1.31,2.83,3.66,7,5.38,10.89-1.22-2.08.78,2.51-2.13-3.07,1.39,1.69-2.94-5.61-3-6.7.27.71.17.72-.32,0a14.67,14.67,0,0,1-.71-1.51c-3-4.79,3.06,6.44,2.57,6.52C91.5,71,89.88,68.24,90.16,69c.21,0,2.8,5.22,3.89,7.71-1.54-2.31.66,2,.37,1.76l.76,1.08a12.78,12.78,0,0,1,1.57,3.91C95.46,81,96,81.64,95.41,80.59,98.1,86.23,92,75.1,93.62,79c-1.25-2.06-3.11-5.9-4-7.28,1.82,4.24-2.63-4.11-1.2-.56a59.83,59.83,0,0,1,3.74,7.35l-1-3.26,2.89,6.32c.19,0-1.06-2.84-.58-2.17a54.43,54.43,0,0,0,3,5.93c-3.57-6.21,1.52,3.92-1-.21L90,74.66c-2.89-4.42,2.15,5.73.23,3.39l1.14,1.72c2.16,4.17,0,.75.74,2.51-1.87-3.48-2.65-4.68-3.9-6.81,1.41,2.57-.51,0,3.22,6.92L88.68,78c-1.45-1.63,4.95,10.12,3.92,9.15-2-3.82-3.49-6.17-4.71-9-.15,0-.63-.53.7,1.86-1.28-2.12,2.21,4.85.27,1.64.79,1.55,2.78,5.17,2.48,5-.41-.69-1-1.7-1-1.7,1,1.7,1.07,2.44,3.33,6.18-6.42-10.52-.63,1.4-6.19-7.61a9.59,9.59,0,0,1,.55,3c-.57-1-1-1.71-.72-1.38-2.19-3,5.44,9.94,3,6.61-3.4-5.4-1.52-3.1-2.86-5.12-6.57-11.22.41,1.81-3.68-4.6l-.32-.69c-2.44-3.69,2,4.54,1.17,3.93,0,0-.57-1-1-1.69a60.82,60.82,0,0,1,4.46,9.75c-2.51-4.42-1.24-2.4-3.94-6.8.23.71,4.28,7.1,4.75,8.51-1.51-2.33-3-4.3-5.83-9l.12-.42c-3.8-6-.23.42-1-.55l-1.58-2.69c.09,1.13,4.15,7.86,3.42,7.64l1.27,2c3.81,6.79-2.47-3.62.3,1.46l-4.18-6.7c.82,1.73,3.42,6.85,3.93,8.28C82.48,89.9,81.25,87.14,79.65,84c-.19,0-.25.84,1.71,4.2-.33-.68-1.26-2.38-.56-1.38,3,5.4,4.41,8.15,4,8.22-8-13-2.84-2.79-9.38-12.71,2.45,5.16-2.42-1.32-2.62-.11,6.66,9.88,0,.41,6.64,10.67.27.76.11.62-.34,0l-4.41-5.84c-2-2.92-1.32-2.36-2.82-4.66-.85-.56-3-4.26-5-6.83,2.43,3.64,3.29,5.33,2.18,4.06l3.35,4.55c3.08,5.75-6-8.34-3-2.62l-1.95-3.32c1,2-1,.54,4.2,8.89-.82-1.14-2.72-3.89-3.1-4.7-1.42-.82,4.52,9.56.7,4.84l-1.63-2.51c.37.79,3,4.78,1.14,2.38-.69-1-1.63-2.5-1.78-2.61.52.89,2.66,4.53,1.53,3.18l-1.77-2.86c-2.78-2.85,3.76,7.35,4.47,9.34-5-7.24-7.07-9.29-8.11-10.3l-.71-1c-1.29-.42,3.06,6.78,4.48,10-5.9-7.53-3.57-2.37-7.31-6.29,1,1.24,4,5.57,4.42,6.36-1.18-1.34,3.22,5.21-1.51-1.33l.14.09c-4.77-6.33-3.83-4.41-4.18-4.42l6.21,8.54c-4.83-6-4.38-4.55-3.77-3s1.4,3.23-2.88-2.16c1.44,2.23,1.25,2.33,2.7,4.54l-3.4-4.53c-1.26-.86-1.89-1.28-1.55.16l-2.36-3.29C53,87.45,63,100.77,63,101.21l-5.21-6.65c-.38.44-5.4-5-1.16,1.37-.75-1-2.24-2.92-2.37-3.25-.36,0-4.39-3.83,2.85,5.24-4.66-5.94-.93-.21.9,2.59l-3.42-4.4c4.21,5.75,5.41,7.28,6.35,9-.51-.52-2.83-3.45-1.85-2.4-2-2.11,3.11,4.26,1,2.16L58,102.05c-.5-.15.71,1.33,3.18,4.67,1.26,1.85-1.3-.76-4.5-4.66,1.89,2.42,4.35,5.71,3.3,4.69-1.21-1.47-1.91-2.42-2.24-2.89-2.78-2.64,3.52,5.49-.19,1.46-1.18-1.43-1.78-2.14-2.15-2.55a.88.88,0,0,1,1.06.23c-3.24-4-4.06-4.48-8.33-10.16,2.23,3.18,7.21,10,5.44,8.31L52.36,99.8,52,99.34c-.38-.35-.13.06.37.77a5.84,5.84,0,0,0-1.18-1c-2.73-3.26-1.75-1.53-2-1.59,3.6,4.33,2.86,3.77,6,7.22a1.66,1.66,0,0,1-.47-.78,3.44,3.44,0,0,0-.32-.49l.3.38a1.22,1.22,0,0,1,.07-.54c1.71,2.29,3.15,4.22,1,1.93l5.61,7.13c-5.16-5.92-8.19-8.91-11.33-12.58,1.64,2.74.43,2.35,7,10.61.77,1.12-2.07-2.21-3.18-3.45-.63-.86-.45-.8-1.39-2,1.53,2.24,0,1.32,4.78,7-2.42-2.32-4.26-5.3-3.83-4.08L52,106.09c-4.18-4.18-1.42-.34,1.09,3.17s4.76,6.67-.59,1.3c.66.65,1,1,1.79,1.88-2.63-2.14-2-.56-1.78.64s.22,2-3.74-1.54c-1.67-1.36,1.45,2.17,3.71,5l-4.1-4.43,4.43,5.39c3.1,4.08-10.61-10.39-4.55-2.86l2.82,3c-.68-.42,1.12,2.22-2-1.24.49.56,2.82,3.16,1.32,1.66l-2.15-2.32L51.54,120c-1.86-1.39-8.5-9.23-9.38-9.25a112.7,112.7,0,0,0,7.32,8.63A32.93,32.93,0,0,1,53.17,123l1,1.33c6.35,6.82,12.79,13.84,17.56,18.3L68,138.22l3.15,3.23v.38c3,3,.51.2-1.18-1.75,1.66,1.74,2.84,2.94,3.49,3.55l-5.84-6.71c2.5,2.65,4.82,5.39,6.33,6.73-2.7-3.12-5.65-5.9-7.32-8,3,3,5.29,5.56,3,2.79,1.64,1.75,2.65,2.89,3.32,3.71-1.84-2.21-.54-1.16-3.83-4.85,3.65,3.74-.54-1.35,5.4,5.16-1.39-1.58-4.47-5.28-4.62-5.65,6.93,8,.8.11,8.36,8.53-6.24-7.15-2.35-3.56-5.63-7.7A13.56,13.56,0,0,1,73.78,139c.66.47,2.61,2.56,3.89,3.82-5.21-5.86-6.18-7.38-9.27-11.1,5.2,5.5,6,7,10.89,12.34-4.23-4.73-3.92-5-7.49-8.9,3.24,3.39,1.62,1.6,6,6.41-6.47-7.36-1-1.35-4.86-6,3.38,3.46,6.12,6.85,4.35,4.44C79.37,142.21,81.48,145,81.48,145Zm-6-17.13.08.09.09.34C75.61,128.19,75.57,128.07,75.47,127.84Zm.39-.43c-.19-.13-.28-.1-.33,0a36.66,36.66,0,0,1-2.38-3C74,125.41,74.76,126.19,75.86,127.41ZM50.15,98.12c-.42-.69.31.14,1.05,1a3.21,3.21,0,0,0,.29.64l.42.54Z" transform="translate(-35.91 -48.43)"/>
      <path class="cls-1" d="M54.7,103.93a3.63,3.63,0,0,1,.22.34l.86.94-1.1-1.39S54.68,103.89,54.7,103.93Z" transform="translate(-35.91 -48.43)"/>
      <path class="cls-1" d="M109.21,79.79l-.07-.11.36.72Z" transform="translate(-35.91 -48.43)"/>
      <polygon class="cls-1" points="52.62 82.75 51.77 81.61 52.48 82.64 52.62 82.75"/>
      <path class="cls-1" d="M120,96.1c.21.45.42.92.61,1.31Z" transform="translate(-35.91 -48.43)"/>
      <path class="cls-1" d="M121.81,96.72l1,1.78C122.25,97.48,122,97,121.81,96.72Z" transform="translate(-35.91 -48.43)"/>
      <path class="cls-1" d="M123.86,98.89,123,96.66v0Z" transform="translate(-35.91 -48.43)"/>
      <path class="cls-1" d="M111.83,111.77a1.68,1.68,0,0,0,.09.24C112.34,113,112.2,112.61,111.83,111.77Z" transform="translate(-35.91 -48.43)"/>
      <path class="cls-1" d="M110.35,97.81c.4.94.79,1.87,1,2.46C111.64,100.62,111.75,100.69,110.35,97.81Z" transform="translate(-35.91 -48.43)"/>
      <path class="cls-1" d="M110.42,120.2l0-.08s0,0,0,0Z" transform="translate(-35.91 -48.43)"/>
      <path class="cls-1" d="M111.11,100.28c.58,1,.54.72.26,0C111.14,100,110.81,99.49,111.11,100.28Z" transform="translate(-35.91 -48.43)"/>
      <path class="cls-1" d="M129,99.59l.13.2-.32-.85Z" transform="translate(-35.91 -48.43)"/>
      <path class="cls-1" d="M128.79,98.94l-.19-.64S128.57,98.36,128.79,98.94Z" transform="translate(-35.91 -48.43)"/>
      <path class="cls-1" d="M128.2,96.94l.4,1.36C128.65,98.3,128.75,98.45,128.2,96.94Z" transform="translate(-35.91 -48.43)"/>
      <path class="cls-1" d="M126.76,97.67l.73,1.9Z" transform="translate(-35.91 -48.43)"/>
      <path class="cls-1" d="M126.58,98.37c.27.4,1.84,3.95,1.49,2.72l-.58-1.52C128.55,102.41,125.4,95.14,126.58,98.37Z" transform="translate(-35.91 -48.43)"/>
      <path class="cls-1" d="M115.44,75.68l1,1.36a38.18,38.18,0,0,1-2.09-5.21C111.41,66,116.25,76.29,115.44,75.68Z" transform="translate(-35.91 -48.43)"/>
      <path class="cls-1" d="M113.09,73.25a30,30,0,0,0-1.67-4A21.79,21.79,0,0,0,113.09,73.25Z" transform="translate(-35.91 -48.43)"/>
      <path class="cls-1" d="M104.8,76.85l-2.13-4.64A46.21,46.21,0,0,0,104.8,76.85Z" transform="translate(-35.91 -48.43)"/>
      <polygon class="cls-1" points="78.64 53.07 80.13 55.88 78.19 51.61 78.64 53.07"/>
      <polygon class="cls-1" points="62.08 20.59 61.84 19.9 62.38 21.7 62.08 20.59"/>
      <path class="cls-1" d="M84.83,78,88,83.4C87.52,82.36,84.06,76.19,84.83,78Z" transform="translate(-35.91 -48.43)"/>
      <path class="cls-1" d="M82.29,86.87c-1.69-2.65-2.91-4.29-1.39-1.58C81.25,85.58,82.65,87.6,82.29,86.87Z" transform="translate(-35.91 -48.43)"/>
      <polygon class="cls-1" points="23.83 41.18 22.7 39.39 23.53 40.97 23.83 41.18"/>
    </g>
    <g>
      <path class="cls-1" d="M144,108.91A44.16,44.16,0,0,0,141,105l3.86,5.37Z" transform="translate(-35.91 -48.43)"/>
      <path class="cls-1" d="M136.26,99.35c1.82,2.64,5.07,7.26,8.72,12.12l-6.5-9.22c-.39-.67,1.38,1.62,2.81,3.6-1-1.39,1,1.09-1.46-2.28-3.12-4.07-3.35-4.16-1-.66C138,101.75,137,100.34,136.26,99.35Z" transform="translate(-35.91 -48.43)"/>
      <path class="cls-1" d="M123.67,95.79l.5.6A6.56,6.56,0,0,0,123.67,95.79Z" transform="translate(-35.91 -48.43)"/>
      <path class="cls-1" d="M117.5,95.81a11.34,11.34,0,0,0-.8-1.17A13.81,13.81,0,0,0,117.5,95.81Z" transform="translate(-35.91 -48.43)"/>
      <path class="cls-1" d="M112.49,90.43l.31.34C112.42,90.29,112.21,90,112.49,90.43Z" transform="translate(-35.91 -48.43)"/>
      <path class="cls-1" d="M123.67,95.79l-1.34-1.6C123.6,95.94,123.33,95.44,123.67,95.79Z" transform="translate(-35.91 -48.43)"/>
      <path class="cls-1" d="M144.82,112.88c-.17-.27-.52-.79-1-1.44l.36.6Z" transform="translate(-35.91 -48.43)"/>
      <path class="cls-1" d="M122.27,90.16l0,0-1.56-2.19Z" transform="translate(-35.91 -48.43)"/>
      <path class="cls-1" d="M123,88.35c-.17-.18,3.14,4.36,4.58,6.35-1.35-1.88-2-2.79-2.21-3.15Z" transform="translate(-35.91 -48.43)"/>
      <path class="cls-1" d="M131,94.74l-.42-.66Z" transform="translate(-35.91 -48.43)"/>
      <path class="cls-1" d="M120.57,89.9l-1.2-1.61Z" transform="translate(-35.91 -48.43)"/>
      <path class="cls-1" d="M98.91,154l-.3-.95A6.6,6.6,0,0,0,98.91,154Z" transform="translate(-35.91 -48.43)"/>
      <path class="cls-1" d="M88.64,127.62l0-.29-.75-3Z" transform="translate(-35.91 -48.43)"/>
      <path class="cls-1" d="M107,85.55l.07.08C106.7,85.09,106.75,85.2,107,85.55Z" transform="translate(-35.91 -48.43)"/>
      <path class="cls-1" d="M97.9,97.36c3.1,4,3.6,5.36,7.1,9.71C103.68,105.31,100,99.87,97.9,97.36Z" transform="translate(-35.91 -48.43)"/>
      <path class="cls-1" d="M144.34,112.31c0,.07,0,.12,0,.09C144.46,112.53,144.46,112.5,144.34,112.31Z" transform="translate(-35.91 -48.43)"/>
      <path class="cls-1" d="M105,107.07l0,0,.33.41Z" transform="translate(-35.91 -48.43)"/>
      <path class="cls-1" d="M106.08,90.4l1.49,2Z" transform="translate(-35.91 -48.43)"/>
      <path class="cls-1" d="M113,95.27l-.5-.57C112.8,95.1,112.92,95.22,113,95.27Z" transform="translate(-35.91 -48.43)"/>
      <path class="cls-1" d="M109.66,97.62c-.29-.33-.76-1-.35-.31l.42.55C109.29,97.23,109.09,96.92,109.66,97.62Z" transform="translate(-35.91 -48.43)"/>
      <path class="cls-1" d="M108.51,98.5l.69.89-.14-.26Z" transform="translate(-35.91 -48.43)"/>
      <path class="cls-1" d="M105.24,148.88c-.73-1.41-1.5-3-2.26-4.52C104.72,148,105,149.4,105.24,148.88Z" transform="translate(-35.91 -48.43)"/>
      <path class="cls-1" d="M143,110.33c.83,1.15,1.23,1.73,1.39,2a1.41,1.41,0,0,0-.14-.27Z" transform="translate(-35.91 -48.43)"/>
      <path class="cls-1" d="M135.85,133.41l-.68-.53C135.54,133.28,135.78,133.46,135.85,133.41Z" transform="translate(-35.91 -48.43)"/>
      <path class="cls-1" d="M117.34,140.32l.36.57C117.79,141,117.71,140.84,117.34,140.32Z" transform="translate(-35.91 -48.43)"/>
      <path class="cls-1" d="M135.11,134c-1.21-1.57-1.92-2.48-2.4-3.06l.83,1.19Z" transform="translate(-35.91 -48.43)"/>
      <path class="cls-1" d="M103,144.3l0,.06Z" transform="translate(-35.91 -48.43)"/>
      <path class="cls-1" d="M105.89,157.57c.46,0-2.61-6.75-4.18-10.69-.42-2.09,2.31,4.93,4,8.35-.47-1.93-3-8.22-2.7-8,.51,1.1.73,1.49,1.3,2.91-2.13-5.47.71-.64-2.12-7.45l.82,1.64c-1.63-3.33-3.23-6.73-4.36-9.15.07-.17-1.8-4.31.32,0a32,32,0,0,0,1.32,3l-.78-1.95c3.11,6.21.86,2.25,3.06,6.89-.67-2.17-2.92-7.47-1.87-5.8,3.06,6.06.54,2.28,3.47,7.57l-1.47-2.18c4.93,9.53-.54-.56,4.69,9.64,1.39,1.51-1-3.38.43-1.86-1.6-3.42-2.56-5-4.17-8.38-1.25-3.16.81.58,2.79,4s3.82,6.68,2,2.54-6.08-11.63-3.57-7.82l3.59,6.79c.88.39-5.11-9.78-2.14-5.53,1.42,2.66.92,2.4,1.44,3.16,3.3,5.1-1.94-3.91-1.74-4l3.45,5.87c0-1.22-2-5.73-2.3-7,1,1.73,2.08,3.6,3.29,5.3-1.18-3.27,1.67-.08,4.51,2.88l-3.06-5A35.27,35.27,0,0,1,114,146.4c1.45,1.71-2.07-3.09-3.26-5.07a31.75,31.75,0,0,1,3,4.21c-2.41-4.38-5.13-9.48-1.21-4.56l.94,1.48c1.64,1.76-6.66-10-3.27-5.72l.56.88c2,1.69-.61-3.06,5,3.85-4.92-6.88,2.7,2.7-4.25-6.83,3.7,4.53,4.88,6.28,7.55,9.19.41.37-4.22-6-4.83-7.11l3.65,5-3.67-5.33,4.44,5.89-.83-1.36c-.26-.26-1.73-2.16-2.77-3.6-1.49-2.37,2.95,3.17,4.82,5.71l-2.69-4.5c1.46,2,1.89,2.74,2.78,4.06-3.52-5.23,3.88,5.21.66.42-.85-1.11-2.16-3-2.89-4,2.3,2.93,2.54,2.8,1.77,1.41l2.48,3.45c.94.66-.59-2.1-.21-2.27-1.29-1.51-5.62-7.47-5.94-8.11l3.89,5.22c-2.32-3.29-1.55-1.91-4.34-6,.56.52,4.46,5.91,5.65,7.68l-1.19-1.93,3.19,4.42c-2.34-3.31,4.12,5.08,0-.65l1.16,1.55c.36-.19-.82-2.11-.74-2.57-3.33-4.54-2.48-3.61-5.09-7.33,1.26,1.3,4.09,4.71,4,4.15-1.48-2.38-2.77-3.88-4.66-6.63,3,4.12,3,3.56,5,6.62-.21-.88-.24-1.09-2.34-4.71-1.28-1.66-1.86-2.36-2.87-3.79-.44-.73,1.41,1.62,2.86,3.61l.3.45c-4.14-6.49,9.77,11.35,3.77,2.5l.29.44-3-4.73c.67.6,2.18,3.17,4.17,5.65-4.7-7.16,1.3.58-1.77-4.23,9.17,12,.18-1.45,6.2,6.1l-2.12-2.86c-2-2.87,1.3,1.57,1.84,2.19-1.65-2.23-2-2.52-3.07-4.11-1.86-4,4.47,3.16,7.06,5.24.82.58-10.74-15-5.4-8.33l3.82,5.39c-4.18-6.77,1.21-.55-2.27-6.34.47.65,1,1.34,1.34,1.9a5.58,5.58,0,0,1,.64,1c2.95,3.79.53-.1-1.78-3.26.34.3,2.11,2.84,3.34,4.41,1.78,2.21-3.36-5.14-.48-1.33.47.63.89,1.28,1.09,1.59-1.3-1.92.68.25-2.67-4.17,1.76,2-1.09-2.25,1,.28-3.57-5.06,2.08,2.17-3.07-4.91,5.34,7.3,4.65,5.64,2.25,2.12,1.58,2.23,1.78,2.21,4,5.29.06-.2-.81-1.64-3.59-5.37,6.66,8.54-4.65-7.4,3.7,3.68-2.47-4.21-4-7.14-4.93-9.11,5.32,7.28.13,1,5.74,8.64-1.85-3.25-6.23-9.64-4.6-8.13.82.93,2.26,3.19,3.14,4.45-1.85-3.25,1.15.18-1.44-4,.49.68,1,1.44,1.38,2-.12-.28.92,1-1.51-2.33l.6.93c-3.62-4.72-7.12-10.19-9-12.74,6.85,9.55,2,2.16,10.68,14.26-.42-.66-1.52-2.26-3.15-4.46.53.6,1.49,1.87,3.28,4.43-1.1-2-3.76-5.41-3.51-5.48,1.18,1.6,1.59,2.25,2.95,4.14-2.19-3.19-4.38-6.39-3.22-5.15.69,1,1.64,2.21,1.57,2.22-.07-.69-5.62-8.67-3.09-5.88,5,7,1.78,2.21,6.22,8.22L136,121.8l-2.21-2.87c.22,0-2.87-4.49-1.3-2.61l1.72,2.56-.57-1.34-1.83-2.17c-2.13-3.21-5.6-7.61-4.18-6.07.41.64.2,0,2.88,3.46h0c-1.33-2-2.73-4-1.53-2.63l5.82,8c-3.62-5.09-.68-1.65-4.52-7.08.89,1.28,3.21,4.44,3.69,5.08L131,112c1,1.25,1.5,1.88,3.34,4.41.75.6-5.67-7.59-3-4.48.22.35.68,1,1.1,1.6,1.5,1.54-1.44-2.94.27-1.09,4.51,6,.89,1.62,4.71,6.68-.48-1.34-4.65-7.75-3.3-6.56l-.54-.62c-6.24-8.58,3.33,4.06.53-.09.43.66,3.43,4.78,2.74,3.82,1.22,1.22-1.1-2.43-2.75-5.35l1.57,2.22c1.57,1.87,1.16.89,2,1.79-1.57-2.22-1.23-1.93-3.62-5.08,9.6,12.2-4.12-7.3,3.9,2.85a10.8,10.8,0,0,0,.65,1l.47.67a1.52,1.52,0,0,0,.23.29l-1.17-2.26c-2.76-3.7-1.69-2.22-3.89-5.07a33.46,33.46,0,0,1-2.67-4.08c1.67,2.58,4.39,6,6,8L135,107.08c5,6.51-5.47-7.51-2-3.22l1.43,2c-.65-1.06-2.47-3.71-2-3.21,3.2,4.28,1.38,2.07,4,5.63-.05-.35-5.74-8.36-2.47-4.15.83,1.25.76,1.32,1.58,2.56,3.85,5,2.92,3.67,3.6,4.4l-.09-.11,1.9,2.13-1.07-1.33c-8.08-11.35-1.18-2.29-6.36-9.81,4.9,7.12,2.92,4.06,6.49,9,1,1.32,2.25,2.78,3.23,4.17-2.79-4,2.45,3-1.63-2.89,1.16,1.56.22.07,3.1,4-.78-1.34-2-2.72-3.48-4.7-3.73-5.52,5.26,6.16.15-1.42-2-3.22-5.82-8.56-7.52-11.38,1.93,2.46,4.14,5.78,4.14,5.78,1.83,2.22,1.61,1.72.41-.16,1,1.38,1.86,2.53,3.19,4.26-.2-.48-4.13-5.77-2.3-3.54,1.24,1.75,3.17,4.46,4.53,6.39-.94-1.54-3-4.56-3.91-6.06,2,2.72,3,4.21,4.26,6a65.12,65.12,0,0,0-4.62-7.1l-1.23-1.49c-.1-.24,2.76,3.71,3.31,4.52,2.38,3.49-1.27-1.38-2.44-3l-.65-1.07c-6.86-9.16.75,1.73.18,1.32l-4.85-6.76,3.91,5.69c-1.32-1.72-4.09-5.45-4.74-6.51-2.55-3.22,1.64,2.46-1.18-1.16-.43-.56-.66-.89-.85-1.16l1.35,2.08c-1-1.42-3.5-4.72-2.71-3.8-3-3.72,3.35,5.28-.46.26l-.29-.43c1.37,2.49,3.59,5,7.6,10.89l-9.06-12,3.58,5a19.64,19.64,0,0,1-1.92-2.46c2.36,3.45,1.59,2.13,3.86,5.36-3.44-4.38,1.13,2.39-4.66-5.42,2.69,3.77,2.26,2.78,4,5.49-6.23-8.4.88,1.58-2.09-2.19-3.16-4.38-1.34-2.17-4.32-6,5.32,7.42-1.45-1.42-.53.08,4.3,5.86,1.55,2.62,2.79,4.71-1.43-2-2.72-3-4.45-5l-.72-1c4.31,6,3.31,5,4.08,6.29-2.6-3.55-3.6-5-4.69-6.61l-.11.12c1.37,1.92,2.06,3,2.48,3.69l-3.22-4.45c0,.36,3.49,5.46,1.11,2.66,3,4.14,8.6,11.37,10.4,14.29-1.65-2.22-4.46-6-5.07-7,.2.3,1.29,1.9.55,1l-2.66-3.82c-1.31-1.58,2.25,3.17,1.92,2.88-2.34-3.19-1.73-2.23-3.57-4.76-.21-.33,1,1.26.15,0-.51-.51-2-2.31-3.81-4.7,1.34,1.8,3.15,4.29,3.39,4.75,0,.35-2.87-3.79-4.17-5.36,1.58,2.24-.2,0,3.29,4.79a12,12,0,0,1-1-1.25l-1.67-2.22c1.45,2.16,0,.89,3.85,5.88l.26.32.14.22h0c3.19,4.94-2.56-2.27-1.35,0l-1.17-1.6c1.17,1.94.42,1.35,2.81,4.86a3.07,3.07,0,0,1-.39-.45l-.92-1.18c-.73-1-1.62-2.14-2.31-3.1.75,1.29,2,3.09-.06.6-1.91-2.87-1.85-2.43-1.36-2.13-1.18-1.26-3.08-3.78-.07.71-2.93-4.13-3.89-5-3.08-3.77L119,93.78c.35.66,0,.35-.33.07l-3.89-5.4c-5.13-6.28,7.53,11.56-.74.82,2.66,3.82,2.12,2.51,5.26,7-.34-.3-2-2.35-3.52-4.32l-2.09-2.66-.68-.86-.27-.32c-2.4-2.82,5.55,8,3.84,6.11,1.43,1.89,5.2,7,6.36,8.91-.68-.6-6.09-7.89-7.11-9.5-.08-.19.38.41.85,1.06A34.43,34.43,0,0,0,114.12,91l1.39,1.93a52.39,52.39,0,0,1-3.83-4.71,32,32,0,0,0,3.07,4.1c-2.24-2.62-.38.15-2-1.56l1.54,2,.65.88a2.49,2.49,0,0,1,.25.37c-2-2.15,2.53,3.73,2.94,4.72-2.26-2.84-5.07-7-3.48-4.4-1.58-1.89-3.75-5.06-4.85-6.66,2.52,3.83-2.13-2.16-2.73-2.76l-1-1.62c.62,1,.55,1,.49,1l2.87,3.78a18.47,18.47,0,0,1-1.78-2.19c1.78,2.55,4.72,6.33,7.12,9.84-1.51-1.88,1.29,2.26-2.46-2.79,1.51,1.54-3.77-5.09-4.17-6.06.41.64.34.65-.21,0s-.76-1.06-1-1.36c-3.57-4.37,4.1,5.82,3.78,5.88a47,47,0,0,0-3.64-4.75,30,30,0,0,1,2,2.65c1.06,1.47,2.29,3.22,3,4.35-1.79-2.11,1,1.79.78,1.59l.86,1a19,19,0,0,1,2.27,3.54c-1.64-2.22-1-1.6-1.79-2.56,3.58,5.12-4.09-5-1.77-1.49-1.5-1.88-4-5.38-5-6.64,2.54,3.85-3.08-3.77-1-.56,2.88,3.8,2.2,2.86,4.81,6.71l-1.66-3,3.89,5.75c.14,0-1.56-2.57-1-2,2.21,3.21,1.52,2.25,3.91,5.41-4.37-5.68,2.2,3.55-.82-.23l-7-9.53c-3.35-4.07,3.17,5.19,1.11,3l1.31,1.58c2.74,3.82.2.67,1.23,2.27-2.33-3.19-3.24-4.3-4.73-6.25,1.74,2.36-.38,0,4.25,6.33l-3.21-4.1c-1.5-1.54,6.38,9.28,5.35,8.37-2.47-3.52-4.23-5.69-5.89-8.28-.1,0-.6-.51,1,1.7-1.51-2,2.93,4.45.64,1.48,1,1.42,3.43,4.76,3.14,4.56l-1.15-1.57c1.15,1.57,1.43,2.24,4.1,5.71-7.53-9.76-.15,1.21-6.62-7.17a12.94,12.94,0,0,1,1.17,2.72c-.69-1-1.16-1.59-.89-1.28-2.38-2.8,6.58,9.24,3.91,6.11-3.9-5-1.92-2.87-3.42-4.77-7.72-10.45.75,1.65-3.9-4.35l-.41-.64c-2.74-3.47,2.6,4.19,1.85,3.59l-1.16-1.58a83.1,83.1,0,0,1,5.7,9c-2.94-4.15-1.5-2.24-4.59-6.38.34.66,4.93,6.67,5.61,8-1.7-2.2-3.27-4.07-6.55-8.5V101c-4.3-5.68-.07.36-.89-.58l-1.83-2.52c.34,1,5,7.34,4.38,7.09l1.43,1.89c4.45,6.38-2.72-3.44.55,1.33l-4.71-6.33c1,1.61,4.16,6.41,4.87,7.73-3.37-4.79-4.93-7.36-6.86-10.25-.13,0,0,.71,2.27,3.89-.42-.65-1.51-2.24-.75-1.29,3.55,5.09,5.2,7.67,4.92,7.7-9-12.36-2.79-2.73-10-12.21,3,4.81-2.12-1.45-2-.42,7.19,9.5.08.36,7.34,10.2.37.7.22.56-.26-.07l-4.61-5.68c-2.17-2.82-1.5-2.24-3.14-4.45-.76-.6-3.15-4.11-5.21-6.63,2.62,3.5,3.64,5.1,2.53,3.84l3.5,4.43c3.57,5.45-6.32-8.1-2.79-2.69l-2.19-3.17c1.2,1.94-.59.34,5.08,8.37-.86-1.12-2.88-3.79-3.34-4.55-1.22-.93,5.4,9,1.55,4.33l-1.75-2.43c.45.74,3.21,4.61,1.35,2.25-.73-1-1.74-2.43-1.87-2.55.57.86,2.92,4.36,1.8,3L94,98.43c-2.67-2.91,4.31,7,5.24,8.86A106.28,106.28,0,0,0,91.12,97l-.74-1c-1-.59,3.64,6.38,5.31,9.44-5.89-7.54-3.15-2.65-6.7-6.7,1,1.25,4.05,5.54,4.51,6.3-1.14-1.37,3.37,5.1-1.39-1.42l.12.1c-4.75-6.33-3.68-4.5-4-4.58l6.22,8.54c-9.45-12.12,2.38,5.25-6-5.7,1.48,2.2,1.35,2.25,2.82,4.45L88,101.89c-1.09-1-1.67-1.45-1.12-.18L84.56,98.4c-.36-.19,9.45,13.32,9.49,13.7l-5-6.8c-.21.32-4.74-5.57-.51.84-.72-1-2.13-3-2.3-3.31-.26-.09-3.66-4.42,3,5-4.36-6.17-.64-.45,1.13,2.37l-3.17-4.59c4,5.92,5.07,7.53,6,9.25a23.16,23.16,0,0,1-1.7-2.51c-1.75-2.34,2.88,4.42,1.07,2.07l-1.94-3c-.36-.27.72,1.3,3,4.8,1.16,1.91-1-1-3.8-5.22,1.68,2.57,3.86,6,3,4.88-1-1.59-1.66-2.59-2-3.08-2.22-3.08,3.22,5.64.16,1.09l-1.79-2.81a1.27,1.27,0,0,1,.67.58c-2.78-4.31-3.34-5-7.11-11,2.07,3.27,6.43,10.47,5.06,8.48l-1-1.51-.29-.49c-.29-.43,0,0,.39.74-.47-.71-.81-1.23-.87-1.28-2.22-3.63-1.24-1.94-1.37-2.1,2.88,4.83,2.37,4.08,4.78,8a5.3,5.3,0,0,1-.42-.8l-.29-.51.26.42a1.08,1.08,0,0,1-.09-.38c1.45,2.46,2.63,4.55,1,1.9l4.55,7.85c-4.1-6.69-6.31-10.3-8.72-14.49l5.76,11.26c.58,1.22-1.47-2.65-2.25-4.11-.48-1-.38-.82-1.08-2.17,1.21,2.43.29,1,3.6,7.63-1.64-2.91-3-6.09-2.62-4.94l-1-2c-2.75-5.22-.7-1,1,3s3,7.58-.21.74c.4.84.59,1.22,1.09,2.35-1.58-3-1.14-1.45-1-.37s0,1.73-1.94-3.18c-.82-2,.73,2.45,1.8,5.84l-2-5.67,2.08,6.58c.68,2.43-.6-1-1.63-4s-1.85-5.36-.57-.79l1.21,3.85c-.32-.71.33,2.32-.94-2.12.19.71,1.13,4,.5,2l-.86-3Q87.4,120,88,122.61c-.78-2.16-3.25-11.91-3.57-12.49.27,1.16,2,8.76,2.56,10.77.08.14.59,1.86,1.37,4.87l.27,1.57,3.33,13.37C93,145,94.07,148.86,95.17,152l-1.08-5.61,1.29,4.37-.25.33c1.28,4.1.44.42-.12-2.1.66,2.32,1.16,3.94,1.48,4.79-.65-2.89-1.33-5.78-2-8.67,1,3.51,1.79,7,2.61,8.91-1-4-2.4-7.86-2.88-10.53,1.33,4.05,2.26,7.38,1.45,3.85.7,2.31,1.09,3.79,1.3,4.82-.62-2.81.18-1.29-1.17-6.06,1.72,5,.19-1.43,2.83,7-.57-2-1.77-6.7-1.73-7.09,3,10.14.82.43,4.36,11.19-2.81-9.07-.45-4.27-1.83-9.36.24.71.72,2.16.51,1.71.5.68,1.57,3.34,2.36,5-2.71-7.35-3-9.15-4.58-13.72,3,7,3.16,8.65,5.85,15.4-2.29-5.93-1.78-6.1-3.82-11,1.92,4.28,1,2,3.53,8-3.61-9.12-.4-1.62-2.5-7.27,2.14,4.36,3.58,8.46,2.79,5.57A44.38,44.38,0,0,1,105.89,157.57Zm.21-19,.05.1,0,.35C106.18,138.88,106.16,138.77,106.1,138.52Zm.46-.39c-.18-.14-.28-.13-.34,0a34.33,34.33,0,0,1-2-3.28C104.89,135.92,105.6,136.8,106.56,138.13ZM85.38,105.42c-.39-.69.19.25.79,1.24a4.43,4.43,0,0,0,.31.59l.35.59Z" transform="translate(-35.91 -48.43)"/>
      <path class="cls-1" d="M89.14,111.77l.19.36L90,113.2l-.89-1.52Z" transform="translate(-35.91 -48.43)"/>
      <path class="cls-1" d="M124.26,96.49l-.09-.1.49.64Z" transform="translate(-35.91 -48.43)"/>
      <polygon class="cls-1" points="82.69 94.41 81.84 93.26 82.55 94.28 82.69 94.41"/>
      <path class="cls-1" d="M137.58,110.65l.88,1.14Z" transform="translate(-35.91 -48.43)"/>
      <path class="cls-1" d="M139.15,111.06l1.3,1.53C139.73,111.71,139.37,111.3,139.15,111.06Z" transform="translate(-35.91 -48.43)"/>
      <path class="cls-1" d="M141.43,112.84l-1.41-2,0,0Z" transform="translate(-35.91 -48.43)"/>
      <path class="cls-1" d="M135.27,125.56a1,1,0,0,0,.12.22C136,126.7,135.76,126.33,135.27,125.56Z" transform="translate(-35.91 -48.43)"/>
      <path class="cls-1" d="M130.49,112.77,132,115C132.28,115.29,132.39,115.35,130.49,112.77Z" transform="translate(-35.91 -48.43)"/>
      <path class="cls-1" d="M135.92,133.47l0-.08s0,0,0,0Z" transform="translate(-35.91 -48.43)"/>
      <path class="cls-1" d="M131.77,115c.72.86.62.64.2,0C131.7,114.71,131.31,114.29,131.77,115Z" transform="translate(-35.91 -48.43)"/>
      <path class="cls-1" d="M145.69,112.89l.17.16-.54-.73Z" transform="translate(-35.91 -48.43)"/>
      <path class="cls-1" d="M145.32,112.32l-.35-.56S145,111.82,145.32,112.32Z" transform="translate(-35.91 -48.43)"/>
      <path class="cls-1" d="M144.2,110.57l.77,1.19S145.13,111.87,144.2,110.57Z" transform="translate(-35.91 -48.43)"/>
      <path class="cls-1" d="M143.31,111.41l1.2,1.65Z" transform="translate(-35.91 -48.43)"/>
      <path class="cls-1" d="M143.41,112.07c.33.33,2.72,3.39,2.05,2.3l-1-1.31C146.26,115.53,141.43,109.25,143.41,112.07Z" transform="translate(-35.91 -48.43)"/>
      <path class="cls-1" d="M127.43,92.53l1.18,1.16c-1.32-1.73-3.1-4-3.31-4.54C121.2,84.13,128.23,93,127.43,92.53Z" transform="translate(-35.91 -48.43)"/>
      <path class="cls-1" d="M124.91,90.48c-.49-.9-1.87-2.54-2.59-3.54A32.91,32.91,0,0,0,124.91,90.48Z" transform="translate(-35.91 -48.43)"/>
      <path class="cls-1" d="M120.11,94l-3-4.13C117.44,90.49,118.27,91.44,120.11,94Z" transform="translate(-35.91 -48.43)"/>
      <polygon class="cls-1" points="98.92 67.53 100.89 70.03 98.16 66.22 98.92 67.53"/>
      <polygon class="cls-1" points="76.82 38.55 76.43 37.93 77.38 39.53 76.82 38.55"/>
      <path class="cls-1" d="M105.78,94.34l3.75,5.06C108.92,98.45,104.75,92.73,105.78,94.34Z" transform="translate(-35.91 -48.43)"/>
      <path class="cls-1" d="M106.1,102.06c-1.9-2.51-3.19-4.07-1.42-1.53C105,100.82,106.54,102.74,106.1,102.06Z" transform="translate(-35.91 -48.43)"/>
      <polygon class="cls-1" points="53.71 52.99 52.53 51.24 53.44 52.75 53.71 52.99"/>
    </g>
  </g>
  <g id="Layer_1" data-name="Layer 1">
    <path class="cls-2" d="M95.53,124.91" transform="translate(-35.91 -48.43)"/>
    <path class="cls-2" d="M86.94,78.51c11.24,3.34,19.41,13.42,19.41,25.34a25.68,25.68,0,0,1-4,13.83" transform="translate(-35.91 -48.43)"/>
    <path class="cls-2" d="M96.53,124.91a28.08,28.08,0,0,1-16.69,5.44c-15.2,0-27.51-11.87-27.51-26.5,0-12.07,8.37-22.26,19.83-25.46" transform="translate(-35.91 -48.43)"/>
    <path class="cls-2" d="M97.81,127.1" transform="translate(-35.91 -48.43)"/>
    <path class="cls-2" d="M89.34,76a29.57,29.57,0,0,1,20,27.83,29,29,0,0,1-4.66,15.79" transform="translate(-35.91 -48.43)"/>
    <path class="cls-2" d="M97.81,127.1a30.22,30.22,0,0,1-18.46,6.25A29.44,29.44,0,0,1,69,76.15" transform="translate(-35.91 -48.43)"/>
    <path class="cls-2" d="M103.37,81a29.7,29.7,0,0,1,17.48-5.63,29.25,29.25,0,0,1,29.5,29c0,16-13.21,29-29.5,29a29.25,29.25,0,0,1-29.5-29,28.53,28.53,0,0,1,5-16.17" transform="translate(-35.91 -48.43)"/>
    <path class="cls-2" d="M105.33,83.25a26.71,26.71,0,0,1,15.5-4.9c14.64,0,26.52,11.64,26.52,26s-11.88,26-26.52,26-26.52-11.64-26.52-26a25.48,25.48,0,0,1,4.23-14.09" transform="translate(-35.91 -48.43)"/>
    <polygon class="cls-2" points="36.43 17.92 49.68 17.92 52.43 23.92 43.43 32.92 34.43 23.92 36.43 17.92"/>
    <polygon class="cls-2" points="38.43 20.92 48.01 20.92 49.43 22.92 43.43 28.83 37.51 23.48 38.43 20.92"/>
  </g>
</svg>
