<svg id="Layer_1" data-name="Layer 1" xmlns="http://www.w3.org/2000/svg" width="300" height="300" viewBox="0 0 300 300">
  <defs>
    <style>
      .cls-1 {
        fill: #d9c9c1;
      }

      .cls-2 {
        fill: none;
      }

      .cls-2, .cls-3 {
        stroke: #fff;
        stroke-miterlimit: 10;
        stroke-width: 2px;
      }

      .cls-3 {
        fill: #fff;
      }
    </style>
  </defs>
  <g id="Layer_2" data-name="Layer 2">
    <rect class="cls-1" width="300" height="300"/>
  </g>
  <g id="Layer_1-2" data-name="Layer 1">
    <g>
      <path class="cls-2" d="M139.15,213"/>
      <path class="cls-2" d="M117.57,96.4c28.24,8.4,48.76,33.7,48.76,63.65a64.5,64.5,0,0,1-10.15,34.79"/>
      <path class="cls-2" d="M141.66,213a70.51,70.51,0,0,1-41.94,13.65c-38.18,0-69.13-29.81-69.13-66.6,0-30.32,21.05-55.92,49.84-64"/>
      <path class="cls-2" d="M144.9,218.48"/>
      <path class="cls-2" d="M123.59,90.13c29.3,10.2,50.28,37.64,50.28,69.92a72.88,72.88,0,0,1-11.7,39.69"/>
      <path class="cls-2" d="M144.9,218.48a75.88,75.88,0,0,1-46.4,15.7C56.85,234.18,23.1,201,23.1,160c0-31.95,20.57-59.19,49.4-69.6"/>
      <path class="cls-2" d="M158.85,102.6a74.71,74.71,0,0,1,43.92-14.17c40.94,0,74.13,32.61,74.13,72.88s-33.19,72.87-74.13,72.87-74.13-32.62-74.13-72.87a71.72,71.72,0,0,1,12.6-40.63"/>
      <path class="cls-2" d="M163.78,108.29A67.21,67.21,0,0,1,202.73,96c36.8,0,66.63,29.25,66.63,65.33s-29.83,65.33-66.63,65.33-66.6-29.25-66.6-65.33a64,64,0,0,1,10.61-35.4"/>
      <polygon class="cls-2" points="80.9 65.82 114.17 65.82 121.1 80.9 98.48 103.51 75.87 80.9 80.9 65.82"/>
      <polygon class="cls-3" points="85.92 73.36 109.99 73.36 113.56 78.38 98.48 93.23 83.61 79.79 85.92 73.36"/>
    </g>
  </g>
</svg>
