<svg id="Layer_1" data-name="Layer 1" xmlns="http://www.w3.org/2000/svg" width="300" height="300" viewBox="0 0 300 300">
  <defs>
    <style>
      .cls-1 {
        fill: #d9c9c1;
      }

      .cls-2 {
        fill: none;
        stroke: #fff;
        stroke-miterlimit: 10;
        stroke-width: 2px;
      }

      .cls-3 {
        fill: #fff;
      }
    </style>
  </defs>
  <rect class="cls-1" width="300" height="300" rx="17"/>
  <g>
    <path class="cls-2" d="M141,201.66"/>
    <path class="cls-3" d="M128.27,100.92c24,8.36,41.33,30.85,41.33,57.28a59.85,59.85,0,0,1-9.6,32.52l-5-3.8a53.15,53.15,0,0,0,8.36-28.56c0-24.62-16.86-45.43-40-52.27Z"/>
    <path class="cls-2" d="M145.75,206.22"/>
    <path class="cls-3" d="M143.16,201.66a57.25,57.25,0,0,1-34.33,11.09c-31.3,0-56.68-24.46-56.68-54.55,0-24.91,17.17-45.88,40.87-52.41l-6.53-4.56a60.82,60.82,0,0,0-40.57,57.13c0,33.57,27.66,60.77,61.84,60.77a62.74,62.74,0,0,0,38-12.91Z"/>
    <path class="cls-3" d="M161.24,115.81a54.88,54.88,0,0,1,32.06-10c30.24,0,54.55,24,54.55,53.48s-24.47,53.48-54.55,53.48-54.54-24-54.54-53.48a53.26,53.26,0,0,1,8.66-29L142.86,126a58.93,58.93,0,0,0-10.33,33.28c0,33.12,27.19,59.86,60.77,59.86s60.78-26.74,60.78-59.86-27.2-59.86-60.78-59.86a61.42,61.42,0,0,0-36,11.69Z"/>
    <polygon class="cls-2" points="93.33 80.87 120.68 80.87 126.3 93.33 107.76 111.86 89.23 93.33 93.33 80.87"/>
    <polygon class="cls-3" points="97.43 87.25 117.18 87.25 120.22 91.35 107.76 103.36 95.61 92.42 97.43 87.25"/>
  </g>
</svg>
