<svg id="Layer_1" data-name="Layer 1" xmlns="http://www.w3.org/2000/svg" width="200" height="200" viewBox="0 0 200 200">
  <defs>
    <style>
      .cls-1 {
        fill: #d9c9c1;
      }

      .cls-2 {
        fill: none;
      }

      .cls-2, .cls-3 {
        stroke: #fff;
        stroke-miterlimit: 10;
        stroke-width: 2px;
      }

      .cls-3 {
        fill: #fff;
      }
    </style>
  </defs>
  <rect class="cls-1" width="200" height="200"/>
  <g>
    <path class="cls-2" d="M94.12,134"/>
    <path class="cls-2" d="M82.51,71.07c15.22,4.53,26.34,18.19,26.34,34.38a34.77,34.77,0,0,1-5.5,18.79"/>
    <path class="cls-2" d="M95.52,134a38.07,38.07,0,0,1-22.62,7.34c-20.62,0-37.3-16.09-37.3-35.95C35.6,89,46.94,75.22,62.48,70.85"/>
    <path class="cls-2" d="M97.25,137"/>
    <path class="cls-2" d="M85.75,67.67A40.06,40.06,0,0,1,112.9,105.4a39.64,39.64,0,0,1-6.31,21.43"/>
    <path class="cls-2" d="M97.25,137a41.17,41.17,0,0,1-25,8.47c-22.51,0-40.7-17.92-40.7-40A40.07,40.07,0,0,1,58.17,67.88"/>
    <path class="cls-2" d="M104.8,74.41a40.75,40.75,0,0,1,23.7-7.66c22.08,0,40,17.6,40,39.35s-17.92,39.35-40,39.35-40-17.6-40-39.35a38.74,38.74,0,0,1,6.8-21.92"/>
    <path class="cls-2" d="M107.45,77.49a36.23,36.23,0,0,1,21-6.64c19.86,0,35.95,15.76,35.95,35.25s-16.09,35.25-35.95,35.25S92.55,125.59,92.55,106.1A34.85,34.85,0,0,1,98.27,87"/>
    <polygon class="cls-2" points="62.7 54.55 80.68 54.55 84.4 62.7 72.2 74.9 60 62.7 62.7 54.55"/>
    <polygon class="cls-3" points="65.4 58.65 78.41 58.65 80.35 61.35 72.2 69.34 64.16 62.11 65.4 58.65"/>
  </g>
</svg>
