<svg xmlns="http://www.w3.org/2000/svg" width="283.2" height="255.95" viewBox="0 0 283.2 255.95">
  <defs>
    <style>
      .cls-1 {
        fill: none;
      }

      .cls-1, .cls-2 {
        stroke: gray;
        stroke-miterlimit: 10;
      }

      .cls-2, .cls-3 {
        fill: gray;
      }

      .cls-4 {
        font-size: 22.04px;
        fill: #cbb5aa;
        font-family: Baskerville-Italic, Baskerville;
        font-style: italic;
      }

      .cls-5 {
        letter-spacing: -0.04em;
      }
    </style>
  </defs>
  <g id="Layer_2" data-name="Layer 2">
    <g>
      <path class="cls-1" d="M20.65,127.58A117.77,117.77,0,0,1,150.43,23.22C190.69,27.6,218.7,54.85,223,59.42" transform="translate(-8.4 -22.03)"/>
      <path class="cls-1" d="M76,241.12a124.3,124.3,0,0,1-16.53-11,123,123,0,0,1-24.79-26.16c-5-7.16-8.62-12.42-11-20.66A80.17,80.17,0,0,1,20.88,164V140.58c.45-3,1.38-5.65,0-8.26-.18-.34-.76-1.44-1.38-1.38-.85.09-1.45,2.37-1.38,4.13a8.45,8.45,0,0,0,2.76,5.51" transform="translate(-8.4 -22.03)"/>
      <path class="cls-2" d="M20.88,150.22c-.32-.49.41-1.47,1.38-2.75s3.56-4.75,5.5-4.13a2.28,2.28,0,0,1,1.38,1.37,2.24,2.24,0,0,1,0,1.38c-.19.69-.72,1.65-2.75,2.76C24.63,149.81,21.43,151.06,20.88,150.22Z" transform="translate(-8.4 -22.03)"/>
      <path class="cls-2" d="M20.15,151.91c-.45.38-1.52-.22-2.91-1S12.07,148,12.43,146a2.3,2.3,0,0,1,1.19-1.55,2.22,2.22,0,0,1,1.36-.17c.71.09,1.73.5,3.09,2.37C19.25,148.24,20.91,151.25,20.15,151.91Z" transform="translate(-8.4 -22.03)"/>
      <path class="cls-2" d="M20.88,162.62c-.48-.62,1.82-3.18,2.75-4.13a9.5,9.5,0,0,1,4.13-2.76c.37-.1,2.33-.67,2.76,0s-1.06,2.4-1.38,2.76A12.22,12.22,0,0,1,25,161.24C23,162.22,21.22,163.06,20.88,162.62Z" transform="translate(-8.4 -22.03)"/>
      <path class="cls-2" d="M20.63,164.35c-.49.61-3.53-1-4.68-1.68a9.57,9.57,0,0,1-3.67-3.34c-.19-.33-1.21-2.1-.66-2.68s2.58.45,3,.68a12,12,0,0,1,3.66,3.34C19.74,162.42,21,163.91,20.63,164.35Z" transform="translate(-8.4 -22.03)"/>
      <path class="cls-2" d="M22.26,176.39c-.56-.43.41-2.68,1.37-4.13a10,10,0,0,1,2.76-2.76c1.44-1,3.7-1.92,4.13-1.37s-.45,1.46-1.38,2.75A17.42,17.42,0,0,1,25,175C23.72,175.94,22.66,176.7,22.26,176.39Z" transform="translate(-8.4 -22.03)"/>
      <path class="cls-2" d="M22.14,179c-.43.69-3.68.53-5.86.08a12.34,12.34,0,0,1-4.37-1.73c-1.65-1.08-3.51-3-2.88-3.56.45-.45,2.06-.07,4,.39a22.6,22.6,0,0,1,6.56,2.6C21.17,177.7,22.46,178.48,22.14,179Z" transform="translate(-8.4 -22.03)"/>
      <path class="cls-2" d="M27.76,192.92c-.65-.16-.9-3,0-5.51a14.68,14.68,0,0,1,2.76-4.13,17.24,17.24,0,0,1,2.75-2.76c.89-.69,2.23-1.75,2.76-1.37s0,2.75,0,2.75h0a21.84,21.84,0,0,1-4.13,6.89c-1,1.05-1.48,1.26-2.76,2.75C28.29,192.54,28,193,27.76,192.92Z" transform="translate(-8.4 -22.03)"/>
      <path class="cls-2" d="M27.76,194.3c.23-1.12-2.19-2.45-2.75-2.76a12.86,12.86,0,0,0-5.51-1.38c-2.13-.17-2.18.15-5.51,0-1.83-.07-2.7-.21-2.75,0s1.84.9,5.51,2.76c1.29.65,1.63.88,2.75,1.38a12,12,0,0,0,4.13,1.37C25.27,195.78,27.56,195.3,27.76,194.3Z" transform="translate(-8.4 -22.03)"/>
      <path class="cls-2" d="M36,205.31c-.9-.78-.41-2.62,0-4.13a17.22,17.22,0,0,1,2.75-5.51c1.35-1.89,3.57-4.47,4.13-4.13.2.12.1.53,0,1.38a31.15,31.15,0,0,0,0,4.13,11.38,11.38,0,0,1-1.37,5.51,5.64,5.64,0,0,1-2.76,2.75C38.52,205.42,36.89,206.06,36,205.31Z" transform="translate(-8.4 -22.03)"/>
      <path class="cls-2" d="M36.59,208.86c-.55,1.06-2.46,1-4,1a17.24,17.24,0,0,1-6-1.39c-2.15-.86-5.19-2.42-5-3.05.07-.22.49-.21,1.34-.32a29.25,29.25,0,0,0,4-1,11.44,11.44,0,0,1,5.68.05,5.64,5.64,0,0,1,3.32,2C36.1,206.41,37.11,207.85,36.59,208.86Z" transform="translate(-8.4 -22.03)"/>
      <path class="cls-2" d="M45.67,217.71c-.35-.23-.1-.85,0-2.76.15-2.81-.3-2.86,0-4.13.39-1.66,1.47-2.79,2.75-4.13,1.69-1.77,2.33-1.65,2.76-2.75.74-1.92-.64-3.67,0-4.14s1.9.33,2.75,1.38c2.23,2.75.32,7.48,0,8.27-.94,2.34-2.32,3.71-4.13,5.5C49.11,215.64,46.48,218.25,45.67,217.71Z" transform="translate(-8.4 -22.03)"/>
      <path class="cls-2" d="M45.08,217.91c0,.41-.72.48-2.46,1.24-2.59,1.12-2.44,1.55-3.7,1.85-1.67.39-3.16-.07-4.93-.62-2.33-.72-2.51-1.34-3.69-1.23-2.05.2-3,2.21-3.7,1.85s-.56-1.85,0-3.08c1.46-3.22,6.55-3.63,7.39-3.7,2.52-.2,4.36.42,6.78,1.23C41.69,215.76,45.2,216.94,45.08,217.91Z" transform="translate(-8.4 -22.03)"/>
      <path class="cls-2" d="M55.31,226c-.91-.43-.37-3.43,0-5.51s.54-3,1.38-4.13c1-1.3,1.67-1.17,2.75-2.75a19.84,19.84,0,0,0,1.38-2.76c1-2.24,1.1-2.75,1.38-2.75.64,0,1.55,2.74,1.37,5.51s-1.46,4.88-2.75,6.88S56.5,226.53,55.31,226Z" transform="translate(-8.4 -22.03)"/>
      <path class="cls-2" d="M34.45,233.85c-.36-1.07,2.46-3,4.41-4.34s2.84-1.95,4.38-2.17c1.79-.26,2.24.4,4.35,0a22.9,22.9,0,0,0,3.27-1.08c2.59-1,3.06-1.3,3.28-1.09.5.51-1,3.39-3.34,5.43s-5,2.69-7.66,3.25S34.92,235.23,34.45,233.85Z" transform="translate(-8.4 -22.03)"/>
      <path class="cls-1" d="M128.31,257.65l-1.43-.16a57.61,57.61,0,0,1-11-2.59,49.24,49.24,0,0,1-15.15-8.27,59,59,0,0,1-11-12.39c-4.07-5.71-5.24-9-9.64-12.4-2.91-2.27-5.51-4.13-5.51-4.13-3.25-2.33-4-2.71-5.51-4.13A18.07,18.07,0,0,1,65,208.07c-.89-2-1-3.27-1.38-6.89-.78-6.87-1.55-11-1.37-11A33.59,33.59,0,0,0,65,199.8a68.48,68.48,0,0,0,4.13,6.89c.25.39,1.43,2.21,2.76,4.13,3.55,5.13,7.4,9.77,9.64,12.4" transform="translate(-8.4 -22.03)"/>
      <path class="cls-1" d="M90.33,233.53c.45-.23-.71-2.39-1.15-6.76-.24-2.4,0-3.06.19-9.43.12-3.8.18-5.7.13-6.73-.32-6-2-10.89-2.36-10.82s.32,2.06-.11,5.39a21.86,21.86,0,0,1-1.34,5.23l0,.13a21.52,21.52,0,0,0-1.39,5.36,20.5,20.5,0,0,0-.08,4,21.2,21.2,0,0,0,1.18,5.41C86.89,229.73,89.7,233.84,90.33,233.53Z" transform="translate(-8.4 -22.03)"/>
      <path class="cls-1" d="M103.51,249.39c0-.3-1.89-.24-5.5-1.38-1.74-.55-5.89-2.35-11-6.89-3-2.6-3.89-3.23-6.89-5.51a44,44,0,0,0-6.89-4.13c-2.89-1.42-4.77-2-6.88-4.13-.62-.63-1.3-1.44-1.38-1.38a46.74,46.74,0,0,0,2.76,4.13c2.77,4.15,2.53,4.65,4.13,6.89a30,30,0,0,0,9.64,8.26A32.22,32.22,0,0,0,87,248C95.2,251.12,103.47,250,103.51,249.39Z" transform="translate(-8.4 -22.03)"/>
      <path class="cls-1" d="M257.77,126.81a29.27,29.27,0,0,0,0-12.4c-1.62-7.12-4.9-7.88-6.89-16.52a55.49,55.49,0,0,1-1.37-11,71,71,0,0,0,0-8.27c-.59-6.64-2.21-7.9-2.76-8.26-1.64-1.08-2.87-.16-4.13-1.38-1.82-1.75-1.8-5.92,0-6.88,1.22-.66,3.12.22,4.13,1.37,1.46,1.67,1.53,4.46,0,6.89" transform="translate(-8.4 -22.03)"/>
      <path class="cls-1" d="M249.51,89.62c-.9-1.15-2.38-3.07-4.14-5.51-4.64-6.45-6.67-10.23-11-13.77-3.15-2.56-4.74-2.74-5.51-2.75-1.75,0-2.92.77-4.14,0a3.32,3.32,0,0,1-1.37-2.76,3.2,3.2,0,0,1,1.37-2.75,2.9,2.9,0,0,1,2.76,0c1.45.78,2.13,3,1.38,5.51" transform="translate(-8.4 -22.03)"/>
      <path class="cls-1" d="M249.51,93.75c.45-.58-1.72-3-2.76-4.13a27.79,27.79,0,0,0-6.89-5.51,13.49,13.49,0,0,0-4.13-1.37c-.83-.14-1.25-.2-1.37,0s.31,1,5.5,5.51a30,30,0,0,0,5.51,4.13C246,92.73,249,94.36,249.51,93.75Z" transform="translate(-8.4 -22.03)"/>
      <path class="cls-1" d="M257.77,111.66a21.18,21.18,0,0,1,0-2.76c.22-3.42,1.16-4.74,1.38-8.26V91c0-.81-.1-1.36,0-1.38s.78,2,1.37,4.13a46.07,46.07,0,0,1,1.38,5.51,15.79,15.79,0,0,1,0,5.51A13,13,0,0,1,257.77,111.66Z" transform="translate(-8.4 -22.03)"/>
      <path class="cls-1" d="M257.77,126.81A32.68,32.68,0,0,0,255,121.3c-3.23-5.16-5.67-5.73-9.64-11-3.65-4.86-5.44-9.51-4.13-11a12.48,12.48,0,0,0,1.38-1.37c.79-1,1.43-1.77,1.38-2.76a3.11,3.11,0,0,0-2.76-2.75,2.92,2.92,0,0,0-2.75,1.37c-.77,1.45.14,4,2.75,5.51" transform="translate(-8.4 -22.03)"/>
      <path class="cls-1" d="M257.77,126.81c.49-.78-1.18-3-2.76-4.13s-2.34-.92-6.88-2.76a9.65,9.65,0,0,1-2.76-1.37c-2.07-1.73-2.37-4.21-2.75-4.14s-.58,2.22,0,4.14C244.67,125.31,256.71,128.49,257.77,126.81Z" transform="translate(-8.4 -22.03)"/>
      <path class="cls-1" d="M246.75,188.79a75.11,75.11,0,0,0,5.51-12.4c1.69-5,4.46-13.12,4.13-23.41-.26-8.3-2.38-13.23,0-22a38.34,38.34,0,0,1,1.38-4.13" transform="translate(-8.4 -22.03)"/>
      <path class="cls-1" d="M252.26,175c-.58.35-2.88-1.53-4.13-4.13-1.75-3.62-.86-7.39,0-11,.78-3.31,2.18-7,2.75-6.88.36.08.19,1.6,0,8.26a50.64,50.64,0,0,0,0,6.89C251.4,172.43,252.82,174.68,252.26,175Z" transform="translate(-8.4 -22.03)"/>
      <path class="cls-1" d="M255,166.75a63.36,63.36,0,0,0,4.14-5.51c1.75-2.61,2.25-3.77,4.13-6.89,2.53-4.19,3.79-6.29,5.51-8.26,2.14-2.46,4.44-5.1,8.26-6.89s7.77-1.95,8.26-4.13c.25-1.08-.53-1.71,0-2.75a3.38,3.38,0,0,1,4.14-1.38,2.94,2.94,0,0,1,1.37,1.38,3.2,3.2,0,0,1-1.37,4.13,3.1,3.1,0,0,1-4.14-1.38" transform="translate(-8.4 -22.03)"/>
      <path class="cls-1" d="M259.15,161.24a66.7,66.7,0,0,0,2.75-9.64c.65-3.2.56-4,1.38-6.89a27.26,27.26,0,0,1,4.13-8.26,7.5,7.5,0,0,1,1.38-1.38c1.22-.89,1.85-.63,2.75-1.37a3.84,3.84,0,0,0,1.38-2.76,3.31,3.31,0,0,0-1.38-2.75c-1.39-.77-3.32.12-4.13,1.37-1,1.53-.53,4,1.38,5.51" transform="translate(-8.4 -22.03)"/>
      <path class="cls-1" d="M260.52,159.86s6.75-1.43,11-5.51c1.23-1.17,1.89-2.21,4.13-4.13.76-.65,1.48-1.2,1.38-1.37s-1.62.46-4.13,1.37c-2.87,1.05-3.05.92-4.13,1.38C263.58,153.81,260.53,159.86,260.52,159.86Z" transform="translate(-8.4 -22.03)"/>
      <path class="cls-1" d="M226.09,219.09a32.67,32.67,0,0,0,8.27-9.64,33.29,33.29,0,0,0,4.13-16.53c0-13.65-7.75-23.36-9.64-24.79a6,6,0,0,1-1.38-1.38c-1.11-1.58-.59-2.61-1.38-4.13a4.92,4.92,0,0,0-4.13-2.76,3.68,3.68,0,0,0-2.75,1.38,3.56,3.56,0,0,0,0,4.13c.75,1,1.94,1.13,4.13,1.38a18.07,18.07,0,0,0,4.13,0" transform="translate(-8.4 -22.03)"/>
      <path class="cls-1" d="M233,172.26a5.72,5.72,0,0,1-1.38-4.13,4.91,4.91,0,0,1,2.76-4.13,3.08,3.08,0,0,1,2.75,0c1.36,1,1,3.77,0,5.5a6.31,6.31,0,0,1-4.13,2.76" transform="translate(-8.4 -22.03)"/>
      <path class="cls-1" d="M231.78,172.63a5.72,5.72,0,0,1-2.84,3.31,5,5,0,0,1-5-.25c-.23-.17-1.51-1.13-1.41-2.36.12-1.66,2.71-2.82,4.72-2.83a6.32,6.32,0,0,1,4.49,2.13" transform="translate(-8.4 -22.03)"/>
      <path class="cls-1" d="M237.8,184.77c-.4-.35-.05-1.43.66-3.58,1-3,1.59-3.64,2.22-4a2.52,2.52,0,0,1,1.56-.45,3.08,3.08,0,0,1,2.47,2.68c.22,2.12-2.47,3.7-3.79,4.48C240.19,184.3,238.43,185.34,237.8,184.77Z" transform="translate(-8.4 -22.03)"/>
      <path class="cls-1" d="M236.66,184.33c-.21.49-1.34.51-3.6.52-3.15,0-4-.34-4.53-.82a2.46,2.46,0,0,1-.93-1.33,3.09,3.09,0,0,1,1.75-3.2c1.94-.88,4.3,1.16,5.46,2.16C235.45,182.22,237,183.55,236.66,184.33Z" transform="translate(-8.4 -22.03)"/>
      <path class="cls-1" d="M238.49,194.3a7.81,7.81,0,0,1,2.75-4.14,7.47,7.47,0,0,1,2.76-1.37c1-.27,2.08-.54,2.75,0,1,.79.58,2.9,0,4.13a6.55,6.55,0,0,1-2.75,2.75c-1.39.89-4.49,2.43-5.51,1.38C237.93,196.48,238.21,195.36,238.49,194.3Z" transform="translate(-8.4 -22.03)"/>
      <path class="cls-1" d="M235,196.93a7.8,7.8,0,0,1-4.29-2.5,7.33,7.33,0,0,1-1.54-2.67c-.33-1-.66-2-.17-2.75.73-1,2.86-.75,4.13-.25a6.64,6.64,0,0,1,2.91,2.59c1,1.33,2.69,4.33,1.71,5.42C237.23,197.36,236.09,197.14,235,196.93Z" transform="translate(-8.4 -22.03)"/>
      <path class="cls-1" d="M234.6,208.54c-1,.9-3.59-.46-4.78-1.34a7.68,7.68,0,0,1-3-4.82c-.14-.91-.33-2.23.46-3,1.06-1.09,3.2-.58,4.36,0a5.46,5.46,0,0,1,2.15,2.2,7.2,7.2,0,0,1,.85,2.62C235.05,206.41,235.33,207.91,234.6,208.54Z" transform="translate(-8.4 -22.03)"/>
      <path class="cls-1" d="M236.08,209.76c-.83-1.11.69-3.55,1.65-4.68a7.63,7.63,0,0,1,5-2.69c.91-.08,2.25-.19,3,.65,1,1.13.37,3.23-.32,4.35a5.4,5.4,0,0,1-2.33,2,7.31,7.31,0,0,1-2.67.68C238.17,210.35,236.66,210.54,236.08,209.76Z" transform="translate(-8.4 -22.03)"/>
      <path class="cls-1" d="M128.31,257.65c4.59.23,10.71.35,17.9,0,6-.29,10.35-.8,15.15-1.38,0,0,20.16-2.43,28.92-8.26a8.46,8.46,0,0,0,2.76-2.76c1.09-1.85.76-3.13,1.37-5.5a14.08,14.08,0,0,1,2.76-5.51c2.15-2.47,5-3.25,8.26-4.14,3.46-.94,4.23-.49,6.89-1.37a19.19,19.19,0,0,0,6.89-4.13" transform="translate(-8.4 -22.03)"/>
      <path class="cls-1" d="M195.05,237.68c.12-.21,0-3.11,0-4.13,0-1.38.1-2.93,0-4.13-.22-2.75-1.84-2.59-2.3-5.51-.35-2.24.4-2.75,0-5.51-.3-2.05-.73-1.92-1.15-4.13a19.22,19.22,0,0,1,0-6.89,19.49,19.49,0,0,1,1.15-4.13" transform="translate(-8.4 -22.03)"/>
      <path class="cls-1" d="M149,257.65a21.29,21.29,0,0,0,4.14,4.13c1.19.9,3.87,2.72,9.64,4.13,2,.5,5,1.09,12.39,1.38,3.52.14,8.21.22,13.78,0" transform="translate(-8.4 -22.03)"/>
      <path class="cls-1" d="M169.62,254.9a14.46,14.46,0,0,0,5.51-4.14,12.21,12.21,0,0,0,2.76-5.51c.61-3.26-.76-5-1.38-8.26a19.35,19.35,0,0,1,1.38-11" transform="translate(-8.4 -22.03)"/>
      <path class="cls-2" d="M177.89,226c-2.7-1-2.88-7.5-1.38-8.26.69-.35,1.61.56,2.75,0,.93-.45,1.16-1.45,1.38-1.38.48.15-1.24,4.6,0,5.51s3.88-1.69,4.13-1.38S180.84,227.05,177.89,226Z" transform="translate(-8.4 -22.03)"/>
      <path class="cls-2" d="M177.89,239.75c5-6.79,6.61-8.45,6.88-8.27s-2.38,4.62-1.37,5.51,3.88-1.71,4.13-1.38-2,3.28-5.51,4.14a9.12,9.12,0,0,1-4.13,0" transform="translate(-8.4 -22.03)"/>
      <path class="cls-2" d="M161.36,256.27c-.37-.34,1-1.69,1.38-4.13.35-2.29-.41-4,0-4.13s1.8,3,2.75,2.75c1.19-.24,1-5.5,1.38-5.51s.16,5.24,1.38,5.51,3.3-5.75,4.13-5.51c.67.21,1,4.67-1.38,6.89-1.66,1.53-3.17.64-6.89,2.76C162.67,255.72,161.67,256.55,161.36,256.27Z" transform="translate(-8.4 -22.03)"/>
      <path class="cls-2" d="M172.79,266.57c0-.25,2.61-.05,4-1.78,1.61-2,.44-5.54.83-5.61s.75,2.55,1.64,2.6c.66,0,.88-1.4,2.47-3,1.06-1.07,2.39-1.85,2.61-1.64.39.39-2.83,3.85-2.34,4.39s3.64-2.16,4-1.78-2.08,4.37-6.32,6.16C176.22,267.34,172.82,266.84,172.79,266.57Z" transform="translate(-8.4 -22.03)"/>
      <path class="cls-2" d="M188.91,267.29c-.47-2.74,5.68-5.12,6.88-5.51.55-.17,1.1-.28,1.38,0,.07.08.3.35,0,1.38-.51,1.75-1.51,2.16-1.38,2.75.25,1.12,4.13,1.06,4.13,1.38s-5.35.37-5.51,1.38,4.29,2.06,4.14,2.75c-.11.47-2.27.55-4.14,0a9.42,9.42,0,0,1-2.75-1.37C190.05,268.94,189.08,268.28,188.91,267.29Z" transform="translate(-8.4 -22.03)"/>
      <path class="cls-2" d="M154.47,261.78c-.21-.84,2.11-2.64,4.14-2.75.28,0,.37,0,1.37,0,1.86,0,2.73-.14,2.76,0s-2.77.75-2.76,1.37,4.15,1,4.13,1.38C164.1,262.36,154.87,263.33,154.47,261.78Z" transform="translate(-8.4 -22.03)"/>
      <path class="cls-2" d="M192.74,203a4.87,4.87,0,0,0-.59-2.69c-1-1.66-2.49-1.62-3.59-3.44-.67-1.12-.92-2.5-.59-2.69.71-.41,4.06,5,5.22,4.49.9-.43-.27-4.09.45-4.33.45-.16,1.47,1.06,1.94,2.39.54,1.5.13,2.43.6,2.69.92.49,3.13-2.62,3.74-2.24.38.24,0,1.81-.75,3C197.41,202.8,193.74,203,192.74,203Z" transform="translate(-8.4 -22.03)"/>
      <path class="cls-2" d="M193,217.71c-.68-.64.58-3,1.37-4.13.51-.73,1.17-1.49,1.38-1.38s-.28,1.16,0,1.38c.58.43,3.75-3.07,4.13-2.76s-2.11,3.15-1.37,4.13,3.64-.74,4.13,0-1.84,4.27-4.13,4.14c-1.4-.09-2.11-1.47-4.14-1.38C193.65,217.74,193.3,218,193,217.71Z" transform="translate(-8.4 -22.03)"/>
      <path class="cls-2" d="M196.72,243.71a5.67,5.67,0,0,1,3.63-1.4c.13,0,1.12.1,1.26.56s-.64.81-.56,1.26c.14.76,2.48.74,2.52,1.12.05.58-5.39,1.09-5.45,2.1-.07,1.2,7.65,2.29,7.55,3.35,0,.44-1.46.65-1.81.7-3.05.43-4.33-1.11-9.38-2.65-1.68-.51-2.39-.6-2.51-1.11C191.88,247.28,192.11,246.9,196.72,243.71Z" transform="translate(-8.4 -22.03)"/>
      <path class="cls-2" d="M219.21,224.6c-.65-.68,2-2.84,2.75-6.89.65-3.63-.64-6.69,0-6.89.4-.13,1.15,1,1.38,1.38,1,1.52.76,2.53,1.37,2.75.93.35,2.18-1.7,2.76-1.37.25.14.19.64,0,2.75s-1.57,2.41-1.38,2.76c.7,1.21,4.07.87,4.13,1.37s-2.83,1.14-6.88,2.76C220.61,224.31,219.59,225,219.21,224.6Z" transform="translate(-8.4 -22.03)"/>
      <path class="cls-2" d="M208.68,230.3c-.42,1.25,2.89,3.41,5.94,5.4,2.37,1.55,4.86,2.81,5.13,2.44s-3.88-3.66-3.24-4.87c.54-1,4.11.12,4.33-.53.13-.41-1.11-1.27-2.43-1.9C214.51,229,209.16,228.85,208.68,230.3Z" transform="translate(-8.4 -22.03)"/>
      <path class="cls-2" d="M160.2,265.72c-.43.4.56,1.57.26,4a20.82,20.82,0,0,1-.65,2.46c-.62,2.61-.47,5.19-.07,5.26s1-3.32,2.21-3.37c1,0,1.52,2,2.14,1.88s.77-2,1-3.7c.09-.76.09-1,.32-1.23.94-.8,3.53,1.2,3.7,1C169.4,271.61,161.34,264.67,160.2,265.72Z" transform="translate(-8.4 -22.03)"/>
      <path class="cls-3" d="M147,253a1.5,1.5,0,0,0,0-3,1.5,1.5,0,0,0,0,3Z" transform="translate(-8.4 -22.03)"/>
      <path class="cls-3" d="M132.43,263.85a1.5,1.5,0,0,0,0-3,1.5,1.5,0,0,0,0,3Z" transform="translate(-8.4 -22.03)"/>
      <path class="cls-3" d="M126.06,254.87a.75.75,0,0,0,0-1.5.75.75,0,0,0,0,1.5Z" transform="translate(-8.4 -22.03)"/>
      <path class="cls-3" d="M139.34,256.2a.75.75,0,0,0,0-1.5.75.75,0,0,0,0,1.5Z" transform="translate(-8.4 -22.03)"/>
      <path class="cls-3" d="M146.77,262.42a1.13,1.13,0,0,0,0-2.25,1.13,1.13,0,0,0,0,2.25Z" transform="translate(-8.4 -22.03)"/>
      <path class="cls-3" d="M20.74,134.16a1.81,1.81,0,0,0,.51-1.28,1.66,1.66,0,0,0-.44-1.06,1.5,1.5,0,0,0-2.56,1.06,29,29,0,0,0,.55,4.83l-.06-.4a5,5,0,0,1,.06.77,1.5,1.5,0,0,0,1.5,1.5,1.54,1.54,0,0,0,1.5-1.5,12,12,0,0,0-.22-1.89c-.09-.55-.18-1.11-.26-1.66l.06.4a12.83,12.83,0,0,1-.13-2.05h-3v.06l.06-.4.31-.5a1.59,1.59,0,0,0-.44,1.06,1.5,1.5,0,0,0,.44,1.06,1.52,1.52,0,0,0,2.12,0Z" transform="translate(-8.4 -22.03)"/>
    </g>
    <text class="cls-4" transform="translate(72.18 109.25)">ESPERANCE <tspan x="3.4" y="26.44">B</tspan><tspan class="cls-5" x="16.48" y="26.44">L</tspan><tspan x="27.59" y="26.44">OMSTER</tspan></text>
  </g>
</svg>
