<?xml version="1.0" encoding="utf-8"?>
<!-- Generator: Adobe Illustrator 25.0.1, SVG Export Plug-In . SVG Version: 6.00 Build 0)  -->
<svg version="1.1" id="Layer_1" xmlns="http://www.w3.org/2000/svg" xmlns:xlink="http://www.w3.org/1999/xlink" x="0px" y="0px"
	 viewBox="0 0 300 300" style="enable-background:new 0 0 300 300;" xml:space="preserve">
<style type="text/css">
	.st0{fill:#D9C9C1;}
	.st1{fill:#FFFFFF;stroke:#FFFFFF;stroke-miterlimit:10;}
</style>
<g id="Layer_2_1_">
	<rect x="-0.8" y="-0.8" class="st0" width="300" height="300"/>
</g>
<g id="Layer_1_1_">
	<g>
		<polygon class="st1" points="116.7,162.6 116.7,178.8 118.8,164.8 132.1,162.6 		"/>
		<polygon class="st1" points="107.5,154.2 107.5,122.7 119,122.7 119,154.2 166,154.2 158.1,157.7 115.8,157.7 116,126.2
			111,126.2 111,157.7 63.3,157.7 63.3,162.4 111.2,162.4 111,260.2 107.5,263 107.5,166.2 59.1,166.2 59.1,154.5 		"/>
		<path class="st1" d="M91.4,76.3c-0.1-1.1,1.7-2.1,2.8-2.8c1.3-0.7,2.7-1.2,4.2-1.4c1.6-0.3,3.3-0.3,4.9,0c1.5,0.3,2.9,0.7,4.2,1.4
			c1.9,0.9,2.8,1.4,3.5,2.1c0.6,0.7,1.3,1.1,2.1,1.4c0.5,0.1,0.6,0.1,0.7,0c0.5-0.4-0.6-2.5-0.7-2.8c-1.9-3.4-5.3-5.7-9.1-6.3
			c-1.2-0.1-2.3-0.1-3.5,0c-1,0.1-1.9,0.4-2.8,0.7c-1,0.4-1.9,0.8-2.8,1.4c-1.5,0.9-1.4,1.2-2.8,2.1c-0.9,0.6-1.8,1-2.8,1.4
			c-2,0.7-3.1,0.6-3.5,1.4c-0.2,0.5-0.2,1,0,1.4c0.4,1,1.4,0.9,3.5,2.1c0.7,0.4,1.4,0.9,2.1,1.4c0.8,0.6,1.5,1.3,2.1,2.1
			c2,2.4,3.4,5.8,4.2,7.7c0.9,2.1,1.9,4.2,2.8,6.3c2.6,6.1,4,9.1,4.9,10.5c1.8,3,4.2,5.6,7,7.7c1.5,1.1,2.9,1.8,7,3.5
			c6,2.4,11.1,4.2,15.4,5.6c7.2,2.4,8.6,2.7,11.9,4.2c5.1,2.3,7.4,4.1,8.4,4.9c2,1.7,3.9,3.6,5.6,5.6c0.8,0.9,2.8,3.5,2.8,3.5
			c0.8,0.6,1.5,1.4,2.1,2.1c0.5,0.7,1,1.4,1.4,2.1c1,1.6,1.2,2.2,1.4,2.1c0.4-0.1,0-2.7,0-2.8c-0.4-2.6-2.3-9.7-9.8-16.1
			c-3.5-3-6.7-4.5-10.5-6.3c-3.6-1.7-6.8-2.8-13.3-4.9c-6.9-2.3-7.6-2.3-10.5-3.5c-3.9-1.7-7.2-3.1-10.5-6.3c-1.9-1.9-3.5-4-4.9-6.3
			c-1.3-2.3-2.5-4.6-3.5-7c-0.5-1.2-0.9-2.3-1.4-3.5c-1.6-4.1-1.5-4.3-2.1-5.6c-0.9-2.2-2.4-4.1-4.2-5.6
			C94.5,77.4,91.5,77.7,91.4,76.3z"/>
		<path class="st1" d="M122.3,76.3c-0.2-0.4,2.2-1.7,7-5.6c1.6-1.3,3.4-2.8,5.6-4.9c2.2-2.1,2.7-2.9,4.9-4.9
			c1.3-1.3,2.7-2.5,4.2-3.5c2-1.3,3.1-1.5,9.8-3.5c6.3-1.9,7.5-2.4,8.4-2.8c2.2-1,4.3-2.2,6.3-3.5c0.9-0.6,2-1.4,7-5.6
			c4.4-3.7,6-5.2,6.3-4.9s-0.5,1.5-1.4,2.8c-1.2,2-2.6,3.9-4.2,5.6c-2.2,2.4-4.3,4-8.4,7c-3.1,2.3-4.7,3.5-6.3,4.2
			c-1.8,0.8-3.6,1.2-7,2.1c-4.7,1.2-5.5,1-7.7,2.1c-1.5,0.8-2.9,1.7-4.2,2.8c-1.9,1.4-2.9,2.4-4.2,3.5c-4.2,3.7-6.3,5.5-9.1,7
			C126,75.9,122.5,76.8,122.3,76.3z"/>
		<path class="st1" d="M163,64.4c-0.1-0.3,0.8-0.9,5.6-3.5c3.6-2,4.1-2.2,4.9-2.8c1.8-1.1,3.5-2.6,4.9-4.2c1.2-1.5,2.1-3.1,2.8-4.9
			c1.3-3.6,0.9-6.3,1.4-6.3c0.5,0,1.2,2.5,1.4,4.2c0.3,1.4,0.3,2.8,0,4.2c-0.4,1.5-1.1,3-2.1,4.2c-1.2,1.7-1.7,1.7-2.8,3.5
			c-0.6,0.9-1,1.8-1.4,2.8c-0.5,1.5-0.4,2.2-0.7,3.5c-0.4,1.8-1.1,3.4-2.1,4.9c-1.2,1.6-2.6,3-4.2,4.2c-0.8,0.5-1.6,1.3-2.1,2.1
			c-0.5,0.9-0.4,1.5-0.7,2.8c-0.3,1.4-0.8,2.8-1.4,4.2c-0.6,1.5-1.3,2.9-2.1,4.2c-1.5,2.4-3.4,4.6-5.6,6.3c-1.5,1.1-3.2,2.1-4.9,2.8
			c-2.4,1-4.4,1.1-7,1.4c-2.7,0.3-4.9,0.5-7.7,0c-3.7-0.6-7.2-2.3-7-2.8c0.1-0.4,2.4,0.2,6.3,0c3.4-0.2,6.7-0.9,9.8-2.1
			c2.6-1,4.3-2.1,7.7-4.2c4.5-2.8,5.9-4.4,6.3-4.9c1.1-1.3,2-2.7,2.8-4.2c0.5-0.7,0.9-1.2,0.7-1.4c-0.3-0.4-2.1,0.7-4.9,1.4
			c-1.6,0.4-3.3,0.6-4.9,0.7c-2.7,0.2-4.3,0.4-6.3,0c-2.4-0.4-5-1.5-4.9-2.1c0.1-0.5,2.1-0.3,6.3-0.7c3-0.3,5.2-0.5,7.7-1.4
			s4.2-2.1,6.3-3.5c2.6-1.8,4.9-3.9,7-6.3c2.5-2.8,3-3.2,2.8-3.5c-0.4-0.6-2.7,0.8-7,1.4C167.3,64.5,163.2,65.1,163,64.4z"/>
		<path class="st1" d="M130.7,111.4c-0.2-0.3,3.2-3.6,7.7-6.3c8.3-5.5,18.7-6.8,28.1-3.5c2,0.6,5.8,2.5,13.3,6.3
			c6,3,7.5,3.9,11.2,5.6c4.2,1.9,6.9,3.1,10.5,4.2c3.7,1.1,7.4,1.8,11.3,2.1h7.7l-2.1,5.6h8.8l-2.5,6.3h9.4l-3.1,6.3h9.8
			c-18.4,48.1-31.2,81.8-34.4,90.5c-0.2,0.5-1.4,4-3.5,8.4c-3.5,7.4-7.8,14.3-8.4,14c-0.4-0.2,1.1-3.8,4.9-13.3c3-7.7,5.4-14,7-18.2
			l28.1-77.2h-4.9c-16.8,48.2-29.4,83.2-31.6,88.4c-0.2,0.4-1,2.5-2.1,4.9c-1.2,2.9-2.6,5.7-4.2,8.4c-1.2,2.1-1.5,3-3.5,6.3
			c-1.3,2.3-2,3.6-2.1,3.5c-0.1-0.1,0.6-2.1,2.8-7.7c1.2-3,2.9-7.1,4.9-11.9l33.7-98.3h-4.2c-22.9,67.4-32.3,95.4-33.7,99.7
			c-0.8,2.5-1.2,3.8-2.1,6.3c-1.3,3.9-2,6-2.8,7.7c-1.9,4.4-4.5,8.6-4.9,8.4c-0.4-0.2,0.7-2.7,2.8-8.4c0,0,1.1-3,5.6-16.1
			c1.4-4.1,3.4-10.1,5.6-17.6l26.7-85.6H217l-37.2,116.5c-0.6,1.9-1.3,3.8-2.1,5.6c-1,2.1-2.4,4.1-4.2,5.6c-4.6,4-10.2,4.2-11.9,4.2
			c-6.5,0.1-11.3-3-13.3-4.2c-3.9-2.5-4.5-4.2-9.1-6.3c-2.2-1-4.6-1.7-7-2.1c-2.4-0.4-4.8-0.7-7.7,0c-1.9,0.5-2.6,1-6.3,2.1
			c-2,0.6-3.4,1-3.5,0.7c-0.2-0.4,3.3-2.7,7-4.2c2.4-1,5.9-2.3,10.5-2.1c3.4,0.2,6.8,1.1,9.8,2.8c3.7,2,3.5,3.1,7.7,5.6
			c2.3,1.3,5.1,3,9.1,3.5c2.2,0.3,6.1,0.8,9.8-1.4c2.2-1.3,2.8-2.1,4.2-4.2l41.4-127.8c-0.8-0.2-2-0.4-3.5-0.7
			c-2.7-0.5-4.5-0.6-5.6-0.7c-3.1-0.3-5.4-1.1-8.4-2.1c-4.5-1.5-7.6-3.2-11.9-5.6c-5.7-3.2-5.4-3.5-10.5-6.3
			c-5-2.7-7.6-4.1-11.2-4.9c-3.5-0.7-7-1-10.5-0.7c-2.6,0.2-5.2,0.7-7.7,1.4C136.1,107.5,131,111.8,130.7,111.4z"/>
	</g>
</g>
</svg>
