<svg xmlns="http://www.w3.org/2000/svg" width="309" height="303" viewBox="0 0 309 303">
  <defs>
    <style>
      .cls-1 {
        fill: #d9c9c1;
      }

      .cls-2, .cls-4 {
        fill: #fff;
      }

      .cls-2, .cls-3, .cls-5, .cls-6 {
        stroke: #fff;
        stroke-width: 2px;
      }

      .cls-2, .cls-3 {
        stroke-miterlimit: 10;
      }

      .cls-3, .cls-5, .cls-6 {
        fill: none;
      }

      .cls-5 {
        stroke-miterlimit: 10;
      }

      .cls-6 {
        stroke-miterlimit: 10;
      }
    </style>
  </defs>
  <g id="Layer_1" data-name="Layer 1">
    <g id="Layer_3" data-name="Layer 3">
      <rect class="cls-1" width="309" height="303"/>
    </g>
  </g>
  <g id="Layer_2" data-name="Layer 2">
    <g>
      <path class="cls-2" d="M124.82,218a26.21,26.21,0,0,1-.63,5,29.72,29.72,0,0,1-5,10.6c-3.63,5.38-5.44,8.07-8.19,8.73-1,.24-3,.46-3.78,1.87,0,.11-.17.68-.3,1.24a6.77,6.77,0,0,1-.33,1.25c-.75,1.13-1.89.9-2.52,1.87-.35.54-.58,1.45,0,3.12h71.27a13.16,13.16,0,0,0-1.38-3.74,8.7,8.7,0,0,0-1.88-2.5,8.12,8.12,0,0,0-1.89-1.24c-1.63-.83-2.79-2-5-4.37a39.52,39.52,0,0,1-6.3-8.73,22,22,0,0,1-2.52-5.61,22.56,22.56,0,0,1-.63-6.23h16.38v-7.49H109.87l-.16,6.24Z" transform="translate(4.5 1.5)"/>
      <polygon class="cls-3" points="57.55 139.37 61.93 132.86 223.12 133.58 226.31 139.79 57.55 139.37"/>
      <polygon class="cls-3" points="91.5 139.6 194.81 139.66 161.4 213.25 128.44 213.21 91.5 139.6"/>
      <path class="cls-3" d="M168.23,103.61c0,.11-.18,1-.4,2.21s-.29,1.75-.49,2.93c-.13.74-.29,1.65-.52,2.92-.41,2.3-.95,5.18-1.8,9.49-.88,4.48-1.66,8.23-2.23,11H117.62c-.2-3.23-.54-8.24-1.11-14.29-.8-8.43-1.4-12.15-2.24-21.41-1.15-12.82-.94-16.07,0-19.77a37.53,37.53,0,0,1,4.46-10.44,30.17,30.17,0,0,1,8.37-9.33,27.37,27.37,0,0,1,32.6.54c2.19,1.62,5.27,5.37,7.81,10.44C167.49,67.89,173.05,77.32,168.23,103.61Z" transform="translate(4.5 1.5)"/>
      <path class="cls-3" d="M172.2,102.24c0,.11-.21,1-.45,2.31s-.34,1.81-.57,3c-.15.77-.33,1.72-.59,3-.47,2.39-1.08,5.37-2,9.88s-1.9,8.57-2.56,11.41H114.29c-.23-3.36-.62-8.52-1.28-14.85-.91-8.78-1.59-12.64-2.55-22.28-1.35-13.34-1.08-16.71,0-20.57a36.94,36.94,0,0,1,5.11-10.85,32.22,32.22,0,0,1,9.57-9.71,34.31,34.31,0,0,1,14.67-5.14,35,35,0,0,1,22.64,5.71c2.5,1.68,6,5.58,8.93,10.85C171.38,65.09,177.72,74.9,172.2,102.24Z" transform="translate(4.5 1.5)"/>
      <ellipse class="cls-3" cx="186.98" cy="111.13" rx="4.21" ry="4.17"/>
      <ellipse class="cls-3" cx="186.42" cy="120.56" rx="4.21" ry="4.17"/>
      <ellipse class="cls-3" cx="195.38" cy="123.33" rx="4.21" ry="4.17"/>
      <ellipse class="cls-3" cx="195.94" cy="108.91" rx="4.21" ry="4.17"/>
      <ellipse class="cls-3" cx="201.55" cy="116.12" rx="4.21" ry="4.17"/>
      <ellipse class="cls-3" cx="193.49" cy="116.05" rx="2.58" ry="2.58"/>
      <path class="cls-3" d="M187.64,114.05" transform="translate(4.5 1.5)"/>
      <path class="cls-3" d="M187.87,113.87" transform="translate(4.5 1.5)"/>
      <path class="cls-4" d="M187.5,115.09a.24.24,0,0,0,.2-.27.26.26,0,0,0-.2-.2.22.22,0,0,0-.19.27A.23.23,0,0,0,187.5,115.09Z" transform="translate(4.5 1.5)"/>
      <path class="cls-4" d="M187.86,114.32a.25.25,0,0,0,.2-.28.23.23,0,0,0-.2-.19.24.24,0,0,0-.2.27A.26.26,0,0,0,187.86,114.32Z" transform="translate(4.5 1.5)"/>
      <path class="cls-4" d="M188.35,113.64a.25.25,0,0,0,.2-.28.23.23,0,0,0-.2-.19.22.22,0,0,0-.19.27A.23.23,0,0,0,188.35,113.64Z" transform="translate(4.5 1.5)"/>
      <path class="cls-4" d="M188.42,115.13a.25.25,0,0,0,.19-.28.21.21,0,0,0-.19-.19.24.24,0,0,0-.2.27A.23.23,0,0,0,188.42,115.13Z" transform="translate(4.5 1.5)"/>
      <path class="cls-4" d="M188.84,114.35a.24.24,0,0,0,0-.47.24.24,0,0,0-.2.27A.26.26,0,0,0,188.84,114.35Z" transform="translate(4.5 1.5)"/>
      <ellipse class="cls-3" cx="138.86" cy="110.93" rx="6.33" ry="6.27"/>
      <ellipse class="cls-3" cx="142.12" cy="124.17" rx="6.33" ry="6.27"/>
      <ellipse class="cls-3" cx="156.26" cy="125.01" rx="6.33" ry="6.27"/>
      <ellipse class="cls-3" cx="150.85" cy="103.94" rx="6.33" ry="6.27"/>
      <ellipse class="cls-3" cx="162.06" cy="111.99" rx="6.33" ry="6.27"/>
      <ellipse class="cls-5" cx="145.55" cy="114.46" rx="3.87" ry="3.9" transform="translate(-34.96 123.4) rotate(-40.48)"/>
      <path class="cls-3" d="M143.72,113.63" transform="translate(4.5 1.5)"/>
      <path class="cls-3" d="M144,113.27" transform="translate(4.5 1.5)"/>
      <path class="cls-4" d="M143.87,115.09a.24.24,0,0,0,.2-.27.23.23,0,0,0-.2-.19.24.24,0,0,0-.2.27A.23.23,0,0,0,143.87,115.09Z" transform="translate(4.5 1.5)"/>
      <path class="cls-4" d="M144,113.82a.23.23,0,0,0,.19-.27.21.21,0,0,0-.19-.19.24.24,0,0,0-.2.27A.22.22,0,0,0,144,113.82Z" transform="translate(4.5 1.5)"/>
      <path class="cls-4" d="M144.47,112.64a.22.22,0,0,0,.19-.27.23.23,0,0,0-.19-.2.24.24,0,0,0-.2.27A.26.26,0,0,0,144.47,112.64Z" transform="translate(4.5 1.5)"/>
      <path class="cls-4" d="M145.2,114.78a.24.24,0,0,0,0-.47.22.22,0,0,0-.19.27A.23.23,0,0,0,145.2,114.78Z" transform="translate(4.5 1.5)"/>
      <path class="cls-4" d="M145.48,113.45a.24.24,0,0,0,.2-.27.23.23,0,0,0-.2-.19.24.24,0,0,0-.2.27A.23.23,0,0,0,145.48,113.45Z" transform="translate(4.5 1.5)"/>
      <ellipse class="cls-3" cx="96.21" cy="105.61" rx="4.7" ry="4.65"/>
      <ellipse class="cls-3" cx="100.65" cy="115.22" rx="4.7" ry="4.65"/>
      <ellipse class="cls-3" cx="111.94" cy="113.73" rx="4.7" ry="4.65"/>
      <ellipse class="cls-3" cx="103.89" cy="98.77" rx="4.7" ry="4.65"/>
      <ellipse class="cls-3" cx="113.25" cy="102.98" rx="4.7" ry="4.65"/>
      <ellipse class="cls-6" cx="100.75" cy="105.59" rx="2.87" ry="2.9" transform="translate(-40.12 120.07) rotate(-51.45)"/>
      <path class="cls-3" d="M99.15,105.8" transform="translate(4.5 1.5)"/>
      <path class="cls-3" d="M99.28,105.5" transform="translate(4.5 1.5)"/>
      <path class="cls-4" d="M99.44,106.91a.24.24,0,0,0,.2-.27.26.26,0,0,0-.2-.2.24.24,0,0,0-.2.27A.26.26,0,0,0,99.44,106.91Z" transform="translate(4.5 1.5)"/>
      <path class="cls-4" d="M99.38,106a.23.23,0,0,0,.2-.27.21.21,0,0,0-.2-.19.23.23,0,0,0-.19.27A.21.21,0,0,0,99.38,106Z" transform="translate(4.5 1.5)"/>
      <path class="cls-4" d="M99.51,105a.24.24,0,0,0,.2-.27.26.26,0,0,0-.2-.2.24.24,0,0,0,0,.47Z" transform="translate(4.5 1.5)"/>
      <path class="cls-4" d="M100.36,106.47a.25.25,0,0,0,.2-.28.23.23,0,0,0-.2-.19.24.24,0,0,0-.2.27A.26.26,0,0,0,100.36,106.47Z" transform="translate(4.5 1.5)"/>
      <path class="cls-4" d="M100.37,105.47a.24.24,0,0,0,.2-.27.23.23,0,0,0-.2-.19.22.22,0,0,0-.19.27A.21.21,0,0,0,100.37,105.47Z" transform="translate(4.5 1.5)"/>
      <g>
        <ellipse class="cls-3" cx="37.12" cy="115.07" rx="3.79" ry="3.75"/>
        <ellipse class="cls-3" cx="42.08" cy="119.12" rx="3.79" ry="3.75"/>
        <ellipse class="cls-3" cx="37.99" cy="124.03" rx="3.79" ry="3.75"/>
        <ellipse class="cls-3" cx="33.03" cy="119.98" rx="3.79" ry="3.75"/>
      </g>
      <g>
        <ellipse class="cls-3" cx="59.82" cy="90.46" rx="4.66" ry="4.61"/>
        <ellipse class="cls-3" cx="67.73" cy="90.34" rx="4.66" ry="4.61"/>
        <ellipse class="cls-3" cx="67.84" cy="98.18" rx="4.66" ry="4.61"/>
        <ellipse class="cls-3" cx="59.93" cy="98.29" rx="4.66" ry="4.61"/>
      </g>
      <g>
        <ellipse class="cls-3" cx="266.8" cy="124.25" rx="3.79" ry="3.75"/>
        <ellipse class="cls-3" cx="270.45" cy="129.5" rx="3.79" ry="3.75"/>
        <ellipse class="cls-3" cx="265.14" cy="133.11" rx="3.79" ry="3.75"/>
        <ellipse class="cls-3" cx="261.5" cy="127.86" rx="3.79" ry="3.75"/>
      </g>
      <g>
        <ellipse class="cls-3" cx="243.2" cy="103.15" rx="4.86" ry="4.81"/>
        <ellipse class="cls-3" cx="241.38" cy="111.12" rx="4.86" ry="4.81"/>
        <ellipse class="cls-3" cx="233.33" cy="109.32" rx="4.86" ry="4.81"/>
        <ellipse class="cls-3" cx="235.16" cy="101.34" rx="4.86" ry="4.81"/>
      </g>
      <path class="cls-3" d="M36,82.67c.85-2-8.69-9-10.7-7.49-1,.78-.18,3.8,1.26,5.62C29.49,84.45,35.46,84,36,82.67Z" transform="translate(4.5 1.5)"/>
      <path class="cls-3" d="M35.41,91.39c-1.06-.93-4.3.58-6.29,2.5-3.78,3.67-4,9.67-3.15,10,.58.21,1.11-2.59,4.41-5,2.05-1.5,3.31-1.48,4.4-3.12C35.73,94.33,36.24,92.12,35.41,91.39Z" transform="translate(4.5 1.5)"/>
      <path class="cls-3" d="M22.19,88.9c-1-1.56-5.58-.21-6.3,0-7,2.08-11.33,8.59-10.7,9.35.41.48,2.4-1.75,6.93-2.49,3.32-.54,4.28.34,6.29-.62C21.21,93.8,23.14,90.28,22.19,88.9Z" transform="translate(4.5 1.5)"/>
      <path class="cls-3" d="M79.49,63.34a9.39,9.39,0,0,1-.63-8.73,10.19,10.19,0,0,0,1.26-3.12c.27-1.78-.25-3,0-3.12.43-.18,2.34,2.05,3.15,5,.46,1.7.31,3.42,0,6.86-.41,4.53-1,4.9-1.26,5C81,65.52,79.63,63.55,79.49,63.34Z" transform="translate(4.5 1.5)"/>
      <path class="cls-3" d="M78.86,69c-.39-1.72-4.74-2.61-8.19-1.87-5.28,1.12-8.72,6.11-8.18,6.86.35.48,2.13-1.18,5.66-1.25,2.91-.06,3.53,1,5.67.62C76.53,72.83,79.17,70.45,78.86,69Z" transform="translate(4.5 1.5)"/>
      <path class="cls-3" d="M63.75,59.6c.32-1.25-3.15-3.43-6.3-4.37C53.32,54,48.3,54.5,48,55.85s3.89,3.55,7.55,4.37C59,61,63.43,60.87,63.75,59.6Z" transform="translate(4.5 1.5)"/>
      <path class="cls-3" d="M77,141.9c.84-.72,3.71,1.33,5,2.49.63.56,3.06,2.69,2.52,3.74-.45.87-2.77.83-4.41,0C77.28,146.69,76.08,142.67,77,141.9Z" transform="translate(4.5 1.5)"/>
      <path class="cls-3" d="M75.71,150c1.15-.17,2.57,3.07,3.15,5,1.55,5.13.23,11.09-1.26,11.23-1.26.11-2.64-3.84-3.15-6.24C73.51,155.45,74.3,150.2,75.71,150Z" transform="translate(4.5 1.5)"/>
      <path class="cls-3" d="M71.93,144.39c.57.68-1.53,3.42-3.15,5-3.91,3.81-9.55,5.25-10.07,4.37-.28-.49,1-1.69,2.52-3.12C65.35,146.76,71.14,143.46,71.93,144.39Z" transform="translate(4.5 1.5)"/>
      <path class="cls-3" d="M148.12,75.81c-1.69.07-3.4-2.77-3.78-5-.5-3,1.26-5.81,1.89-6.86.93-1.51,1.53-1.77,1.89-3.12.63-2.32-.48-4.09,0-4.36s2.62,1.46,3.78,3.74C155,66.28,151.14,75.69,148.12,75.81Z" transform="translate(4.5 1.5)"/>
      <path class="cls-3" d="M145,81.42c.69-2.63,4.22-4.22,6.93-4.37a16.31,16.31,0,0,0,2.52,0c2.73-.43,4-2.18,4.4-1.87s-.89,3.27-3.15,5.62a14.25,14.25,0,0,1-6.29,3.74c-1.42.39-2.87.78-3.78,0A3.11,3.11,0,0,1,145,81.42Z" transform="translate(4.5 1.5)"/>
      <path class="cls-3" d="M142.56,79.54c.17-.53.55-2.07-2-7.33a18.64,18.64,0,0,0-2.91-4.85c-1.53-1.72-3.67-3.32-4.11-2.94s1.95,2.56,2.28,6.5a15.07,15.07,0,0,0,.42,3.92,13,13,0,0,0,1.3,2.84c1.38,2.52,2.24,4.09,3.22,4S142.31,80.33,142.56,79.54Z" transform="translate(4.5 1.5)"/>
      <path class="cls-3" d="M214.86,75.18c-1.13-.43-1.4-3.43-.63-5.61.66-1.87,1.68-2,3.15-5a25.3,25.3,0,0,0,1.26-3.11c.91-2.79.89-4.37,1.26-4.37s1,2.45,1.26,4.37a16.52,16.52,0,0,1,0,6.23C220.13,72,216.39,75.78,214.86,75.18Z" transform="translate(4.5 1.5)"/>
      <path class="cls-3" d="M226.19,70.82c.37,1.16,3.78,1.64,6.3.62A21.4,21.4,0,0,0,236.27,69c1-.76,1.33-1,2.52-1.87a13.48,13.48,0,0,1,3.15-1.87c1.53-.54,2.46-.33,2.51-.63.09-.46-2-1.68-4.4-1.87-2.79-.21-4.92,1.08-8.19,3.12C228.78,67.76,225.82,69.62,226.19,70.82Z" transform="translate(4.5 1.5)"/>
      <path class="cls-3" d="M218,77.68c1.19-1.13,3.55-.91,6.92,0,2.17.58,9,2.44,8.82,3.74-.18,1-4.75.85-10.07.62a11.29,11.29,0,0,1-4.41-1.24c-1.77-.93-1.89-1.63-1.89-1.88A1.77,1.77,0,0,1,218,77.68Z" transform="translate(4.5 1.5)"/>
      <path class="cls-3" d="M263.34,93.27c-.68-1,.63-3.17,1.89-4.37a12,12,0,0,1,5.67-2.49,9.38,9.38,0,0,0,2.52-.63c1.89-1,2.48-2.68,3.15-2.49s.62,1.71.62,1.87c0,2.49-1.84,4.33-2.51,5a12.5,12.5,0,0,1-6.3,3.12C266.63,93.68,264,94.29,263.34,93.27Z" transform="translate(4.5 1.5)"/>
      <path class="cls-3" d="M264,96.38a28.39,28.39,0,0,1,3.15,1.87c1.93,1.34,2.91,2,3.15,3.12s-.45,1.52,0,2.5c.1.21.25.46,1.89,1.87,1.1.94,1.29,1.06,1.26,1.24-.1.63-2.37,1.16-4.41.63-2.46-.63-3.85-2.66-5-4.37a12.29,12.29,0,0,1-1.89-4.36c-.47-1.8-.24-2.28,0-2.5C262.64,95.89,263.72,96.29,264,96.38Z" transform="translate(4.5 1.5)"/>
      <path class="cls-3" d="M279.71,101.37c-.19.43.48,1,3.15,3.74a27.3,27.3,0,0,0,3.15,3.12c1.31,1,2.34,1.78,3.78,1.87a9.18,9.18,0,0,1,1.89,0c.55.11,1.26.38,2.52.62.37.08.54.1.62,0,.22-.26-.35-1.32-1.25-1.87s-1.26-.12-2.52-.62a5.74,5.74,0,0,1-3.15-3.12,8.44,8.44,0,0,0-4.41-3.74C282.06,100.89,280,100.72,279.71,101.37Z" transform="translate(4.5 1.5)"/>
      <path class="cls-3" d="M212.51,153.5c.48.26.4,1.22.24,3.11a11,11,0,0,1-.92,4.44c-.27.54-1.55,1.71-4.11,4.06-.56.51-.9.82-1.21.72-.76-.25-.66-2.73-.33-4.35a11.08,11.08,0,0,1,1.6-3.88C209.14,155.48,211.59,153,212.51,153.5Z" transform="translate(4.5 1.5)"/>
      <path class="cls-3" d="M215.49,148.76c-.3.49.63,1.58,2.52,3.74a11.76,11.76,0,0,0,2.52,2.49c2.15,1.34,5.2,1.53,5.66.63.36-.7-.82-2-1.88-3.12a11.87,11.87,0,0,0-3.15-2.49C219.06,148.87,216,148,215.49,148.76Z" transform="translate(4.5 1.5)"/>
      <path class="cls-3" d="M211.08,149.38c-1.26-.3-2.36-.5-3.15-.62a12.53,12.53,0,0,0-5,0c-1.13.26-1.26.5-1.26.62-.06.51,1.43,1.08,1.89,1.25a12,12,0,0,0,4.4.62,7.21,7.21,0,0,0,3.15-.62c.44-.23.63-.42.63-.62C211.71,149.64,211.12,149.39,211.08,149.38Z" transform="translate(4.5 1.5)"/>
      <path class="cls-3" d="M78.89,76.23" transform="translate(4.5 1.5)"/>
      <path class="cls-3" d="M94,90.77s.63-6.86-5.67-15A46.68,46.68,0,0,0,66.11,60.69" transform="translate(4.5 1.5)"/>
      <path class="cls-3" d="M84.26,101.4A21.07,21.07,0,0,0,72,97.27" transform="translate(4.5 1.5)"/>
      <path class="cls-3" d="M91.46,113.72s-10.73,6.49-16.35,17.57" transform="translate(4.5 1.5)"/>
      <path class="cls-3" d="M73.82,137.92a49.25,49.25,0,0,0,1,9.1" transform="translate(4.5 1.5)"/>
      <path class="cls-3" d="M106,131.3s.35-8.87-6.45-13.79" transform="translate(4.5 1.5)"/>
      <path class="cls-3" d="M46.75,89.52s-8.82-5.61-24.56-.62" transform="translate(4.5 1.5)"/>
      <path class="cls-3" d="M49.9,100.12S41.67,98.82,35.41,111" transform="translate(4.5 1.5)"/>
      <path class="cls-3" d="M140,99.84s-5.61-18.3,9.45-24.59" transform="translate(4.5 1.5)"/>
      <path class="cls-3" d="M185.38,131.36s-1.66-5.05,2.26-6.61" transform="translate(4.5 1.5)"/>
      <path class="cls-3" d="M199.07,118.27s8.57,2,11.55,13.77" transform="translate(4.5 1.5)"/>
      <path class="cls-3" d="M213.08,138.27c-.11-.11,2.41,4.88-.74,15.48" transform="translate(4.5 1.5)"/>
      <path class="cls-3" d="M194.61,104.66s13.32-28.23,31.58-33.84" transform="translate(4.5 1.5)"/>
      <path class="cls-3" d="M200.29,112s13.38-10.39,26.25-9.56" transform="translate(4.5 1.5)"/>
      <path class="cls-3" d="M242.82,99.09s18.63-10.81,36.89,2.28" transform="translate(4.5 1.5)"/>
      <path class="cls-3" d="M241.74,109.62s16.6,2.53,15.95,13" transform="translate(4.5 1.5)"/>
      <path class="cls-3" d="M111.43,138.1l25,73.62Z" transform="translate(4.5 1.5)"/>
      <path class="cls-3" d="M168.15,138.78l-22.23,72.94Z" transform="translate(4.5 1.5)"/>
      <path class="cls-4" d="M91.87,141.76a.47.47,0,1,0,0-.94.47.47,0,1,0,0,.94Z" transform="translate(4.5 1.5)"/>
      <path class="cls-4" d="M110.26,141.29a.46.46,0,0,0,.47-.46.47.47,0,0,0-.94,0A.46.46,0,0,0,110.26,141.29Z" transform="translate(4.5 1.5)"/>
      <path class="cls-4" d="M101.42,144.29a.47.47,0,1,0-.47-.47A.47.47,0,0,0,101.42,144.29Z" transform="translate(4.5 1.5)"/>
      <path class="cls-4" d="M96.76,151.66a.47.47,0,1,0-.47-.46A.47.47,0,0,0,96.76,151.66Z" transform="translate(4.5 1.5)"/>
      <path class="cls-4" d="M111.42,149.59a.47.47,0,1,0,0-.94.47.47,0,0,0,0,.94Z" transform="translate(4.5 1.5)"/>
      <path class="cls-4" d="M106.07,158.8a.47.47,0,1,0-.47-.46A.47.47,0,0,0,106.07,158.8Z" transform="translate(4.5 1.5)"/>
      <path class="cls-4" d="M115.38,161.34a.47.47,0,0,0,.47-.47.47.47,0,0,0-.94,0A.47.47,0,0,0,115.38,161.34Z" transform="translate(4.5 1.5)"/>
      <path class="cls-4" d="M105.14,169.18a.47.47,0,1,0-.47-.47A.47.47,0,0,0,105.14,169.18Z" transform="translate(4.5 1.5)"/>
      <path class="cls-4" d="M114.91,172.4a.47.47,0,1,0-.47-.47A.47.47,0,0,0,114.91,172.4Z" transform="translate(4.5 1.5)"/>
      <path class="cls-4" d="M121,173.56a.47.47,0,1,0-.47-.47A.47.47,0,0,0,121,173.56Z" transform="translate(4.5 1.5)"/>
      <path class="cls-4" d="M112.12,180.93a.47.47,0,1,0-.47-.47A.47.47,0,0,0,112.12,180.93Z" transform="translate(4.5 1.5)"/>
      <path class="cls-4" d="M120.5,186.92a.47.47,0,0,0,0-.94.47.47,0,1,0,0,.94Z" transform="translate(4.5 1.5)"/>
      <path class="cls-4" d="M118.84,194.75a.46.46,0,0,0,.47-.46.47.47,0,0,0-.94,0A.46.46,0,0,0,118.84,194.75Z" transform="translate(4.5 1.5)"/>
      <path class="cls-4" d="M130.27,198.9a.47.47,0,1,0-.47-.47A.47.47,0,0,0,130.27,198.9Z" transform="translate(4.5 1.5)"/>
      <path class="cls-4" d="M127.71,192a.47.47,0,1,0-.47-.47A.47.47,0,0,0,127.71,192Z" transform="translate(4.5 1.5)"/>
      <path class="cls-4" d="M125.38,205.12a.47.47,0,1,0-.47-.46A.47.47,0,0,0,125.38,205.12Z" transform="translate(4.5 1.5)"/>
      <path class="cls-4" d="M132.37,209.5a.47.47,0,0,0,.47-.47.46.46,0,0,0-.47-.46h0a.46.46,0,0,0-.48.46A.47.47,0,0,0,132.37,209.5Z" transform="translate(4.5 1.5)"/>
      <path class="cls-4" d="M149.26,209.46a.47.47,0,1,0-.47-.47A.47.47,0,0,0,149.26,209.46Z" transform="translate(4.5 1.5)"/>
      <path class="cls-4" d="M155.83,210a.47.47,0,1,0-.48-.47A.47.47,0,0,0,155.83,210Z" transform="translate(4.5 1.5)"/>
      <path class="cls-4" d="M153.8,204.71a.47.47,0,1,0-.47-.47A.47.47,0,0,0,153.8,204.71Z" transform="translate(4.5 1.5)"/>
      <path class="cls-4" d="M152.8,199a.47.47,0,0,0,.47-.47.46.46,0,0,0-.47-.46.47.47,0,0,0-.48.46A.48.48,0,0,0,152.8,199Z" transform="translate(4.5 1.5)"/>
      <path class="cls-4" d="M159.62,200a.46.46,0,0,0,.47-.46.47.47,0,0,0-.47-.47.48.48,0,0,0-.48.47A.47.47,0,0,0,159.62,200Z" transform="translate(4.5 1.5)"/>
      <path class="cls-4" d="M158.6,192.72a.47.47,0,1,0-.47-.47A.47.47,0,0,0,158.6,192.72Z" transform="translate(4.5 1.5)"/>
      <path class="cls-4" d="M156.84,187a.47.47,0,1,0-.47-.47A.47.47,0,0,0,156.84,187Z" transform="translate(4.5 1.5)"/>
      <path class="cls-4" d="M164.67,189.2a.47.47,0,1,0-.48-.47A.47.47,0,0,0,164.67,189.2Z" transform="translate(4.5 1.5)"/>
      <path class="cls-4" d="M163.15,181.2a.47.47,0,1,0-.47-.47A.47.47,0,0,0,163.15,181.2Z" transform="translate(4.5 1.5)"/>
      <path class="cls-4" d="M160.12,177.2a.47.47,0,1,0-.47-.47A.47.47,0,0,0,160.12,177.2Z" transform="translate(4.5 1.5)"/>
      <path class="cls-4" d="M169.72,177.94a.46.46,0,0,0,.47-.46.48.48,0,0,0-.95,0A.46.46,0,0,0,169.72,177.94Z" transform="translate(4.5 1.5)"/>
      <path class="cls-4" d="M165.93,172.45a.47.47,0,1,0-.48-.47A.47.47,0,0,0,165.93,172.45Z" transform="translate(4.5 1.5)"/>
      <path class="cls-4" d="M163.4,165.94a.47.47,0,1,0-.47-.47A.47.47,0,0,0,163.4,165.94Z" transform="translate(4.5 1.5)"/>
      <path class="cls-4" d="M173.76,168.19a.47.47,0,1,0-.47-.46A.47.47,0,0,0,173.76,168.19Z" transform="translate(4.5 1.5)"/>
      <path class="cls-4" d="M171.23,160.92a.47.47,0,1,0,0-.94.47.47,0,0,0,0,.94Z" transform="translate(4.5 1.5)"/>
      <path class="cls-4" d="M167.19,155.69a.47.47,0,1,0-.47-.47A.47.47,0,0,0,167.19,155.69Z" transform="translate(4.5 1.5)"/>
      <path class="cls-4" d="M179.06,158.94a.47.47,0,1,0-.47-.47A.47.47,0,0,0,179.06,158.94Z" transform="translate(4.5 1.5)"/>
      <path class="cls-4" d="M175,152.44a.47.47,0,0,0,0-.94.47.47,0,1,0,0,.94Z" transform="translate(4.5 1.5)"/>
      <path class="cls-4" d="M183.35,150.94a.48.48,0,0,0,.48-.47.47.47,0,0,0-.48-.46.46.46,0,0,0-.47.46A.47.47,0,0,0,183.35,150.94Z" transform="translate(4.5 1.5)"/>
      <path class="cls-4" d="M170.73,146.44a.47.47,0,1,0-.47-.47A.47.47,0,0,0,170.73,146.44Z" transform="translate(4.5 1.5)"/>
      <path class="cls-4" d="M178.81,143.69a.47.47,0,1,0-.47-.47A.47.47,0,0,0,178.81,143.69Z" transform="translate(4.5 1.5)"/>
      <path class="cls-4" d="M171.73,140.18a.46.46,0,0,0,.47-.46.47.47,0,0,0-.94,0A.46.46,0,0,0,171.73,140.18Z" transform="translate(4.5 1.5)"/>
      <path class="cls-4" d="M186.89,140.18a.46.46,0,0,0,.47-.46.48.48,0,0,0-1,0A.46.46,0,0,0,186.89,140.18Z" transform="translate(4.5 1.5)"/>
      <polygon class="cls-2" points="115.93 139.6 172.65 140.28 150.38 213.22 140.9 213.22 115.93 139.6"/>
      <polygon class="cls-2" points="61.93 132.86 57.55 139.37 226.31 139.79 223.12 133.58 61.93 132.86"/>
    </g>
  </g>
</svg>
