<svg id="Layer_1" data-name="Layer 1" xmlns="http://www.w3.org/2000/svg" width="681.28" height="500" viewBox="0 0 681.28 500">
  <defs>
    <style>
      .cls-1 {
        fill: #d9c9c1;
      }

      .cls-2, .cls-6 {
        fill: #fff;
      }

      .cls-2, .cls-3, .cls-4, .cls-5, .cls-7, .cls-8 {
        stroke: #fff;
      }

      .cls-2, .cls-3, .cls-4, .cls-5 {
        stroke-miterlimit: 10;
      }

      .cls-3, .cls-4, .cls-5, .cls-7, .cls-8 {
        fill: none;
      }

      .cls-4 {
        stroke-width: 5px;
      }

      .cls-5, .cls-7, .cls-8 {
        stroke-width: 2px;
      }

      .cls-7 {
        stroke-miterlimit: 10;
      }

      .cls-8 {
        stroke-miterlimit: 10;
      }

      .cls-9 {
        fill: #003135;
      }
    </style>
  </defs>
  <g id="Layer_3" data-name="Layer 3">
    <rect class="cls-1" width="613.64" height="500"/>
  </g>
  <path class="cls-2" d="M279.38,371a42.29,42.29,0,0,1-1,8c-1.66,7.39-4.91,12.37-8,17-5.76,8.64-8.64,12.95-13,14-1.65.39-4.84.73-6,3a19.88,19.88,0,0,0-.48,2,12.79,12.79,0,0,1-.52,2c-1.19,1.82-3,1.44-4,3-.57.85-.93,2.32,0,5H359.56a21,21,0,0,0-2.18-6,13.73,13.73,0,0,0-3-4,12.56,12.56,0,0,0-3-2c-2.59-1.33-4.42-3.25-8-7a63.92,63.92,0,0,1-10-14c-2.15-3.93-3.23-5.9-4-9a36.25,36.25,0,0,1-1-10h26V361H255.63l-.25,10Z" transform="translate(-0.74 -0.62)"/>
  <polygon class="cls-3" points="164.65 241.92 171.6 231.49 427.61 232.64 432.68 242.6 164.65 241.92"/>
  <polygon class="cls-4" points="218.57 242.29 382.64 242.39 329.58 360.41 277.24 360.35 218.57 242.29"/>
  <path class="cls-5" d="M348.32,187.59c0,.18-.29,1.6-.63,3.56s-.47,2.79-.79,4.69c-.2,1.18-.46,2.64-.82,4.68-.65,3.68-1.51,8.3-2.86,15.22-1.4,7.19-2.63,13.2-3.54,17.61H267.94c-.32-5.18-.86-13.21-1.77-22.91C264.9,196.92,264,191,262.62,176.1c-1.83-20.57-1.5-25.78,0-31.71a60.29,60.29,0,0,1,7.09-16.74,48.17,48.17,0,0,1,13.28-15,43.14,43.14,0,0,1,51.79.88c3.47,2.6,8.36,8.61,12.4,16.75C347.14,130.31,356,145.44,348.32,187.59Z" transform="translate(-0.74 -0.62)"/>
  <path class="cls-5" d="M354.63,185.4c0,.18-.34,1.66-.72,3.7s-.54,2.9-.91,4.88c-.23,1.23-.52,2.76-.93,4.87-.75,3.83-1.73,8.61-3.23,15.83-1.61,7.47-3,13.75-4.06,18.31H262.64c-.35-5.39-1-13.68-2-23.83-1.44-14.07-2.53-20.27-4.05-35.72-2.15-21.39-1.72-26.81,0-33A59.75,59.75,0,0,1,264.68,123a51.68,51.68,0,0,1,15.2-15.58,54.21,54.21,0,0,1,23.31-8.23,55.18,55.18,0,0,1,35.95,9.16c4,2.69,9.57,8.94,14.19,17.4C353.33,125.81,363.39,141.55,354.63,185.4Z" transform="translate(-0.74 -0.62)"/>
  <circle class="cls-5" cx="370.21" cy="196.63" r="6.68"/>
  <circle class="cls-5" cx="369.32" cy="211.76" r="6.68"/>
  <circle class="cls-5" cx="383.56" cy="216.21" r="6.68"/>
  <circle class="cls-5" cx="384.45" cy="193.07" r="6.68"/>
  <circle class="cls-5" cx="393.35" cy="204.64" r="6.68"/>
  <ellipse class="cls-5" cx="380.55" cy="204.53" rx="4.09" ry="4.14"/>
  <path class="cls-3" d="M379.15,204.34" transform="translate(-0.74 -0.62)"/>
  <path class="cls-3" d="M379.51,204" transform="translate(-0.74 -0.62)"/>
  <path class="cls-6" d="M378.93,206a.38.38,0,0,0,.31-.44.36.36,0,0,0-.31-.31.38.38,0,0,0-.32.43A.41.41,0,0,0,378.93,206Z" transform="translate(-0.74 -0.62)"/>
  <path class="cls-6" d="M379.5,204.76a.36.36,0,0,0,.31-.43.38.38,0,0,0-.31-.32.39.39,0,0,0-.32.44A.38.38,0,0,0,379.5,204.76Z" transform="translate(-0.74 -0.62)"/>
  <path class="cls-6" d="M380.28,203.68a.38.38,0,0,0,.31-.44.36.36,0,0,0-.31-.31.38.38,0,0,0-.32.43A.41.41,0,0,0,380.28,203.68Z" transform="translate(-0.74 -0.62)"/>
  <path class="cls-6" d="M380.38,206.07a.38.38,0,0,0,.31-.44.36.36,0,0,0-.31-.31.38.38,0,0,0-.32.43A.41.41,0,0,0,380.38,206.07Z" transform="translate(-0.74 -0.62)"/>
  <path class="cls-6" d="M381.05,204.82a.38.38,0,0,0,.31-.44.36.36,0,0,0-.31-.31.38.38,0,0,0-.32.43A.41.41,0,0,0,381.05,204.82Z" transform="translate(-0.74 -0.62)"/>
  <circle class="cls-5" cx="293.79" cy="196.32" r="10.05"/>
  <circle class="cls-5" cx="298.96" cy="217.55" r="10.05"/>
  <circle class="cls-5" cx="322.16" cy="219.51" r="10.05" transform="matrix(0.16, -0.99, 0.99, 0.16, 53.13, 501.74)"/>
  <circle class="cls-5" cx="313.57" cy="185.72" r="10.05" transform="matrix(0.16, -0.99, 0.99, 0.16, 79.28, 464.87)"/>
  <circle class="cls-5" cx="331.37" cy="198.63" r="10.05" transform="matrix(0.16, -0.99, 0.99, 0.16, 81.49, 493.28)"/>
  <ellipse class="cls-7" cx="312.29" cy="204.99" rx="6.16" ry="6.24" transform="translate(-45.65 95.03) rotate(-16.26)"/>
  <path class="cls-3" d="M309.4,203.67" transform="translate(-0.74 -0.62)"/>
  <path class="cls-3" d="M309.8,203.1" transform="translate(-0.74 -0.62)"/>
  <path class="cls-6" d="M309.63,206a.36.36,0,0,0,.31-.43.38.38,0,0,0-.31-.32.39.39,0,0,0-.32.44A.38.38,0,0,0,309.63,206Z" transform="translate(-0.74 -0.62)"/>
  <path class="cls-6" d="M309.88,204a.38.38,0,0,0,.31-.44.36.36,0,0,0-.31-.31.38.38,0,0,0-.32.43A.41.41,0,0,0,309.88,204Z" transform="translate(-0.74 -0.62)"/>
  <path class="cls-6" d="M310.58,202.08a.38.38,0,0,0,.31-.44.36.36,0,0,0-.31-.31.38.38,0,0,0-.32.43A.41.41,0,0,0,310.58,202.08Z" transform="translate(-0.74 -0.62)"/>
  <path class="cls-6" d="M311.75,205.51a.38.38,0,0,0,.31-.44.36.36,0,0,0-.31-.31.38.38,0,0,0-.32.43A.41.41,0,0,0,311.75,205.51Z" transform="translate(-0.74 -0.62)"/>
  <path class="cls-6" d="M312.19,203.39a.38.38,0,0,0,.31-.44.36.36,0,0,0-.31-.31.38.38,0,0,0-.32.43A.41.41,0,0,0,312.19,203.39Z" transform="translate(-0.74 -0.62)"/>
  <circle class="cls-5" cx="226.05" cy="187.79" r="7.46"/>
  <circle class="cls-5" cx="233.11" cy="203.2" r="7.46"/>
  <circle class="cls-5" cx="251.03" cy="200.81" r="7.46"/>
  <circle class="cls-5" cx="238.25" cy="176.81" r="7.46"/>
  <circle class="cls-5" cx="253.11" cy="183.57" r="7.46"/>
  <ellipse class="cls-8" cx="241.15" cy="190.78" rx="4.57" ry="4.63" transform="translate(-62.05 134.77) rotate(-27.97)"/>
  <path class="cls-3" d="M238.61,191.11" transform="translate(-0.74 -0.62)"/>
  <path class="cls-3" d="M238.81,190.62" transform="translate(-0.74 -0.62)"/>
  <path class="cls-6" d="M239.07,192.89a.38.38,0,0,0,.31-.44.36.36,0,0,0-.31-.31.38.38,0,0,0-.32.43A.41.41,0,0,0,239.07,192.89Z" transform="translate(-0.74 -0.62)"/>
  <path class="cls-6" d="M239,191.36a.38.38,0,0,0,.31-.44.36.36,0,0,0-.31-.31.38.38,0,0,0-.32.43A.41.41,0,0,0,239,191.36Z" transform="translate(-0.74 -0.62)"/>
  <path class="cls-6" d="M239.18,189.88a.38.38,0,0,0,.31-.44.38.38,0,0,0-.31-.32.39.39,0,0,0-.32.44A.41.41,0,0,0,239.18,189.88Z" transform="translate(-0.74 -0.62)"/>
  <path class="cls-6" d="M240.53,192.18a.38.38,0,0,0,.31-.44.36.36,0,0,0-.31-.31.38.38,0,0,0-.32.43A.41.41,0,0,0,240.53,192.18Z" transform="translate(-0.74 -0.62)"/>
  <path class="cls-6" d="M240.55,190.59a.38.38,0,0,0,.31-.44.36.36,0,0,0-.31-.31.38.38,0,0,0-.32.43A.41.41,0,0,0,240.55,190.59Z" transform="translate(-0.74 -0.62)"/>
  <g>
    <circle class="cls-5" cx="132.2" cy="202.95" r="6.02"/>
    <circle class="cls-5" cx="140.08" cy="209.45" r="6.02"/>
    <circle class="cls-5" cx="133.58" cy="217.33" r="6.02"/>
    <circle class="cls-5" cx="125.7" cy="210.83" r="6.02"/>
  </g>
  <g>
    <circle class="cls-5" cx="168.26" cy="163.48" r="7.4"/>
    <circle class="cls-5" cx="180.82" cy="163.3" r="7.4"/>
    <circle class="cls-5" cx="180.99" cy="175.87" r="7.4"/>
    <circle class="cls-5" cx="168.43" cy="176.04" r="7.4"/>
  </g>
  <g>
    <circle class="cls-5" cx="496.99" cy="217.67" r="6.02"/>
    <circle class="cls-5" cx="502.78" cy="226.09" r="6.02"/>
    <circle class="cls-5" cx="494.35" cy="231.88" r="6.02"/>
    <circle class="cls-5" cx="488.57" cy="223.46" r="6.02"/>
  </g>
  <g>
    <circle class="cls-5" cx="459.51" cy="183.84" r="7.72"/>
    <circle class="cls-5" cx="456.61" cy="196.62" r="7.72"/>
    <circle class="cls-5" cx="443.83" cy="193.73" r="7.72"/>
    <circle class="cls-5" cx="446.73" cy="180.94" r="7.72"/>
  </g>
  <path class="cls-5" d="M138.38,154c1.35-3.25-13.8-14.48-17-12-1.62,1.25-.29,6.09,2,9C128,156.87,137.46,156.22,138.38,154Z" transform="translate(-0.74 -0.62)"/>
  <path class="cls-5" d="M137.38,168c-1.69-1.5-6.83.92-10,4-6,5.88-6.31,15.5-5,16,.92.34,1.77-4.15,7-8,3.26-2.4,5.26-2.37,7-5C137.88,172.71,138.7,169.18,137.38,168Z" transform="translate(-0.74 -0.62)"/>
  <path class="cls-5" d="M116.38,164c-1.64-2.51-8.86-.34-10,0-11.1,3.33-18,13.77-17,15,.65.77,3.81-2.83,11-4,5.28-.86,6.81.53,10-1C114.82,171.86,117.88,166.22,116.38,164Z" transform="translate(-0.74 -0.62)"/>
  <path class="cls-5" d="M207.38,123a15.17,15.17,0,0,1-1-14c.77-1.73,1.65-2.72,2-5,.43-2.86-.4-4.84,0-5,.69-.29,3.72,3.28,5,8,.74,2.73.5,5.48,0,11-.65,7.27-1.52,7.86-2,8C209.78,126.51,207.61,123.35,207.38,123Z" transform="translate(-0.74 -0.62)"/>
  <path class="cls-5" d="M206.38,132c-.61-2.75-7.52-4.18-13-3-8.39,1.8-13.86,9.81-13,11,.56.77,3.38-1.89,9-2,4.61-.11,5.6,1.61,9,1C202.68,138.23,206.88,134.42,206.38,132Z" transform="translate(-0.74 -0.62)"/>
  <path class="cls-5" d="M182.38,117c.52-2-5-5.5-10-7-6.56-2-14.53-1.18-15,1s6.19,5.69,12,7C174.76,119.23,181.88,119.06,182.38,117Z" transform="translate(-0.74 -0.62)"/>
  <path class="cls-5" d="M203.38,249c1.34-1.16,5.9,2.14,8,4,1,.89,4.86,4.31,4,6-.7,1.38-4.39,1.32-7,0C203.88,256.7,202,250.24,203.38,249Z" transform="translate(-0.74 -0.62)"/>
  <path class="cls-5" d="M201.38,262c1.83-.27,4.08,4.92,5,8,2.47,8.23.37,17.78-2,18-2,.19-4.19-6.16-5-10C197.88,270.74,199.14,262.33,201.38,262Z" transform="translate(-0.74 -0.62)"/>
  <path class="cls-5" d="M195.38,253c.9,1.07-2.43,5.48-5,8-6.21,6.1-15.18,8.41-16,7-.45-.78,1.57-2.71,4-5C184.93,256.8,194.12,251.51,195.38,253Z" transform="translate(-0.74 -0.62)"/>
  <path class="cls-5" d="M316.38,143c-2.69.11-5.4-4.44-6-8-.8-4.78,2-9.31,3-11,1.48-2.42,2.43-2.84,3-5,1-3.72-.76-6.58,0-7s4.17,2.34,6,6C327.23,127.73,321.18,142.82,316.38,143Z" transform="translate(-0.74 -0.62)"/>
  <path class="cls-5" d="M311.38,152c1.1-4.22,6.7-6.77,11-7,1.85-.11,2.15.3,4,0,4.34-.7,6.39-3.5,7-3s-1.41,5.24-5,9a22.69,22.69,0,0,1-10,6c-2.25.63-4.55,1.25-6,0S311,153.51,311.38,152Z" transform="translate(-0.74 -0.62)"/>
  <path class="cls-5" d="M307.55,149c.27-.85.88-3.33-3.14-11.76-1.73-3.63-2.66-5.54-4.63-7.78-2.42-2.76-5.82-5.32-6.53-4.72s3.11,4.12,3.63,10.43c.18,2.16-.12,3.61.66,6.29a20.74,20.74,0,0,0,2.07,4.55c2.2,4.05,3.56,6.56,5.12,6.46C306.12,152.38,307.15,150.26,307.55,149Z" transform="translate(-0.74 -0.62)"/>
  <path class="cls-5" d="M422.38,142c-1.8-.7-2.23-5.5-1-9,1.05-3,2.67-3.22,5-8a42,42,0,0,0,2-5c1.45-4.47,1.41-7,2-7,.75,0,1.61,3.92,2,7,.43,3.41.83,6.55,0,10C430.75,136.83,424.81,143,422.38,142Z" transform="translate(-0.74 -0.62)"/>
  <path class="cls-5" d="M440.38,135c.58,1.86,6,2.63,10,1,1.34-.55,2.9-1.7,6-4,1.65-1.22,2.11-1.66,4-3,3.4-2.4,4.55-2.84,5-3,2.43-.86,3.91-.52,4-1,.14-.75-3.25-2.7-7-3-4.43-.36-7.8,1.72-13,5C444.48,130.11,439.78,133.08,440.38,135Z" transform="translate(-0.74 -0.62)"/>
  <path class="cls-5" d="M427.38,146c1.89-1.81,5.64-1.47,11,0,3.44.94,14.36,3.91,14,6-.28,1.67-7.54,1.36-16,1a17.85,17.85,0,0,1-7-2c-2.81-1.48-3-2.61-3-3A2.82,2.82,0,0,1,427.38,146Z" transform="translate(-0.74 -0.62)"/>
  <path class="cls-5" d="M499.38,171c-1.08-1.61,1-5.08,3-7,2.72-2.56,6.58-3.45,9-4,2.21-.51,2.7-.33,4-1,3-1.55,3.94-4.31,5-4s1,2.75,1,3c0,4-2.93,6.94-4,8-3.38,3.36-7.22,4.33-10,5S500.49,172.65,499.38,171Z" transform="translate(-0.74 -0.62)"/>
  <path class="cls-5" d="M500.38,176a41.61,41.61,0,0,1,5,3c3.07,2.14,4.62,3.25,5,5s-.71,2.44,0,4c.16.35.4.74,3,3,1.75,1.52,2,1.7,2,2-.16,1-3.76,1.85-7,1-3.9-1-6.12-4.26-8-7a19.61,19.61,0,0,1-3-7c-.75-2.89-.39-3.65,0-4C498.26,175.22,500,175.86,500.38,176Z" transform="translate(-0.74 -0.62)"/>
  <path class="cls-5" d="M525.38,184c-.31.69.75,1.53,5,6,3.17,3.33,3.51,3.85,5,5,2.08,1.61,3.72,2.86,6,3,1.34.08,1.63-.29,3,0,.88.17,2,.61,4,1,.59.11.87.16,1,0,.34-.42-.57-2.12-2-3s-2-.2-4-1a9.21,9.21,0,0,1-5-5,13.34,13.34,0,0,0-7-6C529.1,183.24,525.88,183,525.38,184Z" transform="translate(-0.74 -0.62)"/>
  <path class="cls-5" d="M418.65,267.61c.76.41.63,2,.38,5-.29,3.38-.43,5.05-1.47,7.13-.43.86-2.46,2.74-6.53,6.51-.88.82-1.43,1.32-1.92,1.15-1.2-.4-1-4.37-.53-7a18.25,18.25,0,0,1,2.55-6.21C413.28,270.78,417.18,266.81,418.65,267.61Z" transform="translate(-0.74 -0.62)"/>
  <path class="cls-5" d="M423.38,260c-.48.79,1,2.53,4,6,1.86,2.16,2.78,3.23,4,4,3.42,2.14,8.26,2.45,9,1,.57-1.11-1.31-3.16-3-5a18.76,18.76,0,0,0-5-4C429.05,260.18,424.11,258.79,423.38,260Z" transform="translate(-0.74 -0.62)"/>
  <path class="cls-5" d="M416.38,261c-2-.49-3.75-.8-5-1a19.6,19.6,0,0,0-8,0c-1.79.42-2,.81-2,1-.1.82,2.28,1.73,3,2a18.9,18.9,0,0,0,7,1,11.33,11.33,0,0,0,5-1c.7-.36,1-.68,1-1C417.38,261.42,416.44,261,416.38,261Z" transform="translate(-0.74 -0.62)"/>
  <path class="cls-5" d="M206.43,143.68" transform="translate(-0.74 -0.62)"/>
  <path class="cls-5" d="M230.38,167s1-11-9-24-25.5-21.5-35.25-24.25" transform="translate(-0.74 -0.62)"/>
  <path class="cls-5" d="M215,184.06s-7.25-6.22-19.41-6.63" transform="translate(-0.74 -0.62)"/>
  <path class="cls-5" d="M226.39,203.82s-17,10.4-26,28.16" transform="translate(-0.74 -0.62)"/>
  <path class="cls-5" d="M198.38,242.62s.17,9.31,1.59,14.61" transform="translate(-0.74 -0.62)"/>
  <path class="cls-5" d="M249.43,232s.55-14.22-10.25-22.11" transform="translate(-0.74 -0.62)"/>
  <path class="cls-5" d="M155.38,165s-14-9-39-1" transform="translate(-0.74 -0.62)"/>
  <path class="cls-5" d="M160.38,182s-13.07-2.09-23,17.45" transform="translate(-0.74 -0.62)"/>
  <path class="cls-5" d="M303.52,181.56s-8.91-29.35,15-39.45" transform="translate(-0.74 -0.62)"/>
  <path class="cls-5" d="M375.56,232.11s-2.64-8.1,3.59-10.6" transform="translate(-0.74 -0.62)"/>
  <path class="cls-5" d="M397.3,211.12s13.61,3.27,18.34,22.08" transform="translate(-0.74 -0.62)"/>
  <path class="cls-5" d="M419.55,243.18c-.17-.17,3.83,7.83-1.17,24.83" transform="translate(-0.74 -0.62)"/>
  <path class="cls-5" d="M390.21,189.29S411.38,144,440.38,135" transform="translate(-0.74 -0.62)"/>
  <path class="cls-5" d="M399.24,201s21.25-16.66,41.69-15.33" transform="translate(-0.74 -0.62)"/>
  <path class="cls-5" d="M466.78,180.35s29.6-17.34,58.6,3.66" transform="translate(-0.74 -0.62)"/>
  <path class="cls-5" d="M465.07,197.24s26.36,4,25.34,20.91" transform="translate(-0.74 -0.62)"/>
  <path class="cls-3" d="M258.11,242.9,297.77,361Z" transform="translate(-0.74 -0.62)"/>
  <path class="cls-3" d="M348.19,244,312.88,361Z" transform="translate(-0.74 -0.62)"/>
  <path class="cls-6" d="M227.05,248.77a.75.75,0,1,0-.75-.75A.75.75,0,0,0,227.05,248.77Z" transform="translate(-0.74 -0.62)"/>
  <path class="cls-6" d="M256.25,248a.75.75,0,0,0,0-1.5.75.75,0,0,0,0,1.5Z" transform="translate(-0.74 -0.62)"/>
  <path class="cls-6" d="M242.21,252.83a.75.75,0,1,0-.75-.75A.75.75,0,0,0,242.21,252.83Z" transform="translate(-0.74 -0.62)"/>
  <path class="cls-6" d="M234.81,264.67a.75.75,0,0,0,0-1.5.75.75,0,0,0,0,1.5Z" transform="translate(-0.74 -0.62)"/>
  <path class="cls-6" d="M258.1,261.33a.75.75,0,1,0-.75-.75A.75.75,0,0,0,258.1,261.33Z" transform="translate(-0.74 -0.62)"/>
  <path class="cls-6" d="M249.6,276.11a.75.75,0,1,0-.75-.75A.75.75,0,0,0,249.6,276.11Z" transform="translate(-0.74 -0.62)"/>
  <path class="cls-6" d="M264.38,280.18a.75.75,0,1,0-.75-.75A.75.75,0,0,0,264.38,280.18Z" transform="translate(-0.74 -0.62)"/>
  <path class="cls-6" d="M248.12,292.76a.75.75,0,0,0,0-1.5.75.75,0,0,0,0,1.5Z" transform="translate(-0.74 -0.62)"/>
  <path class="cls-6" d="M263.64,297.93a.75.75,0,0,0,0-1.5.75.75,0,0,0,0,1.5Z" transform="translate(-0.74 -0.62)"/>
  <path class="cls-6" d="M273.25,299.77a.75.75,0,1,0-.75-.75A.75.75,0,0,0,273.25,299.77Z" transform="translate(-0.74 -0.62)"/>
  <path class="cls-6" d="M259.21,311.6a.75.75,0,0,0,0-1.5.75.75,0,1,0,0,1.5Z" transform="translate(-0.74 -0.62)"/>
  <path class="cls-6" d="M272.51,321.21a.75.75,0,0,0,0-1.5.75.75,0,0,0,0,1.5Z" transform="translate(-0.74 -0.62)"/>
  <path class="cls-6" d="M269.88,333.77a.75.75,0,1,0-.75-.75A.75.75,0,0,0,269.88,333.77Z" transform="translate(-0.74 -0.62)"/>
  <path class="cls-6" d="M288,340.43a.75.75,0,0,0,0-1.5.75.75,0,0,0,0,1.5Z" transform="translate(-0.74 -0.62)"/>
  <path class="cls-6" d="M284,329.33a.75.75,0,1,0-.75-.75A.75.75,0,0,0,284,329.33Z" transform="translate(-0.74 -0.62)"/>
  <path class="cls-6" d="M280.27,350.4a.75.75,0,1,0-.75-.75A.75.75,0,0,0,280.27,350.4Z" transform="translate(-0.74 -0.62)"/>
  <path class="cls-6" d="M291.36,357.43a.75.75,0,0,0,0-1.5h0a.75.75,0,0,0,0,1.5Z" transform="translate(-0.74 -0.62)"/>
  <path class="cls-6" d="M318.19,357.36a.75.75,0,0,0,0-1.5.75.75,0,1,0,0,1.5Z" transform="translate(-0.74 -0.62)"/>
  <path class="cls-6" d="M328.62,358.15a.75.75,0,1,0-.75-.75A.75.75,0,0,0,328.62,358.15Z" transform="translate(-0.74 -0.62)"/>
  <path class="cls-6" d="M325.41,349.74a.75.75,0,1,0,0-1.5.75.75,0,0,0,0,1.5Z" transform="translate(-0.74 -0.62)"/>
  <path class="cls-6" d="M323.81,340.51a.75.75,0,0,0,0-1.5.75.75,0,1,0,0,1.5Z" transform="translate(-0.74 -0.62)"/>
  <path class="cls-6" d="M334.64,342.11a.75.75,0,1,0-.75-.75A.75.75,0,0,0,334.64,342.11Z" transform="translate(-0.74 -0.62)"/>
  <path class="cls-6" d="M333,330.51a.75.75,0,0,0,0-1.5.75.75,0,0,0,0,1.5Z" transform="translate(-0.74 -0.62)"/>
  <path class="cls-6" d="M330.23,321.26a.75.75,0,0,0,0-1.5.75.75,0,0,0,0,1.5Z" transform="translate(-0.74 -0.62)"/>
  <path class="cls-6" d="M342.66,324.86a.75.75,0,1,0-.75-.75A.75.75,0,0,0,342.66,324.86Z" transform="translate(-0.74 -0.62)"/>
  <path class="cls-6" d="M340.25,312a.75.75,0,0,0,0-1.5.75.75,0,0,0,0,1.5Z" transform="translate(-0.74 -0.62)"/>
  <path class="cls-6" d="M335.44,305.61a.75.75,0,1,0-.75-.75A.75.75,0,0,0,335.44,305.61Z" transform="translate(-0.74 -0.62)"/>
  <path class="cls-6" d="M350.68,306.82a.75.75,0,0,0,0-1.5.75.75,0,0,0,0,1.5Z" transform="translate(-0.74 -0.62)"/>
  <path class="cls-6" d="M344.66,298a.75.75,0,1,0-.75-.75A.75.75,0,0,0,344.66,298Z" transform="translate(-0.74 -0.62)"/>
  <path class="cls-6" d="M340.65,287.57a.75.75,0,0,0,0-1.5.75.75,0,0,0,0,1.5Z" transform="translate(-0.74 -0.62)"/>
  <path class="cls-6" d="M357.1,291.18a.75.75,0,0,0,0-1.5.75.75,0,0,0,0,1.5Z" transform="translate(-0.74 -0.62)"/>
  <path class="cls-6" d="M353.09,279.51a.75.75,0,0,0,0-1.5.75.75,0,1,0,0,1.5Z" transform="translate(-0.74 -0.62)"/>
  <path class="cls-6" d="M346.67,271.12a.75.75,0,0,0,.75-.74.75.75,0,1,0-1.5,0A.74.74,0,0,0,346.67,271.12Z" transform="translate(-0.74 -0.62)"/>
  <path class="cls-6" d="M365.52,276.33a.75.75,0,1,0-.75-.75A.75.75,0,0,0,365.52,276.33Z" transform="translate(-0.74 -0.62)"/>
  <path class="cls-6" d="M359.1,265.9a.75.75,0,1,0-.75-.75A.75.75,0,0,0,359.1,265.9Z" transform="translate(-0.74 -0.62)"/>
  <path class="cls-6" d="M372.34,263.51a.75.75,0,0,0,0-1.5.75.75,0,1,0,0,1.5Z" transform="translate(-0.74 -0.62)"/>
  <path class="cls-6" d="M352.29,256.29a.75.75,0,1,0,0-1.5.75.75,0,1,0,0,1.5Z" transform="translate(-0.74 -0.62)"/>
  <path class="cls-6" d="M365.12,251.88a.76.76,0,0,0,.75-.76.75.75,0,1,0-.75.76Z" transform="translate(-0.74 -0.62)"/>
  <path class="cls-6" d="M353.88,246.26a.75.75,0,0,0,0-1.5.75.75,0,0,0,0,1.5Z" transform="translate(-0.74 -0.62)"/>
  <path class="cls-6" d="M378,246.26a.75.75,0,1,0,0-1.5.75.75,0,0,0,0,1.5Z" transform="translate(-0.74 -0.62)"/>
  <path class="cls-9" d="M681.27,82.1a.75.75,0,0,0,0-1.5.75.75,0,0,0,0,1.5Z" transform="translate(-0.74 -0.62)"/>
  <polygon class="cls-2" points="257.37 242.29 347.45 243.39 312.09 360.37 297.03 360.37 257.37 242.29"/>
  <polygon class="cls-2" points="171.6 231.49 164.65 241.92 432.68 242.6 427.61 232.64 171.6 231.49"/>
</svg>
