<?xml version="1.0" encoding="utf-8"?>
<!-- Generator: Adobe Illustrator 25.0.1, SVG Export Plug-In . SVG Version: 6.00 Build 0)  -->
<svg version="1.1" id="Layer_1" xmlns="http://www.w3.org/2000/svg" xmlns:xlink="http://www.w3.org/1999/xlink" x="0px" y="0px"
	 viewBox="0 0 300 300" style="enable-background:new 0 0 300 300;" xml:space="preserve">
<style type="text/css">
	.st0{fill:#D9C9C1;}
	.st1{fill:none;stroke:#FFFFFF;stroke-width:2;stroke-miterlimit:10;}
	.st2{fill:#FFFFFF;stroke:#FFFFFF;stroke-width:2;stroke-miterlimit:10;}
</style>
<g id="Layer_2_1_">
	<rect class="st0" width="300" height="300"/>
</g>
<g id="Layer_1_1_">
	<g>
		<path class="st1" d="M139.1,213"/>
		<path class="st1" d="M117.6,96.4c28.2,8.4,48.8,33.7,48.8,63.7c0,12.3-3.5,24.4-10.2,34.8"/>
		<path class="st1" d="M141.7,213c-12.2,8.9-26.9,13.7-41.9,13.6c-38.2,0-69.1-29.8-69.1-66.6c0-30.3,21-55.9,49.8-64"/>
		<path class="st1" d="M144.9,218.5"/>
		<path class="st1" d="M123.6,90.1c29.3,10.2,50.3,37.6,50.3,69.9c0,14.1-4.1,27.9-11.7,39.7"/>
		<path class="st1" d="M144.9,218.5c-13.3,10.2-29.6,15.7-46.4,15.7c-41.7,0-75.4-33.2-75.4-74.1c0-32,20.6-59.2,49.4-69.6"/>
		<path class="st1" d="M158.9,102.6c12.8-9.2,28.2-14.2,43.9-14.2c40.9,0,74.1,32.6,74.1,72.9s-33.2,72.9-74.1,72.9
			s-74.1-32.6-74.1-72.9c0-14.5,4.4-28.7,12.6-40.6"/>
		<path class="st1" d="M163.8,108.3c11.4-8,25-12.4,39-12.3c36.8,0,66.6,29.2,66.6,65.3s-29.8,65.3-66.6,65.3s-66.6-29.2-66.6-65.3
			c0-12.6,3.7-24.9,10.6-35.4"/>
		<polygon class="st1" points="80.9,65.8 114.2,65.8 121.1,80.9 98.5,103.5 75.9,80.9 		"/>
		<polygon class="st2" points="85.9,73.4 110,73.4 113.6,78.4 98.5,93.2 83.6,79.8 		"/>
	</g>
</g>
</svg>
